<svg width="30" height="30" viewBox="0 0 30 30" fill="none" xmlns="http://www.w3.org/2000/svg">
<circle cx="15" cy="15" r="15" fill="#5B63AD"/>
<path d="M25.1392 12.8027H19.5142C19.4175 12.8027 19.3384 12.8818 19.3384 12.9785V14.0332C19.3384 14.1299 19.4175 14.209 19.5142 14.209H25.1392C25.2358 14.209 25.3149 14.1299 25.3149 14.0332V12.9785C25.3149 12.8818 25.2358 12.8027 25.1392 12.8027ZM22.1948 15.791H19.5142C19.4175 15.791 19.3384 15.8701 19.3384 15.9668V17.0215C19.3384 17.1182 19.4175 17.1973 19.5142 17.1973H22.1948C22.2915 17.1973 22.3706 17.1182 22.3706 17.0215V15.9668C22.3706 15.8701 22.2915 15.791 22.1948 15.791ZM14.8625 10.8362H13.9111C13.7749 10.8362 13.665 10.946 13.665 11.0823V16.5315C13.665 16.6106 13.7024 16.6831 13.7661 16.7292L17.0378 19.1155C17.1477 19.1946 17.3015 19.1726 17.3806 19.0627L17.9453 18.2915V18.2893C18.0244 18.1794 18.0002 18.0256 17.8904 17.9465L15.1064 15.9338V11.0823C15.1086 10.946 14.9966 10.8362 14.8625 10.8362Z" fill="white"/>
<path d="M22.6641 18.7097H21.3941C21.271 18.7097 21.1546 18.7734 21.0886 18.8788C20.8096 19.3205 20.4844 19.7292 20.1109 20.1027C19.4671 20.7465 18.7178 21.2519 17.885 21.6035C17.0215 21.9682 16.1052 22.1528 15.1604 22.1528C14.2134 22.1528 13.2971 21.9682 12.4358 21.6035C11.603 21.2519 10.8538 20.7465 10.21 20.1027C9.56618 19.4589 9.06081 18.7097 8.70924 17.8769C8.3445 17.0156 8.15993 16.0993 8.15993 15.1523C8.15993 14.2053 8.3445 13.2912 8.70924 12.4277C9.06081 11.5949 9.56618 10.8456 10.21 10.2018C10.8538 9.55804 11.603 9.05267 12.4358 8.70111C13.2971 8.33636 14.2156 8.15179 15.1604 8.15179C16.1074 8.15179 17.0237 8.33636 17.885 8.70111C18.7178 9.05267 19.4671 9.55804 20.1109 10.2018C20.4844 10.5754 20.8096 10.9841 21.0886 11.4257C21.1546 11.5312 21.271 11.5949 21.3941 11.5949H22.6641C22.8157 11.5949 22.9124 11.4367 22.8443 11.3027C21.4116 8.45282 18.5069 6.60052 15.2637 6.56317C10.5154 6.50384 6.5713 10.3908 6.56252 15.1347C6.55373 19.8874 10.4055 23.7436 15.1582 23.7436C18.4431 23.7436 21.3963 21.8847 22.8443 19.0019C22.9124 18.8679 22.8135 18.7097 22.6641 18.7097Z" fill="white"/>
</svg>
