<svg width="30" height="30" viewBox="0 0 30 30" fill="none" xmlns="http://www.w3.org/2000/svg">
<circle cx="15" cy="15" r="15" fill="#5B63AD"/>
<g clip-path="url(#clip0_188_2235)">
<mask id="path-2-inside-1_188_2235" fill="white">
<path fill-rule="evenodd" clip-rule="evenodd" d="M17.9775 12.4084H21.2502C21.753 12.4559 22.2323 12.6418 22.6342 12.9451C23.0361 13.2484 23.3446 13.6572 23.5247 14.1252C24.0245 15.1973 24.2726 16.3679 24.2506 17.5489C24.2726 18.7298 24.0245 19.9004 23.5247 20.9725C23.3446 21.4405 23.0361 21.8493 22.6342 22.1526C22.2323 22.456 21.753 22.6419 21.2502 22.6893L17.9775 22.69C17.5337 22.659 17.1052 22.5192 16.7364 22.2723C16.3676 22.0255 16.0707 21.6868 15.8755 21.2901C15.5789 21.5651 15.2425 21.7945 14.8773 21.9706C13.7965 22.4659 12.6167 22.7118 11.4263 22.69C10.2358 22.7117 9.05574 22.4658 7.97466 21.9706C7.50397 21.791 7.09316 21.4846 6.78844 21.086C6.48373 20.6873 6.29721 20.2122 6.24988 19.7141V9.97296C6.29764 9.4743 6.4849 8.9988 6.79054 8.60009C7.09618 8.20138 7.50803 7.89533 7.97965 7.71646C9.06095 7.22117 10.2413 6.97522 11.4321 6.99707C12.6224 6.97526 13.8022 7.22121 14.883 7.71646C15.3548 7.89522 15.7668 8.20123 16.0726 8.59994C16.3783 8.99866 16.5657 9.47422 16.6135 9.97296V12.929C16.99 12.5984 17.4747 12.4136 17.9775 12.4084ZM19.0242 21.0631H17.9775C17.8513 21.0631 17.5169 20.9478 17.1654 20.2503C16.7805 19.4032 16.5917 18.4813 16.6128 17.5524C16.5917 16.6235 16.7805 15.7016 17.1654 14.8545C17.5176 14.1577 17.8513 14.0354 17.9768 14.0354L19.0242 14.029C19.0076 14.0601 18.9914 14.0913 18.9757 14.1224C18.4765 15.1946 18.2286 16.3651 18.2506 17.546C18.2286 18.7269 18.4765 19.8974 18.9757 20.9697C18.9914 21.0008 19.0076 21.0319 19.0242 21.0631ZM20.4431 20.2439C20.0583 19.3968 19.8694 18.475 19.8905 17.546C19.8694 16.6171 20.0583 15.6952 20.4431 14.8481C20.7953 14.1514 21.1283 14.029 21.2545 14.029C21.3807 14.029 21.7144 14.1514 22.0659 14.8481C22.4508 15.6952 22.6396 16.6171 22.6185 17.546C22.6396 18.475 22.4508 19.3968 22.0659 20.2439C21.7137 20.9407 21.3807 21.0631 21.2545 21.0631C21.1283 21.0631 20.7946 20.9414 20.4431 20.2439ZM8.71262 9.17222C9.5665 8.79042 10.4957 8.6031 11.4321 8.62401C12.369 8.60134 13.2992 8.78722 14.1543 9.16798C14.8567 9.51742 14.98 9.84776 14.98 9.97296C14.98 10.0982 14.8574 10.4292 14.1543 10.7779C13.3005 11.1597 12.3713 11.3471 11.4349 11.3262C10.4985 11.3471 9.56935 11.1597 8.71548 10.7779C8.01316 10.4285 7.88981 10.0975 7.88981 9.97296C7.88981 9.84846 8.00959 9.51742 8.71262 9.17222ZM11.4313 21.0666C10.495 21.0875 9.56578 20.9002 8.71191 20.5184C8.00959 20.1697 7.88981 19.8386 7.88981 19.7141V18.6757L7.98036 18.7266C9.06129 19.2223 10.2414 19.4685 11.4321 19.4467C12.6225 19.4674 13.8022 19.22 14.8823 18.7231L14.9764 18.675V19.7134C14.9764 19.8386 14.8538 20.1697 14.1508 20.5184C13.2969 20.9002 12.3677 21.0875 11.4313 21.0666ZM11.4313 17.8198C10.495 17.8407 9.56578 17.6534 8.71191 17.2716C8.00959 16.9228 7.88981 16.5918 7.88981 16.4673V15.4289L7.97965 15.4763C9.06058 15.972 10.2407 16.2182 11.4313 16.1964C12.6217 16.2183 13.8017 15.972 14.8823 15.4763L14.9764 15.4282V16.4666C14.9764 16.5918 14.8538 16.9228 14.1508 17.2716C13.2969 17.6534 12.3677 17.8407 11.4313 17.8198ZM11.4313 14.573C10.495 14.5939 9.56578 14.4066 8.71191 14.0248C8.00959 13.676 7.88981 13.345 7.88981 13.2219V12.1821L7.97965 12.2316C9.06085 12.7263 10.2409 12.9717 11.4313 12.9496C12.6217 12.9714 13.8015 12.7254 14.8823 12.2302L14.9764 12.1821V13.2198C14.9764 13.345 14.8538 13.676 14.1508 14.0248C13.2969 14.4066 12.3677 14.5939 11.4313 14.573Z"/>
</mask>
<path fill-rule="evenodd" clip-rule="evenodd" d="M17.9775 12.4084H21.2502C21.753 12.4559 22.2323 12.6418 22.6342 12.9451C23.0361 13.2484 23.3446 13.6572 23.5247 14.1252C24.0245 15.1973 24.2726 16.3679 24.2506 17.5489C24.2726 18.7298 24.0245 19.9004 23.5247 20.9725C23.3446 21.4405 23.0361 21.8493 22.6342 22.1526C22.2323 22.456 21.753 22.6419 21.2502 22.6893L17.9775 22.69C17.5337 22.659 17.1052 22.5192 16.7364 22.2723C16.3676 22.0255 16.0707 21.6868 15.8755 21.2901C15.5789 21.5651 15.2425 21.7945 14.8773 21.9706C13.7965 22.4659 12.6167 22.7118 11.4263 22.69C10.2358 22.7117 9.05574 22.4658 7.97466 21.9706C7.50397 21.791 7.09316 21.4846 6.78844 21.086C6.48373 20.6873 6.29721 20.2122 6.24988 19.7141V9.97296C6.29764 9.4743 6.4849 8.9988 6.79054 8.60009C7.09618 8.20138 7.50803 7.89533 7.97965 7.71646C9.06095 7.22117 10.2413 6.97522 11.4321 6.99707C12.6224 6.97526 13.8022 7.22121 14.883 7.71646C15.3548 7.89522 15.7668 8.20123 16.0726 8.59994C16.3783 8.99866 16.5657 9.47422 16.6135 9.97296V12.929C16.99 12.5984 17.4747 12.4136 17.9775 12.4084ZM19.0242 21.0631H17.9775C17.8513 21.0631 17.5169 20.9478 17.1654 20.2503C16.7805 19.4032 16.5917 18.4813 16.6128 17.5524C16.5917 16.6235 16.7805 15.7016 17.1654 14.8545C17.5176 14.1577 17.8513 14.0354 17.9768 14.0354L19.0242 14.029C19.0076 14.0601 18.9914 14.0913 18.9757 14.1224C18.4765 15.1946 18.2286 16.3651 18.2506 17.546C18.2286 18.7269 18.4765 19.8974 18.9757 20.9697C18.9914 21.0008 19.0076 21.0319 19.0242 21.0631ZM20.4431 20.2439C20.0583 19.3968 19.8694 18.475 19.8905 17.546C19.8694 16.6171 20.0583 15.6952 20.4431 14.8481C20.7953 14.1514 21.1283 14.029 21.2545 14.029C21.3807 14.029 21.7144 14.1514 22.0659 14.8481C22.4508 15.6952 22.6396 16.6171 22.6185 17.546C22.6396 18.475 22.4508 19.3968 22.0659 20.2439C21.7137 20.9407 21.3807 21.0631 21.2545 21.0631C21.1283 21.0631 20.7946 20.9414 20.4431 20.2439ZM8.71262 9.17222C9.5665 8.79042 10.4957 8.6031 11.4321 8.62401C12.369 8.60134 13.2992 8.78722 14.1543 9.16798C14.8567 9.51742 14.98 9.84776 14.98 9.97296C14.98 10.0982 14.8574 10.4292 14.1543 10.7779C13.3005 11.1597 12.3713 11.3471 11.4349 11.3262C10.4985 11.3471 9.56935 11.1597 8.71548 10.7779C8.01316 10.4285 7.88981 10.0975 7.88981 9.97296C7.88981 9.84846 8.00959 9.51742 8.71262 9.17222ZM11.4313 21.0666C10.495 21.0875 9.56578 20.9002 8.71191 20.5184C8.00959 20.1697 7.88981 19.8386 7.88981 19.7141V18.6757L7.98036 18.7266C9.06129 19.2223 10.2414 19.4685 11.4321 19.4467C12.6225 19.4674 13.8022 19.22 14.8823 18.7231L14.9764 18.675V19.7134C14.9764 19.8386 14.8538 20.1697 14.1508 20.5184C13.2969 20.9002 12.3677 21.0875 11.4313 21.0666ZM11.4313 17.8198C10.495 17.8407 9.56578 17.6534 8.71191 17.2716C8.00959 16.9228 7.88981 16.5918 7.88981 16.4673V15.4289L7.97965 15.4763C9.06058 15.972 10.2407 16.2182 11.4313 16.1964C12.6217 16.2183 13.8017 15.972 14.8823 15.4763L14.9764 15.4282V16.4666C14.9764 16.5918 14.8538 16.9228 14.1508 17.2716C13.2969 17.6534 12.3677 17.8407 11.4313 17.8198ZM11.4313 14.573C10.495 14.5939 9.56578 14.4066 8.71191 14.0248C8.00959 13.676 7.88981 13.345 7.88981 13.2219V12.1821L7.97965 12.2316C9.06085 12.7263 10.2409 12.9717 11.4313 12.9496C12.6217 12.9714 13.8015 12.7254 14.8823 12.2302L14.9764 12.1821V13.2198C14.9764 13.345 14.8538 13.676 14.1508 14.0248C13.2969 14.4066 12.3677 14.5939 11.4313 14.573Z" fill="white"/>
<path d="M17.9775 22.69L17.9566 22.9893L17.9671 22.99L17.9776 22.99L17.9775 22.69ZM19.0242 21.0631V21.3631H19.5247L19.2888 20.9216L19.0242 21.0631ZM18.9757 20.9697L18.7036 21.0964L18.7078 21.1047L18.9757 20.9697ZM18.2506 17.546L18.5507 17.5516L18.5505 17.5405L18.2506 17.546ZM19.8905 17.546L20.1908 17.5528L20.1904 17.5392L19.8905 17.546ZM20.4431 20.2439L20.1697 20.3681L20.1752 20.379L20.4431 20.2439ZM22.0659 20.2439L22.3339 20.3794L22.3391 20.368L22.0659 20.2439ZM22.6185 17.546L22.3183 17.5392L22.3186 17.5528L22.6185 17.546ZM22.0659 14.8481L22.3393 14.7239L22.3338 14.713L22.0659 14.8481ZM20.4431 14.8481L20.1751 14.7127L20.17 14.724L20.4431 14.8481ZM18.9757 14.1224L18.7077 13.9873L18.7038 13.9958L18.9757 14.1224ZM19.0242 14.029L19.2888 14.1704L19.5264 13.7259L19.0224 13.729L19.0242 14.029ZM17.9775 12.4084V12.1084L17.9744 12.1084L17.9775 12.4084ZM21.2502 12.4084L21.2784 12.1098L21.2644 12.1084H21.2502V12.4084ZM23.5247 14.1252L23.2448 14.233L23.2485 14.2426L23.2528 14.2519L23.5247 14.1252ZM24.2506 17.5489L23.9504 17.5433L23.9506 17.5545L24.2506 17.5489ZM23.5247 20.9725L23.2528 20.8458L23.2485 20.8551L23.2448 20.8647L23.5247 20.9725ZM21.2502 22.6893L21.2503 22.9893L21.2644 22.9893L21.2784 22.988L21.2502 22.6893ZM15.8755 21.2901L16.1447 21.1577L15.9669 20.7963L15.6716 21.0701L15.8755 21.2901ZM14.8773 21.9706L15.0023 22.2434L15.0076 22.2408L14.8773 21.9706ZM11.4263 22.69L11.4318 22.3899L11.4209 22.3901L11.4263 22.69ZM7.97466 21.9706L8.09959 21.6979L8.09072 21.6938L8.08161 21.6903L7.97466 21.9706ZM6.24988 19.7141H5.94988V19.7283L5.95122 19.7425L6.24988 19.7141ZM6.24988 9.97296L5.95124 9.94436L5.94988 9.95863V9.97296H6.24988ZM7.97965 7.71646L8.08603 7.99696L8.09544 7.99339L8.10458 7.98921L7.97965 7.71646ZM11.4321 6.99707L11.4265 7.29722L11.4375 7.29702L11.4321 6.99707ZM11.4321 8.62401L11.4253 8.92426L11.4393 8.92392L11.4321 8.62401ZM8.71262 9.17222L8.59009 8.89817L8.5804 8.90293L8.71262 9.17222ZM8.71548 10.7779L8.58172 11.0468L8.59302 11.0518L8.71548 10.7779ZM11.4349 11.3262L11.4416 11.0259L11.4282 11.0262L11.4349 11.3262ZM14.1543 10.7779L14.2769 11.052L14.2876 11.0467L14.1543 10.7779ZM14.1543 9.16798L14.2881 8.89914L14.2764 8.89392L14.1543 9.16798ZM14.883 7.71646L14.7581 7.98919L14.7673 7.99341L14.7767 7.99699L14.883 7.71646ZM16.6135 9.97296H16.9135V9.95861L16.9121 9.94433L16.6135 9.97296ZM16.6135 12.929H16.3135V13.5918L16.8115 13.1545L16.6135 12.929ZM17.9768 14.0354V14.3354L17.9786 14.3354L17.9768 14.0354ZM17.1654 14.8545L16.8974 14.719L16.8923 14.7304L17.1654 14.8545ZM16.6128 17.5524L16.913 17.5592L16.9127 17.5456L16.6128 17.5524ZM17.1654 20.2503L16.892 20.3745L16.8975 20.3853L17.1654 20.2503ZM8.71191 20.5184L8.57838 20.7873L8.58945 20.7923L8.71191 20.5184ZM11.4313 21.0666L11.438 20.7664L11.4246 20.7667L11.4313 21.0666ZM14.1508 20.5184L14.2733 20.7925L14.2841 20.7871L14.1508 20.5184ZM14.9764 18.675H15.2764V18.1848L14.8399 18.4079L14.9764 18.675ZM14.8823 18.7231L15.0078 18.9959L15.0188 18.9902L14.8823 18.7231ZM11.4321 19.4467L11.4373 19.1466L11.4266 19.1468L11.4321 19.4467ZM7.98036 18.7266L7.83329 18.9881L7.84407 18.9942L7.8553 18.9993L7.98036 18.7266ZM7.88981 18.6757L8.03687 18.4142L7.58981 18.1628V18.6757H7.88981ZM8.71191 17.2716L8.57838 17.5405L8.58945 17.5454L8.71191 17.2716ZM11.4313 17.8198L11.438 17.5196L11.4246 17.5199L11.4313 17.8198ZM14.1508 17.2716L14.2733 17.5457L14.2841 17.5403L14.1508 17.2716ZM14.9764 15.4282H15.2764V14.9379L14.8399 15.161L14.9764 15.4282ZM14.8823 15.4763L15.0075 15.7492L15.0188 15.7434L14.8823 15.4763ZM11.4313 16.1964L11.4369 15.8962L11.4258 15.8964L11.4313 16.1964ZM7.97965 15.4763L7.83967 15.7416L7.84703 15.7455L7.85459 15.749L7.97965 15.4763ZM7.88981 15.4289L8.02978 15.1635L7.58981 14.9314V15.4289H7.88981ZM8.71191 14.0248L8.57838 14.2937L8.58945 14.2986L8.71191 14.0248ZM11.4313 14.573L11.438 14.2727L11.4246 14.273L11.4313 14.573ZM14.1508 14.0248L14.2733 14.2988L14.2841 14.2935L14.1508 14.0248ZM14.9764 12.1821H15.2764V11.6918L14.8399 11.9149L14.9764 12.1821ZM14.8823 12.2302L15.0074 12.5031L15.0188 12.4973L14.8823 12.2302ZM11.4313 12.9496L11.4368 12.6494L11.4258 12.6496L11.4313 12.9496ZM7.97965 12.2316L7.83484 12.4943L7.84464 12.4997L7.85483 12.5044L7.97965 12.2316ZM7.88981 12.1821L8.03462 11.9193L7.58981 11.6742V12.1821H7.88981ZM17.9775 21.3631H19.0242V20.7631H17.9775V21.3631ZM19.2888 20.9216C19.2733 20.8926 19.2582 20.8636 19.2436 20.8347L18.7078 21.1047C18.7246 21.138 18.7419 21.1713 18.7596 21.2045L19.2888 20.9216ZM19.2477 20.8431C18.7677 19.8121 18.5294 18.6868 18.5505 17.5516L17.9506 17.5405C17.9278 18.767 18.1853 19.9827 18.7038 21.0963L19.2477 20.8431ZM19.5906 17.5392C19.5685 18.5133 19.7665 19.4799 20.17 20.368L20.7162 20.1198C20.35 19.3137 20.1704 18.4366 20.1904 17.5528L19.5906 17.5392ZM20.1752 20.379C20.5459 21.1145 20.9585 21.3631 21.2545 21.3631V20.7631C21.2982 20.7631 21.0433 20.7683 20.711 20.1089L20.1752 20.379ZM21.2545 21.3631C21.5509 21.3631 21.9626 21.1134 22.3337 20.3793L21.7982 20.1086C21.4648 20.768 21.2106 20.7631 21.2545 20.7631V21.3631ZM22.3391 20.368C22.7425 19.4799 22.9405 18.5133 22.9184 17.5392L22.3186 17.5528C22.3386 18.4366 22.159 19.3137 21.7928 20.1198L22.3391 20.368ZM22.9184 17.5528C22.9405 16.5787 22.7425 15.6122 22.3391 14.724L21.7928 14.9722C22.159 15.7783 22.3386 16.6554 22.3186 17.5392L22.9184 17.5528ZM22.3338 14.713C21.9632 13.9785 21.5507 13.729 21.2545 13.729V14.329C21.2107 14.329 21.4656 14.3243 21.7981 14.9833L22.3338 14.713ZM21.2545 13.729C20.9582 13.729 20.5465 13.9787 20.1754 14.7128L20.7108 14.9835C21.0442 14.3241 21.2985 14.329 21.2545 14.329V13.729ZM20.17 14.724C19.7665 15.6122 19.5685 16.5787 19.5906 17.5528L20.1904 17.5392C20.1704 16.6554 20.35 15.7783 20.7162 14.9722L20.17 14.724ZM18.5505 17.5405C18.5294 16.4052 18.7677 15.2799 19.2477 14.249L18.7038 13.9958C18.1853 15.1093 17.9278 16.325 17.9506 17.5516L18.5505 17.5405ZM19.2436 14.2574C19.2582 14.2284 19.2733 14.1995 19.2888 14.1704L18.7596 13.8876C18.7419 13.9208 18.7246 13.9541 18.7078 13.9874L19.2436 14.2574ZM17.9775 12.7084H21.2502V12.1084H17.9775V12.7084ZM21.222 12.7071C21.6696 12.7493 22.0961 12.9148 22.4535 13.1845L22.8149 12.7057C22.3685 12.3687 21.8363 12.1624 21.2784 12.1098L21.222 12.7071ZM22.4535 13.1845C22.8108 13.4543 23.0848 13.8175 23.2448 14.233L23.8047 14.0174C23.6043 13.4969 23.2614 13.0426 22.8149 12.7057L22.4535 13.1845ZM23.2528 14.2519C23.7333 15.2827 23.9718 16.408 23.9506 17.5433L24.5505 17.5545C24.5734 16.3277 24.3157 15.1119 23.7967 13.9985L23.2528 14.2519ZM23.9506 17.5545C23.9718 18.6897 23.7333 19.815 23.2528 20.8458L23.7967 21.0993C24.3157 19.9858 24.5734 18.77 24.5505 17.5433L23.9506 17.5545ZM23.2448 20.8647C23.0848 21.2802 22.8108 21.6434 22.4535 21.9132L22.8149 22.3921C23.2614 22.0551 23.6043 21.6008 23.8047 21.0803L23.2448 20.8647ZM22.4535 21.9132C22.0961 22.1829 21.6696 22.3484 21.222 22.3906L21.2784 22.988C21.8363 22.9353 22.3685 22.729 22.8149 22.3921L22.4535 21.9132ZM21.2502 22.3893L17.9774 22.39L17.9776 22.99L21.2503 22.9893L21.2502 22.3893ZM15.6716 21.0701C15.3969 21.3248 15.0853 21.5373 14.747 21.7004L15.0076 22.2408C15.3996 22.0518 15.7609 21.8055 16.0795 21.5101L15.6716 21.0701ZM14.7524 21.6979C13.7125 22.1744 12.5773 22.411 11.4318 22.3901L11.4209 22.99C12.6561 23.0126 13.8805 22.7574 15.0023 22.2433L14.7524 21.6979ZM11.4209 22.3901C10.2752 22.411 9.13973 22.1743 8.09959 21.6979L7.84972 22.2434C8.97175 22.7573 10.1964 23.0125 11.4318 22.99L11.4209 22.3901ZM8.08161 21.6903C7.66276 21.5305 7.29753 21.258 7.02679 20.9038L6.5501 21.2682C6.88879 21.7113 7.34518 22.0515 7.8677 22.2509L8.08161 21.6903ZM7.02679 20.9038C6.75608 20.5496 6.59054 20.1278 6.54853 19.6857L5.95122 19.7425C6.00389 20.2967 6.21139 20.825 6.5501 21.2682L7.02679 20.9038ZM6.54988 19.7141V9.97296H5.94988V19.7141H6.54988ZM6.54851 10.0016C6.5909 9.55903 6.75709 9.13683 7.02863 8.7826L6.55244 8.41757C6.21271 8.86076 6.00438 9.38956 5.95124 9.94436L6.54851 10.0016ZM7.02863 8.7826C7.30019 8.42836 7.66635 8.15613 8.08603 7.99696L7.87326 7.43596C7.34971 7.63453 6.89216 7.9744 6.55244 8.41757L7.02863 8.7826ZM8.10458 7.98921C9.14493 7.51267 10.2807 7.27599 11.4265 7.29702L11.4376 6.69712C10.2019 6.67444 8.97696 6.92966 7.85471 7.44371L8.10458 7.98921ZM11.4388 8.32408C10.458 8.30218 9.48468 8.49837 8.59016 8.89835L8.83508 9.44609C9.64831 9.08246 10.5334 8.90402 11.4254 8.92394L11.4388 8.32408ZM8.5804 8.90293C7.83894 9.26699 7.58981 9.67668 7.58981 9.97296H8.18981C8.18981 10.0202 8.18024 9.76784 8.84485 9.44151L8.5804 8.90293ZM7.58981 9.97296C7.58981 10.27 7.84375 10.6793 8.58184 11.0465L8.84911 10.5094C8.18257 10.1777 8.18981 9.92489 8.18981 9.97296H7.58981ZM8.59302 11.0518C9.48754 11.4518 10.4609 11.648 11.4416 11.6261L11.4282 11.0262C10.5362 11.0461 9.65116 10.8677 8.83793 10.5041L8.59302 11.0518ZM11.4282 11.6261C12.409 11.648 13.3823 11.4518 14.2768 11.0518L14.0319 10.5041C13.2186 10.8677 12.3336 11.0461 11.4416 11.0262L11.4282 11.6261ZM14.2876 11.0467C15.0271 10.6799 15.28 10.2705 15.28 9.97296H14.68C14.68 9.92578 14.6877 10.1785 14.021 10.5092L14.2876 11.0467ZM15.28 9.97296C15.28 9.67508 15.0259 9.26655 14.288 8.89938L14.0207 9.43657C14.6874 9.76828 14.68 10.0204 14.68 9.97296H15.28ZM14.2764 8.89392C13.3806 8.49503 12.4062 8.30036 11.4248 8.3241L11.4393 8.92392C12.3319 8.90233 13.2179 9.0794 14.0323 9.44203L14.2764 8.89392ZM11.4375 7.29702C12.583 7.27603 13.7182 7.51271 14.7581 7.98919L15.008 7.44373C13.8862 6.92971 12.6618 6.67449 11.4266 6.69712L11.4375 7.29702ZM14.7767 7.99699C15.1965 8.15607 15.5628 8.42825 15.8345 8.78251L16.3106 8.41738C15.9707 7.9742 15.513 7.63438 14.9893 7.43592L14.7767 7.99699ZM15.8345 8.78251C16.1062 9.13674 16.2724 9.55899 16.3149 10.0016L16.9121 9.94433C16.8589 9.38944 16.6505 8.86058 16.3106 8.41738L15.8345 8.78251ZM16.3135 9.97296V12.929H16.9135V9.97296H16.3135ZM16.8115 13.1545C17.1337 12.8715 17.5492 12.7128 17.9806 12.7084L17.9744 12.1084C17.4003 12.1143 16.8463 12.3254 16.4155 12.7036L16.8115 13.1545ZM17.9768 13.7354C17.6813 13.7354 17.2688 13.9849 16.8977 14.7192L17.4331 14.9898C17.7664 14.3306 18.0214 14.3354 17.9768 14.3354V13.7354ZM16.8923 14.7304C16.4888 15.6185 16.2908 16.5851 16.3129 17.5592L16.9127 17.5456C16.8927 16.6618 17.0723 15.7847 17.4385 14.9786L16.8923 14.7304ZM16.3129 17.5456C16.2908 18.5197 16.4888 19.4863 16.8923 20.3744L17.4385 20.1262C17.0723 19.3201 16.8927 18.443 16.9127 17.5592L16.3129 17.5456ZM16.8975 20.3853C17.2701 21.1246 17.6841 21.3631 17.9775 21.3631V20.7631C18.0185 20.7631 17.7637 20.771 17.4333 20.1153L16.8975 20.3853ZM17.9984 22.3907C17.6037 22.3632 17.2261 22.2391 16.9033 22.023L16.5695 22.5217C16.9844 22.7993 17.4638 22.9549 17.9566 22.9893L17.9984 22.3907ZM16.9033 22.023C16.578 21.8054 16.3165 21.5069 16.1447 21.1577L15.6064 21.4226C15.8249 21.8667 16.1571 22.2457 16.5695 22.5217L16.9033 22.023ZM8.58945 20.7923C9.48397 21.1922 10.4573 21.3884 11.438 21.3665L11.4246 20.7667C10.5327 20.7866 9.6476 20.6082 8.83437 20.2445L8.58945 20.7923ZM11.4246 21.3665C12.4054 21.3884 13.3787 21.1922 14.2732 20.7923L14.0283 20.2445C13.2151 20.6082 12.33 20.7866 11.438 20.7667L11.4246 21.3665ZM14.2841 20.7871C15.0235 20.4204 15.2764 20.011 15.2764 19.7134H14.6764C14.6764 19.6662 14.6841 19.919 14.0175 20.2496L14.2841 20.7871ZM15.2764 19.7134V18.675H14.6764V19.7134H15.2764ZM14.8399 18.4079L14.7458 18.456L15.0188 18.9902L15.113 18.9421L14.8399 18.4079ZM14.7569 18.4505C13.7178 18.9286 12.5827 19.1667 11.4373 19.1468L11.4268 19.7467C12.6623 19.7681 13.8866 19.5114 15.0077 18.9956L14.7569 18.4505ZM11.4266 19.1468C10.2809 19.1678 9.14537 18.9309 8.10542 18.4539L7.8553 18.9993C8.97722 19.5138 10.202 19.7693 11.4375 19.7467L11.4266 19.1468ZM8.12743 18.4652L8.03687 18.4142L7.74274 18.9372L7.83329 18.9881L8.12743 18.4652ZM7.58981 18.6757V19.7141H8.18981V18.6757H7.58981ZM7.58981 19.7141C7.58981 20.0099 7.83837 20.4196 8.57849 20.7871L8.84533 20.2497C8.18082 19.9197 8.18981 19.6673 8.18981 19.7141H7.58981ZM8.58945 17.5454C9.48397 17.9454 10.4573 18.1416 11.438 18.1197L11.4246 17.5199C10.5327 17.5398 9.6476 17.3613 8.83437 16.9977L8.58945 17.5454ZM11.4246 18.1197C12.4054 18.1416 13.3787 17.9454 14.2732 17.5454L14.0283 16.9977C13.2151 17.3613 12.33 17.5398 11.438 17.5199L11.4246 18.1197ZM14.2841 17.5403C15.0235 17.1735 15.2764 16.7642 15.2764 16.4666H14.6764C14.6764 16.4194 14.6841 16.6721 14.0175 17.0028L14.2841 17.5403ZM15.2764 16.4666V15.4282H14.6764V16.4666H15.2764ZM14.8399 15.161L14.7458 15.2091L15.0188 15.7434L15.113 15.6953L14.8399 15.161ZM14.7572 15.2036C13.7176 15.6806 12.5823 15.9175 11.4369 15.8964L11.4258 16.4963C12.6612 16.519 13.8858 16.2635 15.0074 15.749L14.7572 15.2036ZM11.4258 15.8964C10.2802 15.9174 9.14466 15.6805 8.1047 15.2036L7.85459 15.749C8.9765 16.2635 10.2013 16.519 11.4368 16.4963L11.4258 15.8964ZM8.11962 15.2109L8.02978 15.1635L7.74983 15.6942L7.83967 15.7416L8.11962 15.2109ZM7.58981 15.4289V16.4673H8.18981V15.4289H7.58981ZM7.58981 16.4673C7.58981 16.7631 7.83837 17.1728 8.57849 17.5403L8.84533 17.0029C8.18082 16.6729 8.18981 16.4205 8.18981 16.4673H7.58981ZM8.58945 14.2986C9.48397 14.6986 10.4573 14.8948 11.438 14.8729L11.4246 14.273C10.5327 14.293 9.6476 14.1145 8.83437 13.7509L8.58945 14.2986ZM11.4246 14.8729C12.4054 14.8948 13.3787 14.6986 14.2732 14.2986L14.0283 13.7509C13.2151 14.1145 12.33 14.293 11.438 14.273L11.4246 14.8729ZM14.2841 14.2935C15.0235 13.9267 15.2764 13.5174 15.2764 13.2198H14.6764C14.6764 13.1726 14.6841 13.4253 14.0175 13.756L14.2841 14.2935ZM15.2764 13.2198V12.1821H14.6764V13.2198H15.2764ZM14.8399 11.9149L14.7458 11.963L15.0188 12.4973L15.113 12.4492L14.8399 11.9149ZM14.7574 11.9574C13.7175 12.4339 12.5822 12.6706 11.4368 12.6496L11.4258 13.2495C12.6611 13.2721 13.8855 13.0169 15.0073 12.5029L14.7574 11.9574ZM11.4258 12.6496C10.2802 12.671 9.14472 12.4347 8.10447 11.9588L7.85483 12.5044C8.97697 13.0178 10.2016 13.2725 11.4369 13.2495L11.4258 12.6496ZM8.12446 11.9688L8.03462 11.9193L7.745 12.4448L7.83484 12.4943L8.12446 11.9688ZM7.58981 12.1821V13.2219H8.18981V12.1821H7.58981ZM7.58981 13.2219C7.58981 13.5165 7.83868 13.9261 8.57849 14.2935L8.84533 13.7561C8.18051 13.4259 8.18981 13.1735 8.18981 13.2219H7.58981ZM17.9786 14.3354L19.026 14.329L19.0224 13.729L17.975 13.7354L17.9786 14.3354Z" fill="#5B63AD" mask="url(#path-2-inside-1_188_2235)"/>
</g>
<defs>
<clipPath id="clip0_188_2235">
<rect width="18.75" height="17.1875" fill="white" transform="translate(6.24988 6.24988)"/>
</clipPath>
</defs>
</svg>
