<svg width="24" height="24" viewBox="0 0 24 24" fill="none" xmlns="http://www.w3.org/2000/svg">
<path d="M22 19.4892V11.9932C22 11.5937 21.9078 11.2 21.731 10.8448C21.5542 10.4895 21.298 10.183 20.9836 9.95071L14.9122 5.4677C14.5003 5.16352 14.0068 5 13.5006 5C12.9944 5 12.5009 5.16352 12.089 5.4677L6.01757 9.95071C5.70298 10.1829 5.44654 10.4893 5.26955 10.8446C5.09257 11.1998 5.00016 11.5936 5 11.9932V19.4892C5 20.1551 5.25587 20.7937 5.71131 21.2646C6.16676 21.7355 6.78447 22 7.42857 22H9.85714C10.1792 22 10.488 21.8677 10.7158 21.6323C10.9435 21.3969 11.0714 21.0776 11.0714 20.7446V16.9784C11.0714 16.6455 11.1994 16.3262 11.4271 16.0907C11.6548 15.8553 11.9637 15.723 12.2857 15.723H14.7143C15.0363 15.723 15.3452 15.8553 15.5729 16.0907C15.8006 16.3262 15.9286 16.6455 15.9286 16.9784V20.7446C15.9286 21.0776 16.0565 21.3969 16.2842 21.6323C16.512 21.8677 16.8208 22 17.1429 22H19.5714C20.2155 22 20.8332 21.7355 21.2887 21.2646C21.7441 20.7937 22 20.1551 22 19.4892Z" stroke="#5B63AD" stroke-width="1.5" stroke-miterlimit="10" stroke-linecap="round" stroke-linejoin="round"/>
</svg>
