<svg width="24" height="24" viewBox="0 0 24 24" fill="none" xmlns="http://www.w3.org/2000/svg">
<path d="M17.0413 19.958H7.95833C7.67681 19.9574 7.39878 19.8956 7.14355 19.7768C6.88833 19.658 6.66201 19.4851 6.48033 19.27C6.29023 19.0458 6.15124 18.7828 6.07301 18.4994C5.99478 18.216 5.97919 17.919 6.02733 17.629L7.33233 9.629C7.40237 9.1661 7.63537 8.74342 7.98939 8.43707C8.34341 8.13072 8.79517 7.96083 9.26333 7.958H10.5423V9.958H14.4583V7.958H10.5423V5.958C10.5423 5.70087 10.593 5.44626 10.6914 5.20871C10.7898 4.97115 10.934 4.7553 11.1158 4.57348C11.2976 4.39167 11.5135 4.24744 11.751 4.14904C11.9886 4.05065 12.2432 4 12.5003 4C12.7575 4 13.0121 4.05065 13.2496 4.14904C13.4872 4.24744 13.703 4.39167 13.8848 4.57348C14.0667 4.7553 14.2109 4.97115 14.3093 5.20871C14.4077 5.44626 14.4583 5.70087 14.4583 5.958V7.958H15.7363C16.2045 7.96083 16.6562 8.13072 17.0103 8.43707C17.3643 8.74342 17.5973 9.1661 17.6673 9.629L18.9723 17.629C19.0205 17.919 19.0049 18.216 18.9266 18.4994C18.8484 18.7828 18.7094 19.0458 18.5193 19.27C18.3376 19.4851 18.1113 19.658 17.8561 19.7768C17.6009 19.8956 17.3229 19.9574 17.0413 19.958V19.958Z" stroke="#5B63AD" stroke-width="1.485" stroke-miterlimit="10" stroke-linecap="round" stroke-linejoin="round"/>
</svg>
