<svg width="24" height="24" viewBox="0 0 24 24" fill="none" xmlns="http://www.w3.org/2000/svg">
<path d="M20.0132 18.222C20.0515 18.2211 20.0893 18.2126 20.1244 18.197C20.1594 18.1814 20.191 18.159 20.2173 18.1311C20.2436 18.1032 20.2642 18.0703 20.2777 18.0344C20.2912 17.9986 20.2975 17.9603 20.2962 17.922H22.0002C22.0063 18.1889 21.9597 18.4545 21.8632 18.7034C21.7666 18.9524 21.6219 19.1798 21.4374 19.3728C21.2528 19.5658 21.0321 19.7205 20.7877 19.8281C20.5433 19.9358 20.2801 19.9942 20.0132 20V18.222ZM6.39219 20V18.222H20.0132V20H6.39219ZM20.2922 17.925V9.333H5.25719H3.66619L4.54919 7.951L6.14919 5.451C6.42464 5.01072 6.80662 4.64697 7.25983 4.39336C7.71304 4.13975 8.22287 4.00447 8.74219 4H17.6642V5.778H14.0552V7.556H19.5552L18.8412 6.437C18.7161 6.23616 18.5422 6.07029 18.3357 5.95487C18.1292 5.83946 17.8968 5.77826 17.6602 5.777V4C18.1808 4.00331 18.6922 4.13815 19.1467 4.392C19.6013 4.64585 19.9843 5.01048 20.2602 5.452L21.8602 7.952L22.0002 8.175V8.444V17.926L20.2922 17.925ZM12.3522 7.556V5.778H8.74219C8.50561 5.77926 8.2732 5.84046 8.06667 5.95587C7.86015 6.07129 7.68624 6.23716 7.56119 6.438L6.84719 7.556H12.3522ZM1.85119 16.444V14.667H8.66319C8.89167 14.6778 9.10721 14.7762 9.26508 14.9418C9.42294 15.1073 9.51101 15.3273 9.51101 15.556C9.51101 15.7847 9.42294 16.0047 9.26508 16.1702C9.10721 16.3358 8.89167 16.4342 8.66319 16.445L1.85119 16.444ZM1.00019 15.556C0.995363 15.3253 1.08226 15.1022 1.24181 14.9355C1.40136 14.7688 1.62052 14.6722 1.85119 14.667V16.445C1.62052 16.4398 1.40136 16.3432 1.24181 16.1765C1.08226 16.0098 0.995363 15.7867 1.00019 15.556V15.556ZM4.12119 12.889V11.111H12.0672C12.2957 11.1218 12.5112 11.2202 12.6691 11.3858C12.8269 11.5513 12.915 11.7713 12.915 12C12.915 12.2287 12.8269 12.4487 12.6691 12.6142C12.5112 12.7798 12.2957 12.8782 12.0672 12.889H4.12119ZM3.27119 12C3.26867 11.8857 3.28868 11.7721 3.33009 11.6656C3.3715 11.5591 3.43348 11.4617 3.51251 11.3792C3.59154 11.2966 3.68606 11.2305 3.79067 11.1844C3.89528 11.1384 4.00793 11.1135 4.12219 11.111V12.889C3.89152 12.8838 3.67236 12.7872 3.51281 12.6205C3.35326 12.4538 3.26636 12.2307 3.27119 12V12Z" fill="#5B63AD"/>
</svg>
