<svg width="30" height="30" viewBox="0 0 30 30" fill="none" xmlns="http://www.w3.org/2000/svg">
<circle cx="15" cy="15" r="15" fill="#5B63AD"/>
<g clip-path="url(#clip0_53_224)">
<path d="M5.33018 18.6144L5.33036 18.6144L5.33018 18.6083C5.3238 18.4022 5.39805 18.2024 5.53609 18.0525C5.6737 17.9031 5.86342 17.8155 6.06364 17.8083H12.7159C12.914 17.8224 13.0999 17.9122 13.2362 18.0603C13.3734 18.2093 13.4499 18.4062 13.4499 18.611C13.4499 18.8158 13.3734 19.0126 13.2362 19.1616C13.0999 19.3098 12.914 19.3996 12.7159 19.4136H6.06365C5.86354 19.4064 5.67393 19.319 5.53634 19.1697C5.39832 19.02 5.32399 18.8203 5.33018 18.6144ZM6.69404 15.0031L6.69422 15.0031L6.69404 14.997C6.68784 14.791 6.76216 14.5912 6.90018 14.4413C7.03777 14.2919 7.22739 14.2043 7.42757 14.197H15.19C15.3893 14.2096 15.5767 14.2989 15.7143 14.4473C15.8526 14.5965 15.9298 14.7942 15.9298 15C15.9298 15.2058 15.8526 15.4035 15.7143 15.5527C15.5768 15.7011 15.3893 15.7904 15.19 15.803H7.4275C7.22728 15.7958 7.03756 15.7083 6.89995 15.5589C6.76191 15.409 6.68766 15.2091 6.69404 15.0031ZM22.1044 21.4197V21.4198L22.1078 21.4196C22.2108 21.4161 22.3078 21.3712 22.3777 21.2953C22.4472 21.2199 22.4845 21.12 22.4819 21.0173L22.4826 12.2917L22.4826 12.1917H22.3826H7.68046H6.30455L7.07307 10.9403L7.0731 10.9403L8.63383 8.40148L8.63384 8.40148L8.63459 8.40023C8.89084 7.96943 9.25076 7.61254 9.68012 7.3632C10.1093 7.11397 10.5937 6.98039 11.0876 6.975H19.8072C20.301 6.98039 20.7855 7.11397 21.2147 7.3632C21.644 7.61254 22.0039 7.96943 22.2602 8.40023L22.2609 8.40148L23.8216 10.9401L23.8217 10.9403L23.946 11.1436V11.3886V21.0187H23.946L23.9461 21.0217C23.9617 21.537 23.7758 22.0373 23.4296 22.4128C23.0839 22.7878 22.6067 23.0077 22.1027 23.025H8.8904V21.4197H22.1044ZM16.2802 8.58107H16.1802V8.68107V10.4864V10.5864H16.2802H21.6589H21.8377L21.7441 10.434L21.0469 9.29998C21.0468 9.29978 21.0466 9.29957 21.0465 9.29937C20.9174 9.08302 20.7362 8.90346 20.5198 8.77773C20.3032 8.65188 20.0586 8.58416 19.8089 8.58108V8.58107H19.8077H16.2802ZM14.7146 8.68107V8.58107H14.6146L11.0871 8.58106L11.0859 8.58108C10.8361 8.58401 10.5913 8.65167 10.3746 8.77753C10.158 8.90327 9.97669 9.08292 9.84749 9.29939L9.14995 10.434L9.05627 10.5864H9.23514H14.6146H14.7146V10.4864V8.68107Z" fill="white" stroke="#5B63AD" stroke-width="0.2"/>
</g>
<defs>
<clipPath id="clip0_53_224">
<rect width="20.5263" height="16.25" fill="white" transform="translate(4.375 6.875)"/>
</clipPath>
</defs>
</svg>
