<svg width="30" height="30" viewBox="0 0 30 30" fill="none" xmlns="http://www.w3.org/2000/svg">
<path d="M17.5002 5.75002C17.0916 5.7494 16.6956 5.8918 16.381 6.15252L16.3809 6.1526C16.2037 6.29951 16.0572 6.47994 15.9498 6.68355C15.8425 6.88716 15.7763 7.10994 15.7552 7.33915C15.7341 7.56836 15.7584 7.79949 15.8267 8.01929C15.895 8.23903 16.006 8.44314 16.1532 8.61994C16.1533 8.61999 16.1533 8.62005 16.1534 8.6201L20.0081 13.25L6.25 13.25C5.78587 13.25 5.34075 13.4344 5.01256 13.7626C4.68437 14.0908 4.5 14.5359 4.5 15C4.5 15.4641 4.68437 15.9093 5.01256 16.2375C5.34075 16.5656 5.78587 16.75 6.25 16.75L20.0081 16.75L16.1532 21.3801L16.153 21.3804C15.856 21.7377 15.7132 22.1983 15.7558 22.6608C15.7985 23.1234 16.0231 23.5501 16.3804 23.847C16.7377 24.144 17.1982 24.2868 17.6608 24.2442C18.1233 24.2015 18.5499 23.977 18.8468 23.6198C18.8469 23.6198 18.847 23.6197 18.847 23.6196L25.0966 16.1201L25.1095 16.1046L25.1212 16.0881C25.1774 16.0084 25.2276 15.9246 25.2715 15.8376L25.2947 15.7914L25.3232 15.7711L25.3775 15.6338C25.4568 15.4332 25.4983 15.2196 25.5 15.0038H25.5L25.5 14.9962C25.4986 14.8097 25.4673 14.6248 25.4076 14.4485C25.4015 14.3978 25.3882 14.3335 25.3596 14.2684C25.3229 14.1844 25.272 14.1191 25.2209 14.0685C25.1901 14.0148 25.1569 13.9626 25.1212 13.912L25.1095 13.8954L25.0966 13.8799L18.8467 6.38002C18.8467 6.37999 18.8466 6.37996 18.8466 6.37993C18.6821 6.18243 18.4761 6.0236 18.2432 5.91473C18.0106 5.80598 17.7569 5.74975 17.5002 5.75002ZM17.5002 5.75002C17.5005 5.75002 17.5007 5.75002 17.501 5.75002L17.5 6.25002L17.4992 5.75002C17.4995 5.75002 17.4999 5.75002 17.5002 5.75002ZM25.2031 15.8569L25.2036 15.8566C25.2013 15.8584 25.2009 15.8584 25.2031 15.8569Z" fill="white" stroke="#5B63AD"/>
</svg>
