<svg width="30" height="30" viewBox="0 0 30 30" fill="none" xmlns="http://www.w3.org/2000/svg">
<path d="M12.4998 24.25C12.9084 24.2506 13.3044 24.1082 13.619 23.8475L13.6191 23.8474C13.7963 23.7005 13.9428 23.5201 14.0502 23.3165C14.1575 23.1128 14.2237 22.8901 14.2448 22.6608C14.2659 22.4316 14.2416 22.2005 14.1733 21.9807L13.7585 22.1097L14.1733 21.9807C14.105 21.761 13.994 21.5569 13.8468 21.3801C13.8467 21.38 13.8467 21.38 13.8466 21.3799L9.99189 16.75H23.75C24.2141 16.75 24.6592 16.5656 24.9874 16.2374C25.3156 15.9092 25.5 15.4641 25.5 15C25.5 14.5359 25.3156 14.0907 24.9874 13.7625C24.6592 13.4344 24.2141 13.25 23.75 13.25H9.99189L13.8468 8.6199L13.847 8.61958C14.144 8.26233 14.2868 7.80175 14.2442 7.33917C14.2015 6.87659 13.9769 6.4499 13.6196 6.15296C13.2623 5.85602 12.8018 5.71316 12.3392 5.75581C11.8767 5.79845 11.4501 6.02301 11.1532 6.38009C11.1531 6.38019 11.1531 6.38028 11.153 6.38038L4.90339 13.8799L4.89046 13.8954L4.87882 13.9119C4.82264 13.9916 4.7724 14.0754 4.7285 14.1624L4.70526 14.2086L4.67678 14.2289L4.62251 14.3662C4.54319 14.5668 4.50166 14.7804 4.50001 14.9962H4.49996L4.50001 15.0038C4.50144 15.1903 4.53267 15.3752 4.59235 15.5515C4.59851 15.6022 4.61185 15.6665 4.64036 15.7316C4.67708 15.8156 4.728 15.8809 4.77908 15.9315C4.80986 15.9852 4.84314 16.0374 4.87882 16.088L4.89046 16.1046L4.90339 16.1201L11.1533 23.62C11.3179 23.8175 11.5239 23.9764 11.7568 24.0853C11.9894 24.194 12.2431 24.2502 12.4998 24.25ZM12.4998 24.25C12.4995 24.25 12.4993 24.25 12.499 24.25L12.5 23.75L12.5008 24.25C12.5005 24.25 12.5001 24.25 12.4998 24.25ZM4.79688 14.1431L4.79645 14.1434C4.79871 14.1416 4.79906 14.1416 4.79688 14.1431Z" fill="white" stroke="#5B63AD"/>
</svg>
