<svg width="24" height="24" viewBox="0 0 24 24" fill="none" xmlns="http://www.w3.org/2000/svg">
<circle cx="12" cy="12" r="12" transform="rotate(-180 12 12)" fill="#5B63AD"/>
<path d="M6.33388 11.728C6.29034 11.6857 6.25573 11.635 6.2321 11.579C6.20846 11.523 6.19629 11.4628 6.19629 11.402C6.19629 11.3413 6.20846 11.2811 6.2321 11.2251C6.25573 11.1691 6.29034 11.1184 6.33388 11.076C6.42313 10.9891 6.54279 10.9405 6.66738 10.9405C6.79196 10.9405 6.91163 10.9891 7.00088 11.076L11.9989 15.9491L16.9979 11.076C17.0428 11.0322 17.0959 10.9976 17.1542 10.9743C17.2125 10.9509 17.2748 10.9393 17.3375 10.94C17.4003 10.9408 17.4623 10.9539 17.52 10.9786C17.5777 11.0033 17.63 11.0391 17.6739 11.084C17.7157 11.1268 17.7487 11.1774 17.7709 11.233C17.7931 11.2885 17.8042 11.3479 17.8034 11.4077C17.8027 11.4675 17.7902 11.5266 17.7666 11.5816C17.743 11.6365 17.7087 11.6863 17.6659 11.728L12.3479 16.9101C12.2545 17.0011 12.1293 17.052 11.9989 17.052C11.8685 17.052 11.7433 17.0011 11.6499 16.9101L6.33388 11.728ZM6.33388 7.72805C6.29034 7.68565 6.25573 7.63496 6.2321 7.57897C6.20846 7.52298 6.19629 7.46282 6.19629 7.40205C6.19629 7.34128 6.20846 7.28112 6.2321 7.22513C6.25573 7.16913 6.29034 7.11844 6.33388 7.07605C6.42313 6.98913 6.54279 6.94048 6.66738 6.94048C6.79196 6.94048 6.91163 6.98913 7.00088 7.07605L11.9989 11.949L16.9979 7.07605C17.0428 7.03218 17.0959 6.99759 17.1542 6.97425C17.2125 6.95092 17.2748 6.93929 17.3375 6.94003C17.4003 6.94077 17.4623 6.95387 17.52 6.97858C17.5777 7.00329 17.63 7.03913 17.6739 7.08405C17.7157 7.12683 17.7487 7.17744 17.7709 7.23298C17.7931 7.28852 17.8042 7.34789 17.8034 7.40771C17.8027 7.46752 17.7902 7.52661 17.7666 7.58157C17.743 7.63654 17.7087 7.68632 17.6659 7.72805L12.3479 12.91C12.2545 13.0011 12.1293 13.052 11.9989 13.052C11.8685 13.052 11.7433 13.0011 11.6499 12.91L6.33388 7.72805Z" fill="white"/>
</svg>
