<svg width="24" height="24" viewBox="0 0 24 24" fill="none" xmlns="http://www.w3.org/2000/svg">
<circle cx="12" cy="12" r="12" fill="#5B63AD"/>
<path d="M17.6661 12.272C17.7097 12.3143 17.7443 12.365 17.7679 12.421C17.7915 12.477 17.8037 12.5372 17.8037 12.598C17.8037 12.6587 17.7915 12.7189 17.7679 12.7749C17.7443 12.8309 17.7097 12.8816 17.6661 12.924C17.5769 13.0109 17.4572 13.0595 17.3326 13.0595C17.208 13.0595 17.0884 13.0109 16.9991 12.924L12.0011 8.05095L7.00212 12.924C6.95721 12.9678 6.9041 13.0024 6.84582 13.0257C6.78754 13.0491 6.72523 13.0607 6.66246 13.06C6.59969 13.0592 6.53767 13.0461 6.47996 13.0214C6.42225 12.9967 6.36998 12.9609 6.32612 12.916C6.28431 12.8732 6.25134 12.8226 6.22912 12.767C6.20689 12.7115 6.19583 12.6521 6.19657 12.5923C6.19731 12.5325 6.20984 12.4734 6.23345 12.4184C6.25705 12.3635 6.29126 12.3137 6.33412 12.272L11.6521 7.08995C11.7455 6.99894 11.8707 6.948 12.0011 6.948C12.1315 6.948 12.2567 6.99894 12.3501 7.08995L17.6661 12.272ZM17.6661 16.272C17.7097 16.3143 17.7443 16.365 17.7679 16.421C17.7915 16.477 17.8037 16.5372 17.8037 16.598C17.8037 16.6587 17.7915 16.7189 17.7679 16.7749C17.7443 16.8309 17.7097 16.8816 17.6661 16.924C17.5769 17.0109 17.4572 17.0595 17.3326 17.0595C17.208 17.0595 17.0884 17.0109 16.9991 16.924L12.0011 12.051L7.00212 16.924C6.95721 16.9678 6.9041 17.0024 6.84582 17.0257C6.78754 17.0491 6.72523 17.0607 6.66246 17.06C6.59969 17.0592 6.53767 17.0461 6.47996 17.0214C6.42225 16.9967 6.36998 16.9609 6.32612 16.916C6.28431 16.8732 6.25134 16.8226 6.22912 16.767C6.20689 16.7115 6.19583 16.6521 6.19657 16.5923C6.19731 16.5325 6.20984 16.4734 6.23345 16.4184C6.25705 16.3635 6.29126 16.3137 6.33412 16.272L11.6521 11.09C11.7455 10.9989 11.8707 10.948 12.0011 10.948C12.1315 10.948 12.2567 10.9989 12.3501 11.09L17.6661 16.272Z" fill="white"/>
</svg>
