<svg width="406" height="105" viewBox="0 0 406 105" fill="none" xmlns="http://www.w3.org/2000/svg">
<path d="M329.733 91.2288C321.109 91.2288 315.497 89.891 312.062 87.0151C309.041 84.482 307.692 80.7681 307.692 74.9751C307.692 63.2635 313.737 58.9073 329.993 58.9073C333.831 58.9274 337.665 59.1692 341.476 59.6317V55.8454C341.747 52.7099 340.879 49.582 339.032 47.0387C337.108 44.7761 333.998 43.675 329.509 43.675C329.103 43.6387 328.689 43.6194 328.282 43.6194C326.026 43.6174 323.807 44.1945 321.836 45.2959C319.865 46.3973 318.207 47.9865 317.02 49.9123C316.298 50.9844 315.892 51.4891 315.146 51.4891C314.647 51.456 314.157 51.3308 313.703 51.1197L310.576 49.6829C310.227 49.5896 309.901 49.4244 309.62 49.1978C309.338 48.9712 309.107 48.6882 308.94 48.3668C308.844 48.003 308.824 47.623 308.881 47.251C308.939 46.879 309.073 46.523 309.274 46.2056C311.03 42.8315 313.745 40.0577 317.075 38.2369C321.031 36.2113 325.429 35.215 329.867 35.3392C333.316 35.2599 336.752 35.8038 340.009 36.945C342.48 37.842 344.684 39.3552 346.412 41.3423C349.299 44.7423 350.718 49.5525 350.718 56.0168V82.7603C350.718 86.3993 349.835 87.3604 347.004 88.5798C342.103 90.3611 336.93 91.2722 331.717 91.2723C331.058 91.2723 330.397 91.2578 329.733 91.2288ZM316.796 74.9727C316.796 80.6642 318.682 83.5523 328.989 83.5523C329.543 83.5789 330.106 83.5909 330.673 83.5909C333.869 83.5894 337.052 83.1681 340.139 82.3377C341.325 81.8112 341.625 81.5215 341.625 80.0702V67.1851C341.094 67.1537 340.317 67.0861 339.338 67.0015C336.73 66.7746 332.788 66.4292 329.175 66.4292V66.3544C320.267 66.3544 316.796 68.7716 316.796 74.9727ZM255.544 91.2288C246.937 91.2288 241.328 89.891 237.888 87.0151C234.855 84.4771 233.503 80.7657 233.503 74.9751C233.503 63.2635 239.548 58.9073 255.804 58.9073C259.642 58.9274 263.477 59.1692 267.287 59.6317V55.8454C267.558 52.7099 266.69 49.582 264.843 47.0387C262.919 44.7761 259.809 43.675 255.32 43.675C254.904 43.6363 254.486 43.617 254.069 43.617C251.818 43.6174 249.604 44.196 247.638 45.2979C245.672 46.3998 244.02 47.9883 242.838 49.9123C242.102 50.9844 241.677 51.4891 240.941 51.4891C240.452 51.4553 239.974 51.33 239.531 51.1197L236.404 49.6829C236.05 49.5874 235.72 49.4192 235.434 49.1889C235.148 48.9586 234.913 48.6713 234.744 48.3451C234.649 47.985 234.628 47.609 234.683 47.2405C234.739 46.872 234.869 46.519 235.066 46.2032C236.872 42.8332 239.616 40.0641 242.964 38.2345C246.925 36.2111 251.327 35.215 255.77 35.3368C259.213 35.2577 262.642 35.8017 265.892 36.9426C268.36 37.8403 270.559 39.3535 272.284 41.3399C275.17 44.7423 276.587 49.5501 276.587 56.0144V82.7603C276.587 86.2085 275.892 87.2952 272.87 88.5798C267.945 90.3653 262.748 91.2764 257.512 91.2723C256.867 91.2723 256.198 91.2578 255.544 91.2288ZM242.685 74.9727C242.685 80.6642 244.57 83.5523 254.875 83.5523C255.453 83.5813 256.04 83.5958 256.617 83.5958C259.795 83.5943 262.959 83.1712 266.027 82.3377C267.244 81.7968 267.552 81.4756 267.552 80.0702V67.1851C266.979 67.1537 266.159 67.0836 265.12 66.9943C262.532 66.7697 258.625 66.4317 255.063 66.4317V66.3568C246.153 66.3544 242.685 68.7716 242.685 74.9727ZM217.223 89.7944C215.438 89.7944 214.817 89.1521 214.817 87.3362V39.4395C214.817 37.6043 215.428 36.9837 217.223 36.9837H221.459C223.292 36.9837 223.912 37.6043 223.912 39.4395V87.3362C223.912 89.1714 223.304 89.7944 221.507 89.7944H217.223ZM153.553 89.7944C151.658 89.7944 150.95 89.07 150.95 87.1116V19.7954C150.95 17.8636 151.655 17.1392 153.553 17.1392H181.726C194.362 17.1392 201.609 23.9995 201.609 35.9743C201.609 43.8368 198.778 49.0551 192.95 51.9262V52.228C196.36 53.1835 199.298 55.3705 201.2 58.3688C203.256 61.8959 204.266 65.9389 204.111 70.0224C204.237 72.7645 203.762 75.501 202.72 78.0389C201.678 80.5768 200.094 82.8545 198.08 84.7114C193.638 88.249 188.068 90.0505 182.404 89.7824L153.553 89.7944ZM160.724 80.7198H182.358C189.993 80.7198 194.03 76.7185 194.03 69.1531C194.221 67.5537 194.051 65.9316 193.532 64.407C193.014 62.8825 192.16 61.4947 191.035 60.3465C189.917 59.2086 188.552 58.3465 187.047 57.8278C185.541 57.309 183.936 57.1479 182.358 57.357H160.724V80.7198ZM160.724 48.3258H180.648C188.045 48.3258 191.797 44.6481 191.797 37.4014C191.797 30.1547 187.941 26.3153 180.648 26.3153H160.724V48.3258ZM291.075 89.792C289.254 89.792 288.669 89.1521 288.669 87.3362V16.4582C288.669 14.6447 289.266 14 291.075 14H295.2C296.985 14 297.606 14.6423 297.606 16.4582V87.2952C297.606 89.1497 296.973 89.7896 295.2 89.7896L291.075 89.792ZM399.385 89.7558C397.6 89.7558 397.006 89.1135 397.006 87.2976V55.9588C397.006 48.0964 392.77 43.786 384.295 43.786C379.895 43.701 375.523 44.4981 371.434 46.1308V87.2952C371.434 89.1087 370.839 89.7534 369.129 89.7534H364.893C363.072 89.7534 362.488 89.1111 362.488 87.2952V16.4582C362.488 14.6447 363.082 14 364.893 14H369.124C370.832 14.0362 371.429 14.681 371.429 16.4582V37.6646C375.941 36.0283 380.719 35.2591 385.515 35.3972C399.601 35.3972 405.92 42.9578 405.92 55.6594V87.2928C405.92 89.1062 405.324 89.751 403.515 89.751L399.385 89.7558ZM219.044 28.2905C215.342 28.2905 214.211 27.1435 214.211 23.3765V22.5434C214.214 18.8295 215.388 17.6221 219.044 17.6221H219.638C223.342 17.6221 224.47 18.7691 224.47 22.5362V23.3693C224.47 27.1822 223.388 28.2833 219.638 28.2833L219.044 28.2905Z" fill="white"/>
<path d="M67.4465 28.2189C53.1308 28.2189 28.9265 25.2526 28.9265 14.1264C28.9478 13.0485 29.3947 12.0218 30.1713 11.2669C30.9479 10.5121 31.9922 10.0892 33.0798 10.0892C34.1675 10.0892 35.2118 10.5121 35.9884 11.2669C36.765 12.0218 37.2119 13.0485 37.2332 14.1264C38.1487 15.5718 48.2849 19.9836 67.4449 19.9836C86.605 19.9836 96.719 15.5734 97.7329 13.7285C97.7313 13.1816 97.8452 12.6404 98.0672 12.1398C98.2892 11.6391 98.6144 11.19 99.0219 10.8213C99.4294 10.4527 99.9102 10.1726 100.433 9.99903C100.957 9.82549 101.511 9.76237 102.06 9.8137C103.179 9.85905 104.235 10.3349 105.006 11.1402C105.776 11.9455 106.199 13.0167 106.186 14.1264C106.065 25.2526 81.8352 28.2189 67.4465 28.2189Z" fill="white"/>
<path d="M101.912 83.2129C100.811 83.2129 99.7541 82.779 98.975 82.0068C98.196 81.2346 97.7583 80.1873 97.7583 79.0952V14.128C97.7796 13.0501 98.2265 12.0234 99.0031 11.2685C99.7796 10.5137 100.824 10.0908 101.912 10.0908C102.999 10.0908 104.044 10.5137 104.82 11.2685C105.597 12.0234 106.044 13.0501 106.065 14.128V78.9725C106.082 79.524 105.988 80.0734 105.787 80.5879C105.586 81.1025 105.283 81.5718 104.895 81.9679C104.508 82.364 104.044 82.6789 103.531 82.8938C103.019 83.1088 102.467 83.2194 101.911 83.2192L101.912 83.2129Z" fill="white"/>
<path d="M33.1807 95.0231C32.0793 95.0231 31.0229 94.5895 30.2439 93.8176C29.4649 93.0458 29.027 91.9988 29.0266 90.907V39.0997C29.0479 38.0218 29.4948 36.9951 30.2714 36.2402C31.048 35.4854 32.0923 35.0625 33.1799 35.0625C34.2676 35.0625 35.3119 35.4854 36.0885 36.2402C36.8651 36.9951 37.312 38.0218 37.3333 39.0997V90.8079C37.3464 91.3568 37.2486 91.9028 37.0457 92.4137C36.8429 92.9245 36.5389 93.3901 36.1519 93.7828C35.7648 94.1756 35.3024 94.4876 34.7919 94.7006C34.2814 94.9136 33.7331 95.0233 33.1791 95.0231H33.1807Z" fill="white"/>
<path d="M78.9918 83.2116C78.4375 83.2081 77.8896 83.0947 77.3803 82.8781C76.8709 82.6615 76.4105 82.346 76.026 81.9502C75.6415 81.5545 75.3409 81.0865 75.1417 80.5738C74.9425 80.0611 74.8488 79.5141 74.8662 78.965C75.0521 77.9086 75.0025 76.8247 74.7211 75.7894C74.4396 74.754 73.9331 73.7921 73.2369 72.9713C72.5408 72.1505 71.6719 71.4906 70.6912 71.0379C69.7105 70.5852 68.6418 70.3506 67.56 70.3506C66.4782 70.3506 65.4095 70.5852 64.4288 71.0379C63.4481 71.4906 62.5793 72.1505 61.8831 72.9713C61.187 73.7921 60.6804 74.754 60.3989 75.7894C60.1175 76.8247 60.0679 77.9086 60.2538 78.965C60.2986 79.5311 60.2247 80.1003 60.0369 80.6367C59.849 81.1732 59.5513 81.6653 59.1624 82.0823C58.7734 82.4992 58.3017 82.8318 57.7768 83.0594C57.2519 83.2869 56.6852 83.4043 56.1124 83.4043C55.5395 83.4043 54.9728 83.2869 54.4479 83.0594C53.9231 82.8318 53.4513 82.4992 53.0624 82.0823C52.6735 81.6653 52.3757 81.1732 52.1879 80.6367C52.0001 80.1003 51.9262 79.5311 51.9709 78.965C51.9709 74.8637 53.6146 70.9304 56.5404 68.0303C59.4661 65.1302 63.4343 63.501 67.5719 63.501C71.7095 63.501 75.6777 65.1302 78.6035 68.0303C81.5292 70.9304 83.1729 74.8637 83.1729 78.965C83.1904 79.5185 83.0951 80.0698 82.8927 80.5859C82.6903 81.1021 82.3849 81.5724 81.9949 81.9689C81.6048 82.3653 81.1381 82.6797 80.6227 82.8933C80.1072 83.1068 79.5536 83.2151 78.995 83.2116H78.9918Z" fill="white"/>
<path d="M78.9932 85.6638C77.9135 85.6567 76.879 85.2333 76.1089 84.4831C75.3388 83.733 74.8936 82.7151 74.8676 81.6452V78.9714C74.7855 76.8882 75.1286 74.8101 75.8762 72.8615C76.6239 70.9129 77.7607 69.134 79.2186 67.6314C80.6765 66.1288 82.4254 64.9334 84.3606 64.1168C86.2957 63.3003 88.3773 62.8794 90.4805 62.8794C92.5837 62.8794 94.6652 63.3003 96.6004 64.1168C98.5355 64.9334 100.284 66.1288 101.742 67.6314C103.2 69.134 104.337 70.9129 105.085 72.8615C105.832 74.8101 106.175 76.8882 106.093 78.9714C106.072 80.0493 105.625 81.076 104.849 81.8308C104.072 82.5857 103.028 83.0086 101.94 83.0086C100.852 83.0086 99.808 82.5857 99.0314 81.8308C98.2549 81.076 97.8079 80.0493 97.7867 78.9714C97.9725 77.915 97.923 76.8311 97.6416 75.7957C97.3601 74.7603 96.8535 73.7985 96.1574 72.9777C95.4612 72.1569 94.5923 71.497 93.6117 71.0443C92.631 70.5916 91.5623 70.357 90.4805 70.357C89.3987 70.357 88.3299 70.5916 87.3493 71.0443C86.3686 71.497 85.4997 72.1569 84.8036 72.9777C84.1074 73.7985 83.6009 74.7603 83.3194 75.7957C83.0379 76.8311 82.9884 77.915 83.1743 78.9714V81.6452C83.1481 82.7246 82.6952 83.7507 81.9131 84.5023C81.1311 85.254 80.0825 85.6711 78.9932 85.6638Z" fill="white"/>
<path d="M56.0744 85.6636C54.9776 85.6561 53.9283 85.219 53.1554 84.4476C52.3826 83.6762 51.9488 82.6331 51.9489 81.546V78.9728C52.1347 77.9164 52.0852 76.8326 51.8037 75.7972C51.5223 74.7618 51.0157 73.8 50.3195 72.9792C49.6234 72.1584 48.7545 71.4984 47.7738 71.0457C46.7932 70.593 45.7245 70.3584 44.6426 70.3584C43.5608 70.3584 42.4921 70.593 41.5114 71.0457C40.5308 71.4984 39.6619 72.1584 38.9657 72.9792C38.2696 73.8 37.763 74.7618 37.4816 75.7972C37.2001 76.8326 37.1506 77.9164 37.3364 78.9728C37.3364 80.0651 36.8987 81.1126 36.1195 81.885C35.3403 82.6574 34.2835 83.0913 33.1815 83.0913C32.0796 83.0913 31.0228 82.6574 30.2436 81.885C29.4644 81.1126 29.0266 80.0651 29.0266 78.9728C29.0266 74.8715 30.6703 70.9382 33.596 68.0381C36.5218 65.138 40.4899 63.5088 44.6276 63.5088C48.7652 63.5088 52.7334 65.138 55.6591 68.0381C58.5849 70.9382 60.2285 74.8715 60.2285 78.9728V81.6466C60.2024 82.7214 59.7533 83.7435 58.977 84.4944C58.2008 85.2453 57.159 85.6655 56.0744 85.6652V85.6636Z" fill="white"/>
<path d="M33.179 78.0648C19.6059 78.0648 0 64.2192 0 39.1971C0 34.2898 1.96665 29.5836 5.46731 26.1137C8.96797 22.6437 13.7159 20.6943 18.6666 20.6943C23.6172 20.6943 28.3652 22.6437 31.8658 26.1137C35.3665 29.5836 37.3331 34.2898 37.3331 39.1971C37.3439 39.7445 37.2445 40.2885 37.0406 40.7974C36.8367 41.3062 36.5325 41.7697 36.1458 42.1606C35.759 42.5515 35.2975 42.862 34.7883 43.074C34.279 43.286 33.7322 43.3952 33.1798 43.3952C32.6274 43.3952 32.0806 43.286 31.5714 43.074C31.0621 42.862 30.6006 42.5515 30.2138 42.1606C29.8271 41.7697 29.5229 41.3062 29.319 40.7974C29.1151 40.2885 29.0157 39.7445 29.0265 39.1971C28.9928 36.4958 27.8865 33.9165 25.9475 32.0181C24.0084 30.1197 21.3928 29.0552 18.6674 29.0552C15.9419 29.0552 13.3263 30.1197 11.3873 32.0181C9.44822 33.9165 8.34197 36.4958 8.30824 39.1971C8.30824 60.5671 24.774 69.831 33.1806 69.831C34.2681 69.8521 35.3038 70.2951 36.0654 71.0649C36.8269 71.8346 37.2535 72.8698 37.2535 73.9479C37.2535 75.026 36.8269 76.0612 36.0654 76.8309C35.3038 77.6007 34.2681 78.0437 33.1806 78.0648H33.179Z" fill="white"/>
<path d="M67.4466 105C53.1309 105 28.9266 102.034 28.9266 90.9075C28.9158 90.3601 29.0152 89.8161 29.2191 89.3072C29.423 88.7984 29.7272 88.3349 30.1139 87.944C30.5007 87.5531 30.9622 87.2426 31.4715 87.0306C31.9807 86.8186 32.5275 86.7094 33.0799 86.7094C33.6323 86.7094 34.1791 86.8186 34.6883 87.0306C35.1976 87.2426 35.6591 87.5531 36.0459 87.944C36.4326 88.3349 36.7368 88.7984 36.9407 89.3072C37.1446 89.8161 37.244 90.3601 37.2332 90.9075C38.1488 92.3781 48.285 96.7647 67.445 96.7647C86.6051 96.7647 96.819 92.3781 97.8313 90.5646C97.8232 90.0221 97.9288 89.4837 98.1414 88.9837C98.354 88.4836 98.6691 88.0328 99.0665 87.6596C99.464 87.2865 99.9353 86.9992 100.451 86.8159C100.966 86.6326 101.514 86.5573 102.06 86.5948C103.179 86.6402 104.235 87.116 105.006 87.9213C105.776 88.7266 106.199 89.7979 106.186 90.9075C106.065 102.034 81.8353 105 67.4466 105Z" fill="white"/>
<path d="M33.1299 18.4408C32.0149 18.3903 30.9634 17.9122 30.1974 17.1075C29.4315 16.3027 29.0111 15.2344 29.025 14.1281C29.025 2.99409 53.2293 0.00571872 67.545 0.00571872C75.6134 -0.0812611 83.6615 0.824263 91.505 2.70154C92.033 2.83848 92.5286 3.07717 92.9636 3.40398C93.3986 3.73079 93.7643 4.13932 94.04 4.60624C94.3157 5.07317 94.4959 5.58934 94.5703 6.12529C94.6447 6.66125 94.6119 7.20648 94.4738 7.72987C94.3356 8.25326 94.0948 8.74455 93.7651 9.1757C93.4354 9.60684 93.0233 9.96939 92.5522 10.2427C92.0812 10.5159 91.5604 10.6945 91.0197 10.7683C90.479 10.8421 89.929 10.8096 89.4009 10.6726C82.2459 8.96271 74.9046 8.13907 67.545 8.22059C48.3834 8.22059 38.2472 12.6324 37.2587 14.4757C37.2622 15.0082 37.157 15.5359 36.9494 16.027C36.7418 16.5181 36.4361 16.9625 36.0506 17.3334C35.6652 17.7043 35.208 17.994 34.7066 18.1852C34.2052 18.3763 33.6699 18.4649 33.1331 18.4455L33.1299 18.4408Z" fill="white"/>
<path d="M119.81 25.1707H118.879C118.859 25.1754 118.838 25.1747 118.819 25.1686C118.8 25.1625 118.783 25.1513 118.769 25.1361C118.754 25.12 118.743 25.1003 118.738 25.0788C118.732 25.0572 118.733 25.0347 118.739 25.0135L119.391 17.4639C119.387 17.4431 119.387 17.4216 119.393 17.4012C119.398 17.3807 119.409 17.3617 119.423 17.3459C119.436 17.3298 119.453 17.3176 119.472 17.3106C119.491 17.3037 119.512 17.3023 119.532 17.3066H120.465C120.722 17.3066 120.816 17.3066 120.932 17.7108L122.868 23.1261L124.781 17.6872C124.781 17.3852 124.967 17.3098 125.246 17.3098H126.181L126.316 17.4639L126.95 25.0135C126.95 25.0135 126.95 25.1707 126.811 25.1707H125.878L125.738 25.0135L125.316 19.6265L123.428 24.6627C123.421 24.7065 123.398 24.7463 123.364 24.7751C123.33 24.8039 123.287 24.8198 123.242 24.82H122.471C122.426 24.8198 122.383 24.8039 122.349 24.7751C122.315 24.7463 122.293 24.7065 122.285 24.6627L120.394 19.6297L119.951 25.0135C119.956 25.034 119.955 25.0552 119.95 25.0754C119.944 25.0957 119.934 25.1143 119.92 25.1298C119.91 25.142 119.898 25.1519 119.884 25.159C119.87 25.1661 119.854 25.1701 119.839 25.1707H119.81ZM115.962 25.1424H115.029C115.01 25.147 114.99 25.1463 114.971 25.1405C114.952 25.1347 114.935 25.124 114.921 25.1094C114.907 25.0936 114.897 25.0747 114.891 25.0542C114.886 25.0337 114.885 25.0122 114.89 24.9914V18.5177H112.813C112.793 18.5224 112.773 18.522 112.754 18.5165C112.735 18.511 112.718 18.5005 112.705 18.4862C112.69 18.4706 112.679 18.4518 112.673 18.4313C112.667 18.4109 112.666 18.3893 112.67 18.3683V17.5362C112.666 17.5152 112.667 17.4936 112.673 17.4732C112.679 17.4527 112.69 17.4339 112.705 17.4183C112.718 17.4037 112.735 17.393 112.754 17.3872C112.773 17.3813 112.793 17.3807 112.813 17.3852L118.179 17.3066C118.198 17.3021 118.219 17.3029 118.238 17.309C118.257 17.3151 118.274 17.3262 118.287 17.3412C118.302 17.3575 118.313 17.3773 118.318 17.3986C118.324 17.42 118.324 17.4424 118.319 17.4639V18.2912C118.323 18.3116 118.322 18.3327 118.317 18.3529C118.312 18.3731 118.302 18.3918 118.288 18.4076C118.275 18.4226 118.258 18.4337 118.239 18.4398C118.22 18.4459 118.2 18.4467 118.181 18.4422H116.103V24.9914C116.108 25.0122 116.107 25.0337 116.102 25.0542C116.096 25.0747 116.086 25.0936 116.072 25.1094C116.061 25.1207 116.048 25.1297 116.034 25.1359C116.02 25.1421 116.005 25.1454 115.989 25.1456L115.962 25.1424Z" fill="white"/>
</svg>
