<svg width="406" height="105" viewBox="0 0 406 105" fill="none" xmlns="http://www.w3.org/2000/svg">
<path d="M217.151 103.873H216.924C215.991 103.873 215.067 103.683 214.207 103.317C213.348 102.951 212.571 102.414 211.922 101.74C211.273 101.066 210.766 100.268 210.431 99.3934C210.096 98.5186 209.939 97.5851 209.97 96.6484C209.929 95.6968 210.089 94.7473 210.44 93.8623C210.79 92.9773 211.324 92.1771 212.006 91.5143C213.323 90.2199 215.093 89.4965 216.936 89.4999H217.148H217.434C218.319 89.5024 219.195 89.6821 220.01 90.0284C220.825 90.3747 221.564 90.8806 222.182 91.5167C222.832 92.1968 223.338 93.0026 223.669 93.8853C224 94.7679 224.148 95.7088 224.105 96.6508C224.171 98.5625 223.48 100.423 222.182 101.823C221.572 102.469 220.838 102.985 220.024 103.337C219.21 103.69 218.333 103.872 217.446 103.873H217.151ZM199.055 103.873H198.829C197.915 103.875 197.009 103.695 196.165 103.343C195.321 102.991 194.554 102.475 193.91 101.823C193.238 101.145 192.711 100.336 192.362 99.4464C192.012 98.5565 191.847 97.6044 191.877 96.6484C191.836 95.6971 191.996 94.7477 192.346 93.8628C192.696 92.978 193.229 92.1776 193.91 91.5143C195.215 90.2188 196.977 89.4945 198.812 89.4999H199.051C199.136 89.4999 199.22 89.4999 199.303 89.4999C200.193 89.5015 201.074 89.6804 201.895 90.0262C202.715 90.372 203.459 90.8778 204.084 91.5143C204.734 92.1944 205.241 93.0003 205.571 93.8829C205.902 94.7655 206.05 95.7064 206.007 96.6484C206.071 98.5598 205.38 100.419 204.084 101.821C203.468 102.467 202.728 102.983 201.909 103.335C201.09 103.688 200.209 103.871 199.317 103.873C199.234 103.873 199.141 103.873 199.055 103.873ZM247.753 103.498C247.677 103.498 247.598 103.498 247.515 103.498C246.602 103.5 245.697 103.32 244.854 102.968C244.011 102.616 243.246 102.099 242.603 101.448C241.931 100.77 241.404 99.9609 241.054 99.071C240.704 98.1811 240.54 97.2289 240.57 96.2728H240.532C240.488 95.3098 240.646 94.3482 240.997 93.4508C241.347 92.5533 241.882 91.7402 242.567 91.0645C243.868 89.8356 245.586 89.151 247.372 89.1506C247.496 89.1506 247.622 89.1506 247.746 89.1506H248.073C249.852 89.1553 251.558 89.8665 252.817 91.1291C254.099 92.5218 254.778 94.3684 254.705 96.2632C254.761 98.1675 254.085 100.02 252.817 101.438C252.199 102.085 251.458 102.6 250.637 102.953C249.816 103.306 248.932 103.489 248.039 103.491L247.753 103.498ZM185.085 79.7101C182.526 79.6178 179.974 79.3702 177.445 78.9685C174.518 78.5295 171.689 77.5858 169.082 76.179C166.698 74.821 164.729 72.8358 163.386 70.4372C161.891 67.6254 161.163 64.4668 161.275 61.2814V8.18919C161.321 6.4681 162.039 4.83414 163.274 3.64007C164.51 2.44601 166.164 1.78764 167.879 1.80711C169.594 1.82659 171.232 2.52234 172.44 3.74416C173.649 4.96598 174.33 6.61583 174.337 8.33752V57.9058C174.294 59.763 174.618 61.6104 175.29 63.3413C175.828 64.7173 176.722 65.9246 177.878 66.839C178.979 67.6638 180.24 68.2474 181.579 68.552C182.953 68.8506 184.354 68.9998 185.76 68.997C186.01 68.9635 186.264 68.97 186.513 69.0161H186.732C189.296 69.0162 191.847 68.6464 194.306 67.918C196.2 67.3539 197.887 66.2402 199.153 64.7169C200.326 63.2013 201.091 61.4074 201.372 59.5087C201.776 57.0491 201.962 54.5584 201.927 52.0659V33.4578C201.921 32.5953 202.086 31.7402 202.41 30.9417C202.735 30.1431 203.214 29.4169 203.819 28.8048C204.425 28.1927 205.144 27.7068 205.937 27.375C206.731 27.0432 207.581 26.8721 208.44 26.8715C210.178 26.8747 211.844 27.57 213.072 28.8048C214.3 30.0396 214.989 31.7131 214.989 33.4578V57.5732C214.9 59.1588 215.167 60.7443 215.769 62.2129C216.371 63.6815 217.294 64.9958 218.469 66.0591C220.908 67.972 223.892 69.051 226.986 69.1381C227.294 69.0359 227.615 68.9834 227.939 68.9826C228.048 68.9827 228.156 68.9883 228.264 68.9993C228.766 69.0507 229.27 69.0763 229.774 69.0759C233.019 69.069 236.175 68.01 238.771 66.0567C239.908 64.7065 240.766 63.1419 241.294 61.4547C241.821 59.7675 242.008 57.9916 241.843 56.2311V33.642C241.826 32.7705 241.983 31.9043 242.304 31.0943C242.625 30.2843 243.103 29.5466 243.711 28.9243C244.319 28.3021 245.045 27.8078 245.845 27.4704C246.646 27.133 247.506 26.9592 248.374 26.9592C249.242 26.9592 250.102 27.133 250.903 27.4704C251.703 27.8078 252.429 28.3021 253.037 28.9243C253.645 29.5466 254.123 30.2843 254.444 31.0943C254.765 31.9043 254.922 32.7705 254.905 33.642V58.5397C255.147 61.471 254.757 64.4202 253.761 67.1863C252.765 69.9525 251.186 72.4705 249.133 74.5689C245.506 77.9182 239.3 79.6647 230.675 79.7412C230.524 79.8182 230.356 79.8576 230.187 79.8561C228.428 79.842 226.672 79.7053 224.932 79.447C223.11 79.1529 221.323 78.6661 219.603 77.9948C217.935 77.3236 216.353 76.4537 214.892 75.4038C213.432 74.4116 212.176 73.1479 211.19 71.6812C209.02 74.71 205.924 76.9445 202.373 78.045C197.954 79.3632 193.369 80.0328 188.76 80.0331C188.364 80.0331 187.966 80.0331 187.568 80.0188C187.409 80.0188 187.249 80.0355 187.092 80.0355C186.41 80.0324 185.733 79.9226 185.085 79.7101ZM116.402 79.7508H100.256C99.8294 79.8034 99.398 79.8034 98.9714 79.7508H82.4941C82.0746 79.8013 81.6505 79.8013 81.231 79.7508H65.1756L61.882 79.8991C61.6437 79.8991 61.4054 79.8991 61.167 79.8991C57.1401 79.8998 53.1279 79.4114 49.2178 78.4446C47.5376 78.0534 45.955 77.3209 44.5676 76.2922C43.1802 75.2636 42.0173 73.9606 41.1507 72.4635C39.0835 73.4359 36.929 74.2089 34.7162 74.7722C31.7919 75.4911 28.7923 75.855 25.7816 75.856H25.2073H25.0834C22.0283 75.8565 18.9855 75.469 16.0273 74.7028C13.1217 74.0398 10.3887 72.7671 8.00789 70.9683C5.56391 69.0776 3.58778 66.646 2.23345 63.8628C0.65289 60.4527 -0.107903 56.7176 0.0123246 52.9583C-0.0606866 49.2252 0.619454 45.5159 2.01181 42.0537C3.25735 38.9421 5.2238 36.1733 7.74812 33.9769C10.2935 31.728 13.2815 30.0415 16.5182 29.027C19.9151 27.9378 23.4597 27.3842 27.0256 27.3858C27.2234 27.3858 27.4213 27.3858 27.6167 27.3858H51.6343V60.0661C51.4449 61.4146 51.5701 62.789 52.0002 64.0806C52.4304 65.3722 53.1536 66.5458 54.1128 67.5089C56.2532 68.7625 58.6867 69.423 61.1647 69.4228H61.4935C62.0576 69.1245 62.6889 68.9778 63.3262 68.997H80.9403C81.0546 68.9904 81.1692 68.9904 81.2834 68.997H98.7021C98.7943 68.997 98.8856 68.997 98.9762 68.997H115.897C116.074 68.9815 116.251 68.9815 116.428 68.997C116.702 68.981 116.976 69.0028 117.243 69.0615C120.757 69.2461 124.221 68.1671 127.014 66.0184C129.256 63.2784 130.332 59.7621 130.01 56.2311V8.18919C130.056 6.4681 130.774 4.83414 132.009 3.64007C133.245 2.44601 134.899 1.78764 136.614 1.80711C138.329 1.82659 139.967 2.52234 141.176 3.74416C142.384 4.96598 143.065 6.61583 143.072 8.33752V58.5397C143.318 61.5084 142.908 64.495 141.871 67.2862C140.834 70.0773 139.196 72.6041 137.074 74.6861C133.075 78.1615 126.797 79.8999 118.239 79.9015C118.128 79.9015 118.017 79.9015 117.906 79.9015C117.401 79.903 116.897 79.8525 116.402 79.7508ZM22.2545 38.4435C20.492 38.8538 18.8385 39.6413 17.4071 40.7522C15.9935 41.8961 14.8868 43.3764 14.1875 45.0585C13.2972 47.2663 12.8806 49.6377 12.9649 52.0181C12.8683 54.2214 13.3273 56.4136 14.2995 58.3914C15.0823 59.88 16.2123 61.1564 17.593 62.1116C18.9033 63.0385 20.3894 63.6851 21.959 64.0112C23.4215 64.3054 24.9075 64.4656 26.3989 64.4897C26.723 64.4897 27.0495 64.504 27.3736 64.504C29.3059 64.5028 31.2341 64.3234 33.1337 63.9681C34.9014 63.476 36.6224 62.8284 38.2766 62.0327V37.7737H28.0981C26.1312 37.774 24.1708 37.9988 22.2545 38.4435ZM13.5202 13.2635C12.8412 12.5623 12.3159 11.7263 11.9781 10.8091C11.6403 9.89191 11.4975 8.91391 11.5588 7.93799L11.5231 8.1222C11.493 7.17615 11.6581 6.23409 12.0079 5.35511C12.3578 4.47614 12.8848 3.67924 13.5559 3.01442C14.8843 1.71964 16.6638 0.996832 18.5153 1.00001H18.7393C18.8251 1.00001 18.9109 1.00001 18.9991 1.00001C19.8867 1.00356 20.7648 1.18337 21.5828 1.5291C22.4008 1.87482 23.1426 2.37962 23.7655 3.01442C24.4132 3.69195 24.921 4.49144 25.2597 5.36682C25.5983 6.24221 25.7612 7.17621 25.7387 8.11502C25.7946 10.0365 25.105 11.9046 23.8155 13.3257C23.1874 13.9723 22.437 14.4865 21.6083 14.8382C20.7796 15.1898 19.8893 15.3719 18.9896 15.3736H18.7751H18.4963C17.5689 15.3707 16.6513 15.1827 15.797 14.8204C14.9427 14.4581 14.1688 13.9289 13.5202 13.2635ZM36.8324 15.3688H36.5941C35.6481 15.3667 34.7124 15.1712 33.8442 14.7942C32.9759 14.4172 32.1933 13.8666 31.5439 13.176C30.8945 12.4854 30.3921 11.6692 30.0672 10.7773C29.7424 9.88542 29.6019 8.93643 29.6543 7.98823C29.6352 7.06268 29.8068 6.14316 30.1583 5.28729C30.5097 4.43141 31.0334 3.65762 31.6967 3.01442C32.9994 1.72192 34.7577 0.997978 36.5893 1.00001H36.8277H37.1136C37.9987 1.00145 38.8745 1.18038 39.6898 1.5263C40.505 1.87222 41.2432 2.37816 41.8609 3.01442C42.5088 3.68908 43.0134 4.48889 43.344 5.36528C43.6746 6.24167 43.8244 7.17637 43.7841 8.11263C43.84 10.0341 43.1504 11.9022 41.8609 13.3233C41.2399 13.9702 40.4955 14.4851 39.6722 14.8373C38.8489 15.1896 37.9633 15.3719 37.0684 15.3736L36.8324 15.3688Z" fill="white"/>
<path d="M346.447 28.2189C332.131 28.2189 307.927 25.2526 307.927 14.1264C307.948 13.0485 308.395 12.0218 309.171 11.2669C309.948 10.5121 310.992 10.0892 312.08 10.0892C313.168 10.0892 314.212 10.5121 314.988 11.2669C315.765 12.0218 316.212 13.0485 316.233 14.1264C317.149 15.5718 327.285 19.9836 346.445 19.9836C365.605 19.9836 375.719 15.5734 376.733 13.7285C376.731 13.1816 376.845 12.6404 377.067 12.1398C377.289 11.6391 377.614 11.19 378.022 10.8213C378.429 10.4527 378.91 10.1726 379.433 9.99903C379.957 9.82549 380.511 9.76237 381.06 9.8137C382.179 9.85905 383.235 10.3349 384.006 11.1402C384.776 11.9455 385.199 13.0167 385.186 14.1264C385.065 25.2526 360.835 28.2189 346.447 28.2189Z" fill="white"/>
<path d="M380.912 83.2129C379.811 83.2129 378.754 82.779 377.975 82.0068C377.196 81.2346 376.758 80.1873 376.758 79.0952V14.128C376.78 13.0501 377.226 12.0234 378.003 11.2685C378.78 10.5137 379.824 10.0908 380.912 10.0908C381.999 10.0908 383.044 10.5137 383.82 11.2685C384.597 12.0234 385.044 13.0501 385.065 14.128V78.9725C385.082 79.524 384.988 80.0734 384.787 80.5879C384.586 81.1025 384.283 81.5718 383.895 81.9679C383.508 82.364 383.044 82.6789 382.531 82.8938C382.019 83.1088 381.467 83.2194 380.911 83.2192L380.912 83.2129Z" fill="white"/>
<path d="M312.181 95.0231C311.079 95.0231 310.023 94.5895 309.244 93.8176C308.465 93.0458 308.027 91.9988 308.027 90.907V39.0997C308.048 38.0218 308.495 36.9951 309.271 36.2402C310.048 35.4854 311.092 35.0625 312.18 35.0625C313.268 35.0625 314.312 35.4854 315.089 36.2402C315.865 36.9951 316.312 38.0218 316.333 39.0997V90.8079C316.346 91.3568 316.249 91.9028 316.046 92.4137C315.843 92.9245 315.539 93.3901 315.152 93.7828C314.765 94.1756 314.302 94.4876 313.792 94.7006C313.281 94.9136 312.733 95.0233 312.179 95.0231H312.181Z" fill="white"/>
<path d="M357.992 83.2116C357.438 83.2081 356.89 83.0947 356.38 82.8781C355.871 82.6615 355.41 82.346 355.026 81.9502C354.642 81.5545 354.341 81.0865 354.142 80.5738C353.943 80.0611 353.849 79.5141 353.866 78.965C354.052 77.9086 354.003 76.8247 353.721 75.7894C353.44 74.754 352.933 73.7921 352.237 72.9713C351.541 72.1505 350.672 71.4906 349.691 71.0379C348.711 70.5852 347.642 70.3506 346.56 70.3506C345.478 70.3506 344.409 70.5852 343.429 71.0379C342.448 71.4906 341.579 72.1505 340.883 72.9713C340.187 73.7921 339.68 74.754 339.399 75.7894C339.117 76.8247 339.068 77.9086 339.254 78.965C339.299 79.5311 339.225 80.1003 339.037 80.6367C338.849 81.1732 338.551 81.6653 338.162 82.0823C337.773 82.4992 337.302 82.8318 336.777 83.0594C336.252 83.2869 335.685 83.4043 335.112 83.4043C334.54 83.4043 333.973 83.2869 333.448 83.0594C332.923 82.8318 332.451 82.4992 332.062 82.0823C331.673 81.6653 331.376 81.1732 331.188 80.6367C331 80.1003 330.926 79.5311 330.971 78.965C330.971 74.8637 332.615 70.9304 335.54 68.0303C338.466 65.1302 342.434 63.501 346.572 63.501C350.71 63.501 354.678 65.1302 357.603 68.0303C360.529 70.9304 362.173 74.8637 362.173 78.965C362.19 79.5185 362.095 80.0698 361.893 80.5859C361.69 81.1021 361.385 81.5724 360.995 81.9689C360.605 82.3653 360.138 82.6797 359.623 82.8933C359.107 83.1068 358.554 83.2151 357.995 83.2116H357.992Z" fill="white"/>
<path d="M357.993 85.6638C356.913 85.6567 355.879 85.2333 355.109 84.4831C354.339 83.733 353.894 82.7151 353.868 81.6452V78.9714C353.786 76.8882 354.129 74.8101 354.876 72.8615C355.624 70.9129 356.761 69.134 358.219 67.6314C359.676 66.1288 361.425 64.9334 363.361 64.1168C365.296 63.3003 367.377 62.8794 369.48 62.8794C371.584 62.8794 373.665 63.3003 375.6 64.1168C377.536 64.9334 379.284 66.1288 380.742 67.6314C382.2 69.134 383.337 70.9129 384.085 72.8615C384.832 74.8101 385.175 76.8882 385.093 78.9714C385.072 80.0493 384.625 81.076 383.849 81.8308C383.072 82.5857 382.028 83.0086 380.94 83.0086C379.852 83.0086 378.808 82.5857 378.031 81.8308C377.255 81.076 376.808 80.0493 376.787 78.9714C376.973 77.915 376.923 76.8311 376.642 75.7957C376.36 74.7603 375.854 73.7985 375.157 72.9777C374.461 72.1569 373.592 71.497 372.612 71.0443C371.631 70.5916 370.562 70.357 369.48 70.357C368.399 70.357 367.33 70.5916 366.349 71.0443C365.369 71.497 364.5 72.1569 363.804 72.9777C363.107 73.7985 362.601 74.7603 362.319 75.7957C362.038 76.8311 361.988 77.915 362.174 78.9714V81.6452C362.148 82.7246 361.695 83.7507 360.913 84.5023C360.131 85.254 359.082 85.6711 357.993 85.6638Z" fill="white"/>
<path d="M335.074 85.6636C333.978 85.6561 332.928 85.219 332.155 84.4476C331.383 83.6762 330.949 82.6331 330.949 81.546V78.9728C331.135 77.9164 331.085 76.8326 330.804 75.7972C330.522 74.7618 330.016 73.8 329.32 72.9792C328.623 72.1584 327.755 71.4984 326.774 71.0457C325.793 70.593 324.724 70.3584 323.643 70.3584C322.561 70.3584 321.492 70.593 320.511 71.0457C319.531 71.4984 318.662 72.1584 317.966 72.9792C317.27 73.8 316.763 74.7618 316.482 75.7972C316.2 76.8326 316.151 77.9164 316.336 78.9728C316.336 80.0651 315.899 81.1126 315.119 81.885C314.34 82.6574 313.283 83.0913 312.182 83.0913C311.08 83.0913 310.023 82.6574 309.244 81.885C308.464 81.1126 308.027 80.0651 308.027 78.9728C308.027 74.8715 309.67 70.9382 312.596 68.0381C315.522 65.138 319.49 63.5088 323.628 63.5088C327.765 63.5088 331.733 65.138 334.659 68.0381C337.585 70.9382 339.229 74.8715 339.229 78.9728V81.6466C339.202 82.7214 338.753 83.7435 337.977 84.4944C337.201 85.2453 336.159 85.6655 335.074 85.6652V85.6636Z" fill="white"/>
<path d="M312.179 78.0648C298.606 78.0648 279 64.2192 279 39.1971C279 34.2898 280.967 29.5836 284.467 26.1137C287.968 22.6437 292.716 20.6943 297.667 20.6943C302.617 20.6943 307.365 22.6437 310.866 26.1137C314.366 29.5836 316.333 34.2898 316.333 39.1971C316.344 39.7445 316.244 40.2885 316.041 40.7974C315.837 41.3062 315.533 41.7697 315.146 42.1606C314.759 42.5515 314.298 42.862 313.788 43.074C313.279 43.286 312.732 43.3952 312.18 43.3952C311.627 43.3952 311.081 43.286 310.571 43.074C310.062 42.862 309.601 42.5515 309.214 42.1606C308.827 41.7697 308.523 41.3062 308.319 40.7974C308.115 40.2885 308.016 39.7445 308.026 39.1971C307.993 36.4958 306.887 33.9165 304.947 32.0181C303.008 30.1197 300.393 29.0552 297.667 29.0552C294.942 29.0552 292.326 30.1197 290.387 32.0181C288.448 33.9165 287.342 36.4958 287.308 39.1971C287.308 60.5671 303.774 69.831 312.181 69.831C313.268 69.8521 314.304 70.2951 315.065 71.0649C315.827 71.8346 316.254 72.8698 316.254 73.9479C316.254 75.026 315.827 76.0612 315.065 76.8309C314.304 77.6007 313.268 78.0437 312.181 78.0648H312.179Z" fill="white"/>
<path d="M346.447 105C332.131 105 307.927 102.034 307.927 90.9075C307.916 90.3601 308.015 89.8161 308.219 89.3072C308.423 88.7984 308.727 88.3349 309.114 87.944C309.501 87.5531 309.962 87.2426 310.471 87.0306C310.981 86.8186 311.528 86.7094 312.08 86.7094C312.632 86.7094 313.179 86.8186 313.688 87.0306C314.198 87.2426 314.659 87.5531 315.046 87.944C315.433 88.3349 315.737 88.7984 315.941 89.3072C316.145 89.8161 316.244 90.3601 316.233 90.9075C317.149 92.3781 327.285 96.7647 346.445 96.7647C365.605 96.7647 375.819 92.3781 376.831 90.5646C376.823 90.0221 376.929 89.4837 377.141 88.9837C377.354 88.4836 377.669 88.0328 378.067 87.6596C378.464 87.2865 378.935 86.9992 379.451 86.8159C379.966 86.6326 380.514 86.5573 381.06 86.5948C382.179 86.6402 383.235 87.116 384.006 87.9213C384.776 88.7266 385.199 89.7979 385.186 90.9075C385.065 102.034 360.835 105 346.447 105Z" fill="white"/>
<path d="M312.13 18.4408C311.015 18.3903 309.963 17.9122 309.197 17.1075C308.431 16.3027 308.011 15.2344 308.025 14.1281C308.025 2.99409 332.229 0.00571872 346.545 0.00571872C354.613 -0.0812611 362.662 0.824263 370.505 2.70154C371.033 2.83848 371.529 3.07717 371.964 3.40398C372.399 3.73079 372.764 4.13932 373.04 4.60624C373.316 5.07317 373.496 5.58934 373.57 6.12529C373.645 6.66125 373.612 7.20648 373.474 7.72987C373.336 8.25326 373.095 8.74455 372.765 9.1757C372.435 9.60684 372.023 9.96939 371.552 10.2427C371.081 10.5159 370.56 10.6945 370.02 10.7683C369.479 10.8421 368.929 10.8096 368.401 10.6726C361.246 8.96271 353.905 8.13907 346.545 8.22059C327.383 8.22059 317.247 12.6324 316.259 14.4757C316.262 15.0082 316.157 15.5359 315.949 16.027C315.742 16.5181 315.436 16.9625 315.051 17.3334C314.665 17.7043 314.208 17.994 313.707 18.1852C313.205 18.3763 312.67 18.4649 312.133 18.4455L312.13 18.4408Z" fill="white"/>
<path d="M398.81 25.1707H397.879C397.859 25.1754 397.838 25.1747 397.819 25.1686C397.8 25.1625 397.783 25.1513 397.769 25.1361C397.754 25.12 397.743 25.1003 397.738 25.0788C397.732 25.0572 397.733 25.0347 397.739 25.0135L398.391 17.4639C398.387 17.4431 398.387 17.4216 398.393 17.4012C398.398 17.3807 398.409 17.3617 398.423 17.3459C398.436 17.3298 398.453 17.3176 398.472 17.3106C398.491 17.3037 398.512 17.3023 398.532 17.3066H399.465C399.722 17.3066 399.816 17.3066 399.932 17.7108L401.868 23.1261L403.781 17.6872C403.781 17.3852 403.967 17.3098 404.246 17.3098H405.181L405.316 17.4639L405.95 25.0135C405.95 25.0135 405.95 25.1707 405.811 25.1707H404.878L404.738 25.0135L404.316 19.6265L402.428 24.6627C402.421 24.7065 402.398 24.7463 402.364 24.7751C402.33 24.8039 402.287 24.8198 402.242 24.82H401.471C401.426 24.8198 401.383 24.8039 401.349 24.7751C401.315 24.7463 401.293 24.7065 401.285 24.6627L399.394 19.6297L398.951 25.0135C398.956 25.034 398.955 25.0552 398.95 25.0754C398.944 25.0957 398.934 25.1143 398.92 25.1298C398.91 25.142 398.898 25.1519 398.884 25.159C398.87 25.1661 398.854 25.1701 398.839 25.1707H398.81ZM394.962 25.1424H394.029C394.01 25.147 393.99 25.1463 393.971 25.1405C393.952 25.1347 393.935 25.124 393.921 25.1094C393.907 25.0936 393.897 25.0747 393.891 25.0542C393.886 25.0337 393.885 25.0122 393.89 24.9914V18.5177H391.813C391.793 18.5224 391.773 18.522 391.754 18.5165C391.735 18.511 391.718 18.5005 391.705 18.4862C391.69 18.4706 391.679 18.4518 391.673 18.4313C391.667 18.4109 391.666 18.3893 391.67 18.3683V17.5362C391.666 17.5152 391.667 17.4936 391.673 17.4732C391.679 17.4527 391.69 17.4339 391.705 17.4183C391.718 17.4037 391.735 17.393 391.754 17.3872C391.773 17.3813 391.793 17.3807 391.813 17.3852L397.179 17.3066C397.198 17.3021 397.219 17.3029 397.238 17.309C397.257 17.3151 397.274 17.3262 397.287 17.3412C397.302 17.3575 397.313 17.3773 397.318 17.3986C397.324 17.42 397.324 17.4424 397.319 17.4639V18.2912C397.323 18.3116 397.322 18.3327 397.317 18.3529C397.312 18.3731 397.302 18.3918 397.288 18.4076C397.275 18.4226 397.258 18.4337 397.239 18.4398C397.22 18.4459 397.2 18.4467 397.181 18.4422H395.103V24.9914C395.108 25.0122 395.107 25.0337 395.102 25.0542C395.096 25.0747 395.086 25.0936 395.072 25.1094C395.061 25.1207 395.048 25.1297 395.034 25.1359C395.02 25.1421 395.005 25.1454 394.989 25.1456L394.962 25.1424Z" fill="white"/>
</svg>
