<svg width="30" height="30" viewBox="0 0 30 30" fill="none" xmlns="http://www.w3.org/2000/svg">
<g clip-path="url(#clip0_600_4172)">
<mask id="path-1-inside-1_600_4172" fill="white">
<path fill-rule="evenodd" clip-rule="evenodd" d="M17.9776 12.4085H21.2504C21.7531 12.456 22.2324 12.6419 22.6343 12.9452C23.0362 13.2486 23.3447 13.6573 23.5249 14.1253C24.0246 15.1974 24.2728 16.368 24.2507 17.549C24.2728 18.73 24.0246 19.9005 23.5249 20.9726C23.3447 21.4407 23.0362 21.8494 22.6343 22.1527C22.2324 22.4561 21.7531 22.642 21.2504 22.6894L17.9776 22.6901C17.5338 22.6592 17.1053 22.5193 16.7365 22.2725C16.3677 22.0256 16.0708 21.6869 15.8757 21.2902C15.5791 21.5653 15.2426 21.7946 14.8775 21.9707C13.7966 22.466 12.6168 22.7119 11.4265 22.6901C10.2359 22.7119 9.05586 22.4659 7.97478 21.9707C7.50409 21.7911 7.09328 21.4848 6.78857 21.0861C6.48385 20.6874 6.29733 20.2123 6.25 19.7142V9.97308C6.29776 9.47442 6.48502 8.99892 6.79066 8.60021C7.0963 8.2015 7.50815 7.89545 7.97977 7.71658C9.06107 7.22129 10.2414 6.97534 11.4322 6.99719C12.6225 6.97538 13.8023 7.22133 14.8832 7.71658C15.3549 7.89535 15.7669 8.20135 16.0727 8.60007C16.3784 8.99878 16.5658 9.47434 16.6136 9.97308V12.9292C16.9901 12.5985 17.4749 12.4137 17.9776 12.4085ZM19.0243 21.0632H17.9776C17.8514 21.0632 17.517 20.9479 17.1655 20.2504C16.7807 19.4033 16.5918 18.4815 16.6129 17.5525C16.5918 16.6236 16.7807 15.7017 17.1655 14.8546C17.5177 14.1579 17.8514 14.0355 17.9769 14.0355L19.0243 14.0291C19.0077 14.0602 18.9915 14.0914 18.9758 14.1225C18.4766 15.1948 18.2287 16.3653 18.2507 17.5462C18.2287 18.7271 18.4766 19.8976 18.9758 20.9698C18.9915 21.0009 19.0077 21.0321 19.0243 21.0632ZM20.4432 20.2441C20.0584 19.3969 19.8696 18.4751 19.8906 17.5462C19.8696 16.6172 20.0584 15.6954 20.4432 14.8483C20.7955 14.1515 21.1284 14.0291 21.2546 14.0291C21.3808 14.0291 21.7145 14.1515 22.066 14.8483C22.4509 15.6954 22.6397 16.6172 22.6186 17.5462C22.6397 18.4751 22.4509 19.3969 22.066 20.2441C21.7138 20.9408 21.3808 21.0632 21.2546 21.0632C21.1284 21.0632 20.7947 20.9415 20.4432 20.2441ZM8.71275 9.17234C9.56662 8.79054 10.4958 8.60322 11.4322 8.62413C12.3692 8.60146 13.2994 8.78734 14.1545 9.1681C14.8568 9.51754 14.9801 9.84788 14.9801 9.97308C14.9801 10.0983 14.8575 10.4293 14.1545 10.7781C13.3006 11.1599 12.3714 11.3472 11.435 11.3263C10.4987 11.3472 9.56947 11.1599 8.7156 10.7781C8.01328 10.4286 7.88993 10.0976 7.88993 9.97308C7.88993 9.84858 8.00971 9.51754 8.71275 9.17234ZM11.4315 21.0667C10.4951 21.0876 9.56591 20.9003 8.71203 20.5185C8.00971 20.1698 7.88993 19.8387 7.88993 19.7142V18.6758L7.98048 18.7268C9.06141 19.2225 10.2415 19.4687 11.4322 19.4469C12.6226 19.4675 13.8023 19.2201 14.8824 18.7232L14.9766 18.6751V19.7135C14.9766 19.8387 14.8539 20.1698 14.1509 20.5185C13.297 20.9003 12.3678 21.0876 11.4315 21.0667ZM11.4315 17.8199C10.4951 17.8408 9.56591 17.6535 8.71203 17.2717C8.00971 16.923 7.88993 16.5919 7.88993 16.4674V15.429L7.97977 15.4764C9.0607 15.9721 10.2408 16.2183 11.4315 16.1965C12.6219 16.2184 13.8018 15.9722 14.8824 15.4764L14.9766 15.4283V16.4667C14.9766 16.5919 14.8539 16.923 14.1509 17.2717C13.297 17.6535 12.3678 17.8408 11.4315 17.8199ZM11.4315 14.5731C10.4951 14.594 9.56591 14.4067 8.71203 14.0249C8.00971 13.6761 7.88993 13.3451 7.88993 13.222V12.1822L7.97977 12.2317C9.06097 12.7264 10.241 12.9719 11.4315 12.9497C12.6218 12.9715 13.8016 12.7255 14.8824 12.2303L14.9766 12.1822V13.2199C14.9766 13.3451 14.8539 13.6761 14.1509 14.0249C13.297 14.4067 12.3678 14.594 11.4315 14.5731Z"/>
</mask>
<path fill-rule="evenodd" clip-rule="evenodd" d="M17.9776 12.4085H21.2504C21.7531 12.456 22.2324 12.6419 22.6343 12.9452C23.0362 13.2486 23.3447 13.6573 23.5249 14.1253C24.0246 15.1974 24.2728 16.368 24.2507 17.549C24.2728 18.73 24.0246 19.9005 23.5249 20.9726C23.3447 21.4407 23.0362 21.8494 22.6343 22.1527C22.2324 22.4561 21.7531 22.642 21.2504 22.6894L17.9776 22.6901C17.5338 22.6592 17.1053 22.5193 16.7365 22.2725C16.3677 22.0256 16.0708 21.6869 15.8757 21.2902C15.5791 21.5653 15.2426 21.7946 14.8775 21.9707C13.7966 22.466 12.6168 22.7119 11.4265 22.6901C10.2359 22.7119 9.05586 22.4659 7.97478 21.9707C7.50409 21.7911 7.09328 21.4848 6.78857 21.0861C6.48385 20.6874 6.29733 20.2123 6.25 19.7142V9.97308C6.29776 9.47442 6.48502 8.99892 6.79066 8.60021C7.0963 8.2015 7.50815 7.89545 7.97977 7.71658C9.06107 7.22129 10.2414 6.97534 11.4322 6.99719C12.6225 6.97538 13.8023 7.22133 14.8832 7.71658C15.3549 7.89535 15.7669 8.20135 16.0727 8.60007C16.3784 8.99878 16.5658 9.47434 16.6136 9.97308V12.9292C16.9901 12.5985 17.4749 12.4137 17.9776 12.4085ZM19.0243 21.0632H17.9776C17.8514 21.0632 17.517 20.9479 17.1655 20.2504C16.7807 19.4033 16.5918 18.4815 16.6129 17.5525C16.5918 16.6236 16.7807 15.7017 17.1655 14.8546C17.5177 14.1579 17.8514 14.0355 17.9769 14.0355L19.0243 14.0291C19.0077 14.0602 18.9915 14.0914 18.9758 14.1225C18.4766 15.1948 18.2287 16.3653 18.2507 17.5462C18.2287 18.7271 18.4766 19.8976 18.9758 20.9698C18.9915 21.0009 19.0077 21.0321 19.0243 21.0632ZM20.4432 20.2441C20.0584 19.3969 19.8696 18.4751 19.8906 17.5462C19.8696 16.6172 20.0584 15.6954 20.4432 14.8483C20.7955 14.1515 21.1284 14.0291 21.2546 14.0291C21.3808 14.0291 21.7145 14.1515 22.066 14.8483C22.4509 15.6954 22.6397 16.6172 22.6186 17.5462C22.6397 18.4751 22.4509 19.3969 22.066 20.2441C21.7138 20.9408 21.3808 21.0632 21.2546 21.0632C21.1284 21.0632 20.7947 20.9415 20.4432 20.2441ZM8.71275 9.17234C9.56662 8.79054 10.4958 8.60322 11.4322 8.62413C12.3692 8.60146 13.2994 8.78734 14.1545 9.1681C14.8568 9.51754 14.9801 9.84788 14.9801 9.97308C14.9801 10.0983 14.8575 10.4293 14.1545 10.7781C13.3006 11.1599 12.3714 11.3472 11.435 11.3263C10.4987 11.3472 9.56947 11.1599 8.7156 10.7781C8.01328 10.4286 7.88993 10.0976 7.88993 9.97308C7.88993 9.84858 8.00971 9.51754 8.71275 9.17234ZM11.4315 21.0667C10.4951 21.0876 9.56591 20.9003 8.71203 20.5185C8.00971 20.1698 7.88993 19.8387 7.88993 19.7142V18.6758L7.98048 18.7268C9.06141 19.2225 10.2415 19.4687 11.4322 19.4469C12.6226 19.4675 13.8023 19.2201 14.8824 18.7232L14.9766 18.6751V19.7135C14.9766 19.8387 14.8539 20.1698 14.1509 20.5185C13.297 20.9003 12.3678 21.0876 11.4315 21.0667ZM11.4315 17.8199C10.4951 17.8408 9.56591 17.6535 8.71203 17.2717C8.00971 16.923 7.88993 16.5919 7.88993 16.4674V15.429L7.97977 15.4764C9.0607 15.9721 10.2408 16.2183 11.4315 16.1965C12.6219 16.2184 13.8018 15.9722 14.8824 15.4764L14.9766 15.4283V16.4667C14.9766 16.5919 14.8539 16.923 14.1509 17.2717C13.297 17.6535 12.3678 17.8408 11.4315 17.8199ZM11.4315 14.5731C10.4951 14.594 9.56591 14.4067 8.71203 14.0249C8.00971 13.6761 7.88993 13.3451 7.88993 13.222V12.1822L7.97977 12.2317C9.06097 12.7264 10.241 12.9719 11.4315 12.9497C12.6218 12.9715 13.8016 12.7255 14.8824 12.2303L14.9766 12.1822V13.2199C14.9766 13.3451 14.8539 13.6761 14.1509 14.0249C13.297 14.4067 12.3678 14.594 11.4315 14.5731Z" fill="#5B63AD"/>
<path d="M17.9776 22.6901L17.9637 22.8901L17.9777 22.8901L17.9776 22.6901ZM19.0243 21.0632V21.2632H19.358L19.2007 20.9689L19.0243 21.0632ZM18.9758 20.9698L18.7944 21.0543L18.7972 21.0598L18.9758 20.9698ZM18.2507 17.5462L18.4508 17.5499L18.4507 17.5424L18.2507 17.5462ZM19.8906 17.5462L20.0908 17.5507L20.0906 17.5416L19.8906 17.5462ZM20.4432 20.2441L20.261 20.3268L20.2646 20.3341L20.4432 20.2441ZM22.066 20.2441L22.2447 20.3344L22.2481 20.3268L22.066 20.2441ZM22.6186 17.5462L22.4185 17.5416L22.4187 17.5507L22.6186 17.5462ZM22.066 14.8483L22.2483 14.7655L22.2446 14.7582L22.066 14.8483ZM20.4432 14.8483L20.2646 14.7579L20.2611 14.7655L20.4432 14.8483ZM18.9758 14.1225L18.7972 14.0324L18.7945 14.0381L18.9758 14.1225ZM19.0243 14.0291L19.2007 14.1234L19.3591 13.8271L19.0231 13.8291L19.0243 14.0291ZM17.9776 12.4085V12.2085L17.9756 12.2086L17.9776 12.4085ZM21.2504 12.4085L21.2691 12.2094L21.2598 12.2085H21.2504V12.4085ZM23.5249 14.1253L23.3378 14.1974L23.3436 14.2098L23.5249 14.1253ZM24.2507 17.549L24.0506 17.5452L24.0507 17.5527L24.2507 17.549ZM23.5249 20.9726L23.3432 20.8879L23.3382 20.9008L23.5249 20.9726ZM21.2504 22.6894L21.2504 22.8894L21.2598 22.8894L21.2691 22.8885L21.2504 22.6894ZM15.8757 21.2902L16.0551 21.202L15.9366 20.961L15.7397 21.1436L15.8757 21.2902ZM14.8775 21.9707L14.9608 22.1526L14.9643 22.1509L14.8775 21.9707ZM11.4265 22.6901L11.4301 22.49L11.4228 22.4902L11.4265 22.6901ZM7.97478 21.9707L8.05824 21.7885L8.04608 21.7839L7.97478 21.9707ZM6.25 19.7142H6.05V19.7237L6.0509 19.7332L6.25 19.7142ZM6.25 9.97308L6.05091 9.95401L6.05 9.96353V9.97308H6.25ZM7.97977 7.71658L8.05085 7.904L8.06306 7.89841L7.97977 7.71658ZM11.4322 6.99719L11.4285 7.19729L11.4358 7.19715L11.4322 6.99719ZM11.4322 8.62413L11.4277 8.8243L11.437 8.82407L11.4322 8.62413ZM8.71275 9.17234L8.63105 8.98964L8.6246 8.99282L8.71275 9.17234ZM8.7156 10.7781L8.62643 10.9573L8.63396 10.9606L8.7156 10.7781ZM11.435 11.3263L11.4395 11.1261L11.4306 11.1263L11.435 11.3263ZM14.1545 10.7781L14.2362 10.9608L14.2433 10.9572L14.1545 10.7781ZM14.1545 9.1681L14.2436 8.98887L14.2358 8.98539L14.1545 9.1681ZM14.8832 7.71658L14.7997 7.89882L14.8123 7.9036L14.8832 7.71658ZM16.6136 9.97308H16.8136V9.96352L16.8127 9.95399L16.6136 9.97308ZM16.6136 12.9292H16.4136V13.371L16.7456 13.0794L16.6136 12.9292ZM17.9769 14.0355V14.2355L17.9781 14.2355L17.9769 14.0355ZM17.1655 14.8546L16.9869 14.7643L16.9834 14.7719L17.1655 14.8546ZM16.6129 17.5525L16.8131 17.5571L16.8129 17.548L16.6129 17.5525ZM17.1655 20.2504L16.9833 20.3332L16.9869 20.3404L17.1655 20.2504ZM8.71203 20.5185L8.62301 20.6978L8.63039 20.7011L8.71203 20.5185ZM11.4315 21.0667L11.4359 20.8666L11.427 20.8668L11.4315 21.0667ZM14.1509 20.5185L14.2326 20.7012L14.2398 20.6977L14.1509 20.5185ZM14.9766 18.6751H15.1766V18.3483L14.8855 18.497L14.9766 18.6751ZM14.8824 18.7232L14.9661 18.9051L14.9735 18.9013L14.8824 18.7232ZM11.4322 19.4469L11.4356 19.2468L11.4285 19.2469L11.4322 19.4469ZM7.98048 18.7268L7.88244 18.9011L7.88962 18.9051L7.89711 18.9085L7.98048 18.7268ZM7.88993 18.6758L7.98797 18.5015L7.68993 18.3339V18.6758H7.88993ZM8.71203 17.2717L8.62301 17.451L8.63039 17.4543L8.71203 17.2717ZM11.4315 17.8199L11.4359 17.6198L11.427 17.62L11.4315 17.8199ZM14.1509 17.2717L14.2326 17.4544L14.2398 17.4509L14.1509 17.2717ZM14.9766 15.4283H15.1766V15.1015L14.8855 15.2502L14.9766 15.4283ZM14.8824 15.4764L14.9659 15.6583L14.9735 15.6545L14.8824 15.4764ZM11.4315 16.1965L11.4351 15.9964L11.4278 15.9965L11.4315 16.1965ZM7.97977 15.4764L7.88631 15.6536L7.8964 15.6582L7.97977 15.4764ZM7.88993 15.429L7.98325 15.2521L7.68993 15.0974V15.429H7.88993ZM8.71203 14.0249L8.62301 14.2042L8.63039 14.2075L8.71203 14.0249ZM11.4315 14.5731L11.4359 14.3729L11.427 14.3731L11.4315 14.5731ZM14.1509 14.0249L14.2326 14.2076L14.2398 14.204L14.1509 14.0249ZM14.9766 12.1822H15.1766V11.8554L14.8855 12.0041L14.9766 12.1822ZM14.8824 12.2303L14.9658 12.4123L14.9735 12.4084L14.8824 12.2303ZM11.4315 12.9497L11.4351 12.7496L11.4277 12.7497L11.4315 12.9497ZM7.97977 12.2317L7.88323 12.4069L7.88977 12.4105L7.89656 12.4136L7.97977 12.2317ZM7.88993 12.1822L7.98647 12.007L7.68993 11.8436V12.1822H7.88993ZM17.9776 21.2632H19.0243V20.8632H17.9776V21.2632ZM19.2007 20.9689C19.1848 20.9392 19.1694 20.9095 19.1544 20.8798L18.7972 21.0598C18.8137 21.0924 18.8306 21.1249 18.8479 21.1575L19.2007 20.9689ZM19.1572 20.8854C18.6708 19.8407 18.4293 18.7003 18.4507 17.5499L18.0507 17.5424C18.0282 18.7538 18.2825 19.9544 18.7945 21.0542L19.1572 20.8854ZM19.6907 17.5416C19.6689 18.5007 19.8639 19.4523 20.2611 20.3268L20.6253 20.1613C20.2529 19.3416 20.0702 18.4495 20.0906 17.5507L19.6907 17.5416ZM20.2646 20.3341C20.6289 21.0569 21.0152 21.2632 21.2546 21.2632V20.8632C21.2547 20.8632 21.2535 20.8632 21.2509 20.8629C21.2483 20.8626 21.2446 20.8621 21.2398 20.861C21.2303 20.859 21.2168 20.8551 21.1998 20.8482C21.1657 20.8342 21.1183 20.8082 21.0604 20.7606C20.9443 20.6652 20.7887 20.4852 20.6218 20.154L20.2646 20.3341ZM21.2546 21.2632C21.4943 21.2632 21.8797 21.0559 22.2445 20.3343L21.8876 20.1538C21.7203 20.4847 21.5647 20.6649 21.4485 20.7605C21.3906 20.8081 21.3432 20.8342 21.3092 20.8482C21.2922 20.8551 21.2787 20.859 21.2692 20.861C21.2595 20.8631 21.2546 20.8632 21.2546 20.8632V21.2632ZM22.2481 20.3268C22.6454 19.4523 22.8403 18.5007 22.8186 17.5416L22.4187 17.5507C22.4391 18.4495 22.2564 19.3416 21.884 20.1613L22.2481 20.3268ZM22.8186 17.5507C22.8403 16.5916 22.6454 15.64 22.2481 14.7655L21.884 14.931C22.2564 15.7508 22.4391 16.6428 22.4187 17.5416L22.8186 17.5507ZM22.2446 14.7582C21.8804 14.0362 21.4942 13.8291 21.2546 13.8291V14.2291C21.2546 14.2291 21.2595 14.2292 21.2693 14.2313C21.2788 14.2333 21.2923 14.2372 21.3093 14.2442C21.3434 14.2581 21.3909 14.2843 21.4488 14.3319C21.565 14.4274 21.7206 14.6075 21.8875 14.9383L22.2446 14.7582ZM21.2546 13.8291C21.015 13.8291 20.6295 14.0364 20.2647 14.758L20.6217 14.9385C20.789 14.6076 20.9446 14.4274 21.0608 14.3319C21.1186 14.2842 21.1661 14.2581 21.2001 14.2442C21.2171 14.2372 21.2305 14.2333 21.2401 14.2313C21.2498 14.2292 21.2546 14.2291 21.2546 14.2291V13.8291ZM20.2611 14.7655C19.8639 15.64 19.6689 16.5916 19.6907 17.5507L20.0906 17.5416C20.0702 16.6428 20.2529 15.7508 20.6253 14.931L20.2611 14.7655ZM18.4507 17.5424C18.4293 16.392 18.6708 15.2516 19.1572 14.2069L18.7945 14.0381C18.2825 15.1379 18.0282 16.3385 18.0507 17.5499L18.4507 17.5424ZM19.1544 14.2125C19.1694 14.1828 19.1848 14.1531 19.2007 14.1234L18.8479 13.9348C18.8306 13.9674 18.8137 13.9999 18.7972 14.0325L19.1544 14.2125ZM17.9776 12.6085H21.2504V12.2085H17.9776V12.6085ZM21.2316 12.6077C21.6975 12.6516 22.1416 12.8239 22.5138 13.1049L22.7548 12.7856C22.3232 12.4598 21.8087 12.2603 21.2691 12.2094L21.2316 12.6077ZM22.5138 13.1049C22.8861 13.3858 23.1715 13.7642 23.3382 14.1972L23.7115 14.0535C23.5178 13.5504 23.1864 13.1113 22.7548 12.7856L22.5138 13.1049ZM23.3436 14.2098C23.8305 15.2544 24.0722 16.3948 24.0507 17.5452L24.4507 17.5527C24.4733 16.3412 24.2187 15.1405 23.7061 14.0408L23.3436 14.2098ZM24.0507 17.5527C24.0722 18.7032 23.8305 19.8436 23.3436 20.8881L23.7061 21.0571C24.2187 19.9575 24.4733 18.7567 24.4507 17.5452L24.0507 17.5527ZM23.3382 20.9008C23.1715 21.3338 22.8861 21.7122 22.5138 21.9931L22.7548 22.3124C23.1864 21.9866 23.5178 21.5475 23.7115 21.0445L23.3382 20.9008ZM22.5138 21.9931C22.1416 22.2741 21.6975 22.4463 21.2316 22.4903L21.2691 22.8885C21.8087 22.8376 22.3232 22.6381 22.7548 22.3124L22.5138 21.9931ZM21.2503 22.4894L17.9776 22.4901L17.9777 22.8901L21.2504 22.8894L21.2503 22.4894ZM15.7397 21.1436C15.4577 21.405 15.1378 21.6231 14.7906 21.7906L14.9643 22.1509C15.3474 21.9662 15.7004 21.7255 16.0117 21.4369L15.7397 21.1436ZM14.7941 21.7889C13.7406 22.2717 12.5905 22.5114 11.4301 22.4902L11.4228 22.8901C12.6431 22.9124 13.8526 22.6603 14.9608 22.1526L14.7941 21.7889ZM11.4228 22.4902C10.2622 22.5114 9.11186 22.2716 8.05807 21.7889L7.89149 22.1526C8.99987 22.6603 10.2096 22.9124 11.4301 22.8901L11.4228 22.4902ZM8.04608 21.7839C7.60996 21.6175 7.22952 21.3337 6.94747 20.9646L6.62967 21.2076C6.95704 21.6358 7.39823 21.9648 7.90347 22.1576L8.04608 21.7839ZM6.94747 20.9646C6.66542 20.5956 6.49289 20.156 6.4491 19.6953L6.0509 19.7332C6.10178 20.2686 6.30229 20.7793 6.62967 21.2076L6.94747 20.9646ZM6.45 19.7142V9.97308H6.05V19.7142H6.45ZM6.44909 9.99215C6.49327 9.53091 6.66648 9.09094 6.94939 8.72189L6.63193 8.47853C6.30356 8.9069 6.10226 9.41793 6.05091 9.95401L6.44909 9.99215ZM6.94939 8.72189C7.2323 8.35282 7.6137 8.06932 8.05069 7.90358L7.90884 7.52958C7.4026 7.72158 6.96029 8.05019 6.63193 8.47853L6.94939 8.72189ZM8.06306 7.89841C9.11706 7.41562 10.2677 7.17586 11.4285 7.19715L11.4358 6.79722C10.2151 6.77482 9.00508 7.02695 7.89648 7.53475L8.06306 7.89841ZM11.4366 8.42418C10.4707 8.40261 9.51208 8.59584 8.63111 8.98976L8.79438 9.35492C9.62116 8.98523 10.5209 8.80383 11.4277 8.82408L11.4366 8.42418ZM8.6246 8.99282C7.89595 9.35059 7.68993 9.73406 7.68993 9.97308H8.08993C8.08993 9.97319 8.08996 9.96853 8.09199 9.95909C8.09398 9.94984 8.09772 9.93677 8.10456 9.92015C8.11822 9.88699 8.14399 9.84037 8.19138 9.78347C8.28651 9.66924 8.46702 9.5158 8.80089 9.35187L8.6246 8.99282ZM7.68993 9.97308C7.68993 10.2126 7.90034 10.5958 8.62651 10.9571L8.80469 10.599C8.47088 10.4329 8.28916 10.2783 8.19288 10.163C8.1449 10.1056 8.11868 10.0586 8.10475 10.0252C8.09042 9.99088 8.08993 9.97307 8.08993 9.97308H7.68993ZM8.63396 10.9606C9.51493 11.3546 10.4735 11.5478 11.4395 11.5262L11.4306 11.1263C10.5238 11.1466 9.62401 10.9652 8.79724 10.5955L8.63396 10.9606ZM11.4306 11.5262C12.3965 11.5478 13.3551 11.3546 14.2361 10.9606L14.0728 10.5955C13.246 10.9652 12.3463 11.1466 11.4395 11.1263L11.4306 11.5262ZM14.2433 10.9572C14.9706 10.5965 15.1801 10.2132 15.1801 9.97308H14.7801C14.7801 9.97279 14.7801 9.97733 14.7781 9.98678C14.776 9.99603 14.7722 10.0092 14.7653 10.0259C14.7514 10.0593 14.7253 10.1062 14.6774 10.1636C14.5813 10.2787 14.3997 10.4332 14.0656 10.5989L14.2433 10.9572ZM15.1801 9.97308C15.1801 9.73276 14.9696 9.35029 14.2435 8.98904L14.0654 9.34716C14.3992 9.51328 14.5809 9.66779 14.6772 9.78295C14.7252 9.84032 14.7514 9.88724 14.7653 9.92061C14.7723 9.93732 14.7761 9.95041 14.7781 9.9596C14.7801 9.969 14.7801 9.97347 14.7801 9.97308H15.1801ZM14.2358 8.98539C13.3536 8.59255 12.3939 8.40081 11.4273 8.42419L11.437 8.82407C12.3444 8.80212 13.2451 8.98213 14.0731 9.3508L14.2358 8.98539ZM11.4358 7.19715C12.5962 7.1759 13.7463 7.41567 14.7998 7.8984L14.9665 7.53476C13.8584 7.027 12.6488 6.77487 11.4285 6.79722L11.4358 7.19715ZM14.8123 7.9036C15.2494 8.06924 15.6309 8.3527 15.914 8.72177L16.2314 8.47836C15.9029 8.05 15.4604 7.72145 14.954 7.52956L14.8123 7.9036ZM15.914 8.72177C16.197 9.09083 16.3703 9.53086 16.4145 9.99217L16.8127 9.95399C16.7613 9.41782 16.5599 8.90673 16.2314 8.47836L15.914 8.72177ZM16.4136 9.97308V12.9292H16.8136V9.97308H16.4136ZM16.7456 13.0794C17.0859 12.7806 17.5245 12.6132 17.9797 12.6085L17.9756 12.2086C17.4252 12.2142 16.8943 12.4165 16.4817 12.7789L16.7456 13.0794ZM17.9769 13.8355C17.7381 13.8355 17.3519 14.0426 16.987 14.7644L17.344 14.9449C17.5112 14.614 17.667 14.4338 17.7833 14.3383C17.8412 14.2906 17.8887 14.2645 17.9227 14.2505C17.9397 14.2435 17.9531 14.2397 17.9626 14.2376C17.9724 14.2355 17.9771 14.2355 17.9769 14.2355V13.8355ZM16.9834 14.7719C16.5861 15.6463 16.3912 16.598 16.413 17.5571L16.8129 17.548C16.7925 16.6491 16.9752 15.7571 17.3476 14.9373L16.9834 14.7719ZM16.413 17.548C16.3912 18.507 16.5861 19.4587 16.9834 20.3331L17.3476 20.1677C16.9752 19.3479 16.7925 18.4559 16.8129 17.5571L16.413 17.548ZM16.9869 20.3404C17.3525 21.0658 17.74 21.2632 17.9776 21.2632V20.8632C17.9629 20.8632 17.6816 20.83 17.3441 20.1604L16.9869 20.3404ZM17.9916 22.4906C17.5805 22.4619 17.1859 22.3326 16.8478 22.1063L16.6253 22.4387C17.0248 22.706 17.4872 22.8564 17.9637 22.8896L17.9916 22.4906ZM16.8478 22.1063C16.508 21.8789 16.2347 21.567 16.0551 21.202L15.6962 21.3785C15.9069 21.8068 16.2274 22.1724 16.6253 22.4387L16.8478 22.1063ZM8.63039 20.7011C9.51136 21.095 10.47 21.2882 11.4359 21.2667L11.427 20.8668C10.5202 20.887 9.62045 20.7056 8.79367 20.3359L8.63039 20.7011ZM11.427 21.2667C12.3929 21.2882 13.3516 21.095 14.2325 20.7011L14.0693 20.3359C13.2425 20.7056 12.3427 20.887 11.4359 20.8668L11.427 21.2667ZM14.2398 20.6977C14.9671 20.3369 15.1766 19.9537 15.1766 19.7135H14.7766C14.7766 19.7132 14.7765 19.7178 14.7745 19.7272C14.7725 19.7365 14.7687 19.7496 14.7617 19.7663C14.7478 19.7997 14.7217 19.8467 14.6738 19.904C14.5777 20.0191 14.3961 20.1736 14.062 20.3393L14.2398 20.6977ZM15.1766 19.7135V18.6751H14.7766V19.7135H15.1766ZM14.8855 18.497L14.7914 18.5451L14.9735 18.9013L15.0676 18.8532L14.8855 18.497ZM14.7989 18.5415C13.746 19.0258 12.5961 19.267 11.4356 19.2469L11.4287 19.6468C12.6491 19.668 13.8586 19.4144 14.966 18.9049L14.7989 18.5415ZM11.4285 19.2469C10.2678 19.2682 9.11747 19.0281 8.06385 18.545L7.89711 18.9085C9.00536 19.4168 10.2152 19.6692 11.4358 19.6468L11.4285 19.2469ZM8.07853 18.5524L7.98797 18.5015L7.79188 18.8501L7.88244 18.9011L8.07853 18.5524ZM7.68993 18.6758V19.7142H8.08993V18.6758H7.68993ZM7.68993 19.7142C7.68993 19.9529 7.89556 20.3364 8.62309 20.6976L8.80098 20.3394C8.46732 20.1737 8.28677 20.0194 8.19154 19.9046C8.14409 19.8474 8.11828 19.8006 8.10459 19.7673C8.09773 19.7506 8.09398 19.7375 8.09199 19.7283C8.08996 19.7188 8.08993 19.7141 8.08993 19.7142H7.68993ZM8.63039 17.4543C9.51136 17.8482 10.47 18.0414 11.4359 18.0199L11.427 17.62C10.5202 17.6402 9.62045 17.4588 8.79367 17.0891L8.63039 17.4543ZM11.427 18.0199C12.3929 18.0414 13.3516 17.8482 14.2325 17.4543L14.0693 17.0891C13.2425 17.4588 12.3427 17.6402 11.4359 17.62L11.427 18.0199ZM14.2398 17.4509C14.9671 17.0901 15.1766 16.7068 15.1766 16.4667H14.7766C14.7766 16.4664 14.7765 16.471 14.7745 16.4804C14.7725 16.4897 14.7687 16.5028 14.7617 16.5195C14.7478 16.5529 14.7217 16.5999 14.6738 16.6572C14.5777 16.7723 14.3961 16.9268 14.062 17.0925L14.2398 17.4509ZM15.1766 16.4667V15.4283H14.7766V16.4667H15.1766ZM14.8855 15.2502L14.7914 15.2983L14.9735 15.6545L15.0676 15.6064L14.8855 15.2502ZM14.799 15.2946C13.7457 15.7778 12.5956 16.0179 11.4351 15.9965L11.4278 16.3965C12.6482 16.4189 13.8578 16.1665 14.9658 15.6582L14.799 15.2946ZM11.4278 15.9965C10.2671 16.0178 9.11675 15.7778 8.06314 15.2946L7.8964 15.6582C9.00465 16.1664 10.2145 16.4188 11.4351 16.3965L11.4278 15.9965ZM8.07309 15.2995L7.98325 15.2521L7.79661 15.6059L7.88645 15.6533L8.07309 15.2995ZM7.68993 15.429V16.4674H8.08993V15.429H7.68993ZM7.68993 16.4674C7.68993 16.7061 7.89556 17.0896 8.62309 17.4508L8.80098 17.0926C8.46732 16.9269 8.28677 16.7726 8.19154 16.6578C8.14409 16.6006 8.11828 16.5538 8.10459 16.5205C8.09773 16.5038 8.09398 16.4907 8.09199 16.4814C8.08996 16.472 8.08993 16.4673 8.08993 16.4674H7.68993ZM8.63039 14.2075C9.51136 14.6014 10.47 14.7946 11.4359 14.773L11.427 14.3731C10.5202 14.3934 9.62045 14.212 8.79367 13.8423L8.63039 14.2075ZM11.427 14.773C12.3929 14.7946 13.3516 14.6014 14.2325 14.2075L14.0693 13.8423C13.2425 14.212 12.3427 14.3934 11.4359 14.3731L11.427 14.773ZM14.2398 14.204C14.9671 13.8433 15.1766 13.46 15.1766 13.2199H14.7766C14.7766 13.2196 14.7765 13.2241 14.7745 13.2336C14.7725 13.2428 14.7687 13.256 14.7617 13.2727C14.7478 13.3061 14.7217 13.353 14.6738 13.4104C14.5777 13.5255 14.3961 13.68 14.062 13.8457L14.2398 14.204ZM15.1766 13.2199V12.1822H14.7766V13.2199H15.1766ZM14.8855 12.0041L14.7914 12.0522L14.9735 12.4084L15.0676 12.3603L14.8855 12.0041ZM14.7991 12.0485C13.7456 12.5312 12.5955 12.771 11.4351 12.7497L11.4278 13.1496C12.6481 13.172 13.8576 12.9199 14.9658 12.4121L14.7991 12.0485ZM11.4277 12.7497C10.2672 12.7713 9.11688 12.532 8.06298 12.0498L7.89656 12.4136C9.00505 12.9208 10.2148 13.1724 11.4352 13.1496L11.4277 12.7497ZM8.07631 12.0565L7.98647 12.007L7.79339 12.3573L7.88323 12.4069L8.07631 12.0565ZM7.68993 12.1822V13.222H8.08993V12.1822H7.68993ZM7.68993 13.222C7.68993 13.4595 7.89577 13.8429 8.62309 14.204L8.80098 13.8457C8.46733 13.6801 8.28673 13.5257 8.19146 13.411C8.14399 13.3539 8.11817 13.3072 8.10449 13.274C8.09764 13.2574 8.09391 13.2444 8.09194 13.2353C8.08992 13.226 8.08993 13.2216 8.08993 13.222H7.68993ZM17.9781 14.2355L19.0255 14.2291L19.0231 13.8291L17.9757 13.8355L17.9781 14.2355Z" fill="white" mask="url(#path-1-inside-1_600_4172)"/>
</g>
<defs>
<clipPath id="clip0_600_4172">
<rect width="18.75" height="17.1875" fill="white" transform="translate(6.25 6.25)"/>
</clipPath>
</defs>
</svg>
