<svg width="298" height="252" viewBox="0 0 298 252" fill="none" xmlns="http://www.w3.org/2000/svg">
<path opacity="0.12" fill-rule="evenodd" clip-rule="evenodd" d="M48.799 193.831C63.6248 209.81 87.58 212.488 116.015 211.554C137.764 210.84 171.227 198.083 171.227 198.083C171.227 198.083 200.904 188.072 216.398 176.625C233.958 163.651 249.888 151.341 257.146 132.786C265.201 112.195 264.898 98.8151 258.839 79.2021C251.622 55.8427 239.919 36.3056 213.14 30.2041C186.285 24.0854 171.32 49.3369 143.371 58.2915C119.177 66.0427 101.798 60.7145 80.4501 74.1538C56.5808 89.1802 46.8428 105.258 39.8128 129.425C32.3441 155.101 33.4711 177.311 48.799 193.831Z" fill="#5B63AD"/>
<g clip-path="url(#clip0_4002_7321)">
<circle cx="222" cy="126" r="32" fill="#FFD3C6"/>
<path d="M206.782 139.16C208.213 133.406 214.055 129.891 219.809 131.322C225.563 132.753 229.078 138.594 227.647 144.349C226.216 150.103 220.374 153.617 214.62 152.187C208.866 150.756 205.351 144.914 206.782 139.16ZM201.071 100.181C202.98 99.0457 205.458 99.6618 206.466 101.522L209.426 106.256L214.111 103.423C216.02 102.288 218.498 102.905 219.507 104.765C220.788 106.711 220.172 109.188 218.165 110.16L213.577 113.156L216.264 117.805C217.545 119.751 216.929 122.229 214.922 123.201C213.123 124.519 210.646 123.903 209.527 121.859L206.677 117.308L201.882 119.958C200.083 121.276 197.605 120.66 196.486 118.616C195.308 116.852 195.925 114.375 197.828 113.221L202.526 110.408L199.729 105.576C198.551 103.812 199.167 101.334 201.071 100.181ZM232.368 107.963C234.277 106.828 236.755 107.444 237.763 109.305L240.723 114.039L245.408 111.206C247.317 110.071 249.795 110.687 250.803 112.548C252.085 114.493 251.469 116.971 249.462 117.943L244.874 120.939L247.561 125.588C248.842 127.534 248.226 130.011 246.219 130.983C244.42 132.302 241.942 131.685 240.824 129.642L237.974 125.091L233.179 127.741C231.38 129.059 228.902 128.443 227.783 126.399C226.612 124.637 227.228 122.159 229.125 121.004L233.823 118.191L231.026 113.359C229.855 111.596 230.471 109.118 232.368 107.963ZM262.835 136.483C257.103 159.531 233.778 173.567 210.729 167.835C187.68 162.104 173.645 138.778 179.377 115.729C185.108 92.6803 208.434 78.6452 231.483 84.3767C254.531 90.1083 268.567 113.434 262.835 136.483ZM229.537 92.201C210.808 87.5436 191.858 98.9456 187.201 117.675C182.544 136.404 193.946 155.353 212.675 160.011C231.404 164.668 250.353 153.266 255.011 134.537C259.668 115.808 248.266 96.8583 229.537 92.201Z" fill="#5B63AD"/>
</g>
<ellipse cx="132.5" cy="81" rx="36.5" ry="37" fill="#6AD3E3"/>
<path fill-rule="evenodd" clip-rule="evenodd" d="M155.066 97.7227C157.273 94.5781 153.914 91.1992 150.262 92.2344C144.617 93.543 138.445 94.2656 131.98 94.2656C125.516 94.2656 119.363 93.543 113.699 92.2344C110.066 91.1992 106.707 94.5781 108.738 97.7227C113.543 105.164 122.156 109.949 131.98 109.949C141.824 109.949 150.438 105.164 155.066 97.7227ZM124.461 76.6289L124.5 76.6875C124.91 77.2344 125.613 77.4492 126.238 77.2344C126.883 77.0195 127.312 76.4141 127.312 75.75C127.312 72.2539 126.004 68.7969 124.07 66.2188C122.156 63.6797 119.402 61.6875 116.375 61.6875C113.348 61.6875 110.594 63.6797 108.68 66.2188C106.746 68.7969 105.438 72.2539 105.438 75.75C105.438 76.4141 105.867 77.0195 106.512 77.2344C107.137 77.4492 107.84 77.2344 108.25 76.6875L108.289 76.6289C108.301 76.6168 108.296 76.6029 108.291 76.5871C108.279 76.5517 108.264 76.5071 108.426 76.4531C108.401 76.3527 108.537 76.228 108.7 76.079C108.79 75.9963 108.889 75.9062 108.973 75.8086C109.299 75.4302 109.712 74.982 110.195 74.4583C110.435 74.1981 110.693 73.9193 110.965 73.6211C112.684 72.2734 114.656 71.0625 116.375 71.0625C118.094 71.0625 120.066 72.2734 121.785 73.6211C122.057 73.9193 122.315 74.1981 122.555 74.4583C123.038 74.982 123.451 75.4302 123.777 75.8086C123.889 75.9391 123.988 76.0563 124.075 76.1602C124.171 76.2738 124.253 76.3715 124.324 76.4531C124.34 76.4741 124.354 76.4936 124.367 76.5117C124.404 76.5612 124.432 76.6003 124.461 76.6289ZM155.711 76.6289L155.75 76.6875C156.16 77.2344 156.863 77.4492 157.488 77.2344C158.133 77.0195 158.562 76.4141 158.562 75.75C158.562 72.2539 157.254 68.7969 155.32 66.2188C153.406 63.6797 150.652 61.6875 147.625 61.6875C144.598 61.6875 141.844 63.6797 139.93 66.2188C137.996 68.7969 136.688 72.2539 136.688 75.75C136.688 76.4141 137.117 77.0195 137.762 77.2344C138.387 77.4492 139.09 77.2344 139.5 76.6875L139.539 76.6289C139.551 76.6168 139.546 76.6029 139.541 76.5871C139.529 76.5517 139.514 76.5071 139.676 76.4531C139.651 76.3527 139.787 76.228 139.95 76.079C140.04 75.9963 140.139 75.9062 140.223 75.8086C140.549 75.4302 140.962 74.982 141.445 74.4583C141.685 74.1981 141.943 73.9193 142.215 73.6211C143.934 72.2734 145.906 71.0625 147.625 71.0625C149.344 71.0625 151.316 72.2734 153.035 73.6211C153.307 73.9193 153.565 74.1981 153.805 74.4583C154.288 74.982 154.701 75.4302 155.027 75.8086C155.139 75.9391 155.238 76.0563 155.325 76.1602C155.421 76.2738 155.503 76.3715 155.574 76.4531C155.59 76.4741 155.604 76.4936 155.617 76.5117C155.654 76.5612 155.682 76.6003 155.711 76.6289Z" fill="#5B63AD"/>
<path fill-rule="evenodd" clip-rule="evenodd" d="M182 82C182 109.617 159.617 132 132 132C104.383 132 82 109.617 82 82C82 54.3828 104.383 32 132 32C159.617 32 182 54.3828 182 82ZM91.375 82C91.375 59.5586 109.559 41.375 132 41.375C154.441 41.375 172.625 59.5586 172.625 82C172.625 104.441 154.441 122.625 132 122.625C109.559 122.625 91.375 104.441 91.375 82Z" fill="#5B63AD"/>
<circle cx="68.5" cy="144.5" r="26.5" fill="#FFF4D6"/>
<circle cx="270" cy="72" r="7" fill="#E6E7F0"/>
<circle cx="277.5" cy="58.5" r="4.5" fill="#E6E7F0"/>
<g clip-path="url(#clip1_4002_7321)">
<path d="M84.3929 145.095C86.3019 143.13 89.6204 144.029 89.3758 146.791C89.1679 153.111 85.5116 159.21 79.3598 162.761C73.2203 166.306 66.1109 166.423 60.4233 163.506C58.0193 162.274 58.8996 158.951 61.5434 158.287C65.5553 157.061 69.6609 155.293 73.701 152.96C77.7412 150.627 81.3375 147.949 84.3929 145.095ZM60.9816 140.091C62.6894 140.032 63.7746 141.912 62.8703 143.362L55.2727 155.544C54.6115 156.625 53.031 156.594 52.4038 155.508C52.2064 155.166 52.0284 154.829 52.2029 154.37L53.5527 146.56L46.1142 143.824C45.6296 143.746 45.4271 143.424 45.2298 143.082C44.6026 141.996 45.3657 140.611 46.633 140.579L60.9816 140.091ZM79.6072 124.487L78.2575 132.297L85.6959 135.033C86.0707 135.175 86.383 135.434 86.5803 135.776C87.2075 136.862 86.4445 138.246 85.1772 138.278L70.8285 138.767C69.1208 138.825 68.0355 136.946 68.9399 135.496L76.5374 123.314C77.1987 122.232 78.7792 122.264 79.4064 123.35C79.6037 123.692 79.6719 124.092 79.6072 124.487ZM100.535 127.247C110.499 144.506 104.587 166.57 87.3282 176.535C70.0691 186.499 48.0051 180.587 38.0405 163.328C28.076 146.069 33.988 124.005 51.2471 114.041C68.5063 104.076 90.5702 109.988 100.535 127.247ZM54.6297 119.899C40.6051 127.996 35.8023 145.921 43.8994 159.946C51.9965 173.97 69.921 178.773 83.9456 170.676C97.9702 162.579 102.773 144.654 94.676 130.63C86.5789 116.605 68.6543 111.802 54.6297 119.899Z" fill="#5B63AD"/>
</g>
<path d="M209.774 51.8381C208.725 50.4536 207.739 49.1528 206.552 47.5644C206.957 46.4645 207.439 45.3908 207.995 44.3516C211.579 38.6825 214.677 32.756 217.725 26.7827C218.241 25.804 218.828 24.8614 219.48 23.963C219.814 23.506 220.239 23.1217 220.726 22.837C221.212 22.5522 221.748 22.374 222.297 22.3145C222.697 22.2471 223.101 22.269 223.481 22.3787C224.916 22.8772 226.679 26.629 226.132 28.0622C225.734 29.0863 225.162 30.0712 224.677 31.0633C221.514 37.4315 218.029 43.6484 214.236 49.6881C213.839 50.5072 213.17 51.1741 212.352 51.5683C211.534 51.9626 210.62 52.0583 209.774 51.8381Z" fill="#5B63AD"/>
<path d="M187.968 27.2197L192.836 25.7677C193.577 26.5115 194.256 27.3138 194.867 28.1666C198.367 34.4344 200.771 41.2459 201.977 48.3077C202.088 48.9837 202.124 49.6698 202.081 50.3528C201.963 53.2851 201.701 53.5437 198.626 54.2882C198.233 54.3835 197.876 54.6261 197.479 54.7612C197.215 54.8117 196.946 54.8375 196.676 54.8383C194.618 54.2168 194.175 52.4881 193.71 50.7256C192.519 46.04 191.339 41.4036 189.951 36.7657C189.439 34.9151 188.817 33.0961 188.087 31.3183C187.505 30.0188 187.462 28.5447 187.968 27.2197Z" fill="#5B63AD"/>
<path d="M214.026 63.9437C213.663 63.1335 213.619 62.2213 213.903 61.388C214.187 60.5546 214.779 59.8609 215.561 59.4443C216.501 58.8397 217.516 58.3563 218.582 58.0058C225.093 56.23 231.755 55.0192 238.491 54.3869C239.322 54.3334 240.158 54.4447 240.949 54.7143C242.127 55.0925 243.221 55.6708 244.34 56.142C244.514 56.563 244.599 57.0139 244.59 57.4668C244.581 57.9196 244.478 58.3646 244.286 58.7741C244.095 59.1837 243.821 59.549 243.479 59.8473C243.138 60.1456 242.737 60.3706 242.302 60.5083C241.788 60.7318 241.253 60.9076 240.704 61.0334C234.704 62.4355 228.687 63.8305 222.687 65.2326C221.712 65.6131 220.655 65.7501 219.609 65.6314C218.562 65.5128 217.558 65.1422 216.685 64.5522C215.844 64.1853 214.942 63.9788 214.026 63.9437Z" fill="#5B63AD"/>
<path d="M142.029 166.915C140.868 167.253 139.778 167.572 138.45 167.948C137.836 167.412 137.258 166.832 136.72 166.213C133.925 162.474 130.842 158.988 127.715 155.523C127.207 154.944 126.74 154.329 126.318 153.682C126.104 153.351 125.96 152.979 125.896 152.592C125.831 152.205 125.849 151.813 125.946 151.441C126.002 151.164 126.116 150.907 126.282 150.687C126.963 149.878 129.839 149.664 130.635 150.375C131.202 150.888 131.7 151.505 132.225 152.067C135.579 155.705 138.755 159.515 141.74 163.48C142.173 163.942 142.441 164.542 142.494 165.172C142.547 165.802 142.382 166.42 142.029 166.915Z" fill="#5B63AD"/>
<path d="M120.609 174.977L120.874 171.451C121.541 171.154 122.232 170.912 122.938 170.727C127.882 170.008 132.907 170.137 137.797 171.107C138.265 171.203 138.719 171.35 139.153 171.547C141.03 172.353 141.133 172.587 140.853 174.771C140.817 175.051 140.886 175.343 140.876 175.634C140.843 175.819 140.793 176 140.726 176.175C139.811 177.359 138.577 177.218 137.316 177.082C133.974 176.693 130.667 176.308 127.307 176.058C125.977 175.932 124.64 175.884 123.303 175.917C122.313 175.973 121.344 175.635 120.609 174.977Z" fill="#5B63AD"/>
<path d="M150.955 167.158C150.338 167.193 149.734 166.995 149.263 166.603C148.792 166.211 148.488 165.654 148.411 165.042C148.252 164.281 148.19 163.501 148.227 162.721C148.689 158.047 149.557 153.416 150.819 148.879C150.991 148.326 151.271 147.81 151.642 147.363C152.181 146.691 152.828 146.124 153.413 145.513C153.73 145.504 154.044 145.561 154.336 145.68C154.628 145.798 154.892 145.976 155.111 146.202C155.329 146.428 155.499 146.697 155.608 146.993C155.717 147.289 155.764 147.605 155.745 147.922C155.763 148.312 155.744 148.704 155.69 149.092C155.111 153.341 154.523 157.599 153.944 161.848C153.95 162.576 153.776 163.297 153.439 163.948C153.102 164.599 152.612 165.159 152.011 165.581C151.564 166.036 151.205 166.571 150.955 167.158Z" fill="#5B63AD"/>
<path d="M60.1791 57.0129C60.1358 56.6896 60.16 56.3605 60.2499 56.0475C60.3399 55.7346 60.4935 55.4449 60.7008 55.1977C61.2461 54.5322 61.7881 53.8633 62.3369 53.2013C63.2109 52.156 64.1018 51.1108 64.9588 50.0376C65.3687 49.5324 65.7176 48.9924 66.0902 48.4454C66.1444 48.3687 66.1851 48.2851 66.2393 48.2084C66.2726 48.16 66.3209 48.1246 66.3763 48.1082C66.4317 48.0917 66.4909 48.0951 66.5442 48.1179C66.5784 48.1281 66.6102 48.1454 66.6377 48.1687C66.6651 48.1921 66.6876 48.221 66.7038 48.2536C66.72 48.2863 66.7295 48.322 66.7318 48.3585C66.734 48.3951 66.729 48.4318 66.7169 48.4663C66.6804 48.6505 66.6224 48.8294 66.5442 48.9993C66.2562 49.5464 65.9852 50.1108 65.6465 50.6474C65.2738 51.2675 64.8775 51.8738 64.4575 52.4591C63.553 53.7309 62.7028 55.0374 61.8931 56.3753C61.7374 56.6348 61.5642 56.8828 61.3749 57.1175C61.2569 57.2593 61.1145 57.3774 60.9548 57.4659C60.5653 57.6924 60.301 57.56 60.1791 57.0129Z" fill="#29C1D8"/>
<path d="M68.6 67.2559C68.0196 67.066 67.4834 66.7552 67.0248 66.343C66.415 65.8482 65.8053 65.35 65.1854 64.8657C64.4753 64.3479 63.7119 63.9121 62.909 63.5661C62.5582 63.3939 62.2446 63.1509 61.9869 62.8517C61.7291 62.5524 61.5324 62.203 61.4084 61.824C61.3624 61.6939 61.3339 61.5579 61.3237 61.4199C61.3189 61.3904 61.3201 61.3603 61.3272 61.3313C61.3343 61.3023 61.3472 61.2752 61.365 61.2517C61.3829 61.2281 61.4053 61.2086 61.4308 61.1943C61.4563 61.1801 61.4844 61.1715 61.5134 61.169C62.0892 61.1133 62.6719 61.0924 63.1631 61.4686C64.5867 62.4979 65.9116 63.6646 67.1196 64.9528C67.5973 65.4929 68.0952 65.9981 68.583 66.5416C68.8235 66.7925 68.8235 66.8099 68.6 67.2559Z" fill="#29C1D8"/>
<path d="M57.7394 55.6189C57.6533 55.552 57.5826 55.4665 57.5322 55.3684C57.4819 55.2702 57.4531 55.1619 57.4481 55.051C57.2463 54.2556 57.1629 53.4332 57.2008 52.6121C57.3871 49.8004 57.5903 46.9921 57.7868 44.1839C57.8038 44.1325 57.8265 44.0834 57.8546 44.0375C57.9054 44.0375 57.9867 43.9818 58.0307 44.0062C58.0748 44.0306 58.2374 44.1386 58.2611 44.2257C58.3285 44.4747 58.3694 44.7306 58.383 44.9887C58.4914 47.452 58.5998 49.9118 58.6913 52.3752C58.6991 53.3887 58.4825 54.3907 58.0578 55.3053C58.0206 55.3909 57.9703 55.4697 57.9088 55.5388C57.8715 55.5701 57.8207 55.5806 57.7394 55.6189Z" fill="#29C1D8"/>
<path d="M48.8471 69.4337C48.7885 69.383 48.7406 69.3206 48.7062 69.2502C48.6719 69.1798 48.6519 69.103 48.6474 69.0243C48.643 68.9457 48.6542 68.867 48.6804 68.793C48.7066 68.719 48.7472 68.6513 48.7997 68.594C48.942 68.4093 49.0775 68.2177 49.2198 68.0365L52.2685 64.2283C52.5734 63.8451 52.8748 63.4618 53.1831 63.0855C53.3891 62.8462 53.6518 62.6659 53.9456 62.5621C54.2395 62.4583 54.5545 62.4346 54.8599 62.4932C54.9469 62.507 55.0252 62.5551 55.0783 62.6273C55.1314 62.6995 55.1552 62.7901 55.1444 62.8799C55.1171 63.0646 55.067 63.2449 54.9954 63.4165C54.7486 64.0267 54.367 64.5695 53.8809 65.0018C52.465 66.1899 51.1066 67.4407 49.7651 68.7229C49.5653 68.9111 49.3519 69.0887 49.1351 69.263C49.0438 69.3279 48.9475 69.3849 48.8471 69.4337Z" fill="#29C1D8"/>
<path d="M54.2947 74.0154C54.2249 73.9291 54.1764 73.8266 54.1534 73.7168C54.1304 73.607 54.1335 73.4931 54.1626 73.3848C54.2506 72.8273 54.3252 72.2699 54.4132 71.7124C54.6402 70.3013 54.8773 68.8902 55.0907 67.4757C55.1588 66.9144 55.3412 66.3742 55.6259 65.8904C55.7113 65.7514 55.8088 65.6208 55.9173 65.5001C55.948 65.4649 55.9859 65.437 56.0283 65.4186C56.0707 65.4002 56.1166 65.3917 56.1626 65.3937C56.2086 65.3957 56.2536 65.4082 56.2943 65.4302C56.3351 65.4522 56.3706 65.4832 56.3983 65.521C56.4735 65.6076 56.5322 65.7081 56.571 65.8172C56.7525 66.3032 56.7994 66.8315 56.7065 67.3433C56.6349 67.6882 56.5456 68.0289 56.4389 68.3641C55.9015 69.9599 55.3572 71.5545 54.8062 73.1479C54.7322 73.3702 54.6404 73.5858 54.5318 73.7925C54.4674 73.883 54.376 73.9388 54.2947 74.0154Z" fill="#29C1D8"/>
<path d="M62.6855 71.8724C62.4395 71.7666 62.2362 71.5772 62.1096 71.3358C61.2537 70.0397 60.4001 68.7389 59.5487 67.4335C59.19 66.8325 58.9345 66.1725 58.7933 65.4824C58.7688 65.4159 58.7631 65.3436 58.7769 65.274C58.7907 65.2043 58.8234 65.14 58.8712 65.0887C58.945 65.035 59.0332 65.0062 59.1236 65.0062C59.214 65.0062 59.3021 65.035 59.3759 65.0887C60.102 65.4994 60.692 66.1244 61.0697 66.883C61.6919 68.1107 62.2505 69.3714 62.7431 70.6599C62.8007 70.8376 62.8616 71.0083 62.9091 71.1965C62.9667 71.4647 62.9599 71.4682 62.6855 71.8724Z" fill="#29C1D8"/>
<path d="M68.9491 56.2634C68.9612 56.3656 68.9435 56.4692 68.8983 56.561C68.8531 56.6528 68.7823 56.7287 68.695 56.7791C68.3434 57.077 67.977 57.3561 67.5975 57.6153C66.6117 58.2494 65.6124 58.8626 64.6165 59.4758C64.403 59.6157 64.176 59.7325 63.939 59.8242C63.8132 59.8825 63.6762 59.9109 63.5382 59.9072C63.4002 59.9035 63.2648 59.8678 63.1421 59.8028C63.0194 59.7379 62.9125 59.6453 62.8293 59.532C62.7462 59.4187 62.689 59.2875 62.6619 59.1483C62.6293 59.0478 62.6193 58.941 62.6328 58.8359C62.6463 58.7309 62.6829 58.6304 62.7399 58.5421C62.8828 58.2955 63.0922 58.097 63.3428 57.9707C63.506 57.8869 63.676 57.8181 63.851 57.7651C65.3076 57.3714 66.7201 56.8418 68.1361 56.3087C68.2594 56.2384 68.3967 56.1977 68.5375 56.1899C68.6784 56.182 68.8191 56.2072 68.9491 56.2634Z" fill="#29C1D8"/>
<path d="M46.1782 63.5102C46.1277 63.4347 46.0845 63.3541 46.0494 63.2698C45.9546 62.9214 45.9851 62.8239 46.2391 62.681C47.3807 62.0399 48.5189 61.3919 49.6706 60.7717C50.2564 60.4897 50.9174 60.4185 51.5473 60.5696C51.6346 60.5934 51.7163 60.6348 51.7878 60.6916C51.8212 60.7226 51.8477 60.7606 51.8657 60.803C51.7693 61.1635 51.5983 61.4984 51.3645 61.7846C51.1306 62.0709 50.8394 62.3018 50.5107 62.4615C50.382 62.5113 50.2508 62.5543 50.1178 62.5904C49.3522 62.8204 48.5833 63.0538 47.8109 63.2873C47.2875 63.477 46.7315 63.5529 46.1782 63.5102Z" fill="#29C1D8"/>
<path d="M54.467 55.0163C54.4984 55.5006 54.395 55.984 54.1689 56.41C54.1475 56.4589 54.1145 56.5015 54.073 56.5339C54.0314 56.5663 53.9826 56.5875 53.931 56.5955C53.8795 56.6034 53.8268 56.598 53.7778 56.5796C53.7288 56.5612 53.6851 56.5304 53.6506 56.4901C53.3799 56.2691 53.1765 55.9729 53.0646 55.6365C52.5765 54.2442 51.9912 52.8899 51.3133 51.5844C50.9373 50.8039 50.6053 50.0061 50.253 49.2152C50.2351 49.1731 50.2236 49.1284 50.2191 49.0828C50.1988 48.9817 50.3512 48.8423 50.4427 48.8876C50.549 48.9261 50.6452 48.9893 50.7239 49.0723C50.9102 49.3092 51.0626 49.5601 51.2421 49.8144C51.6791 50.5113 52.1093 51.2081 52.5429 51.8875C53.0917 52.7516 53.6473 53.6296 54.1926 54.4832C54.2841 54.6505 54.3654 54.8456 54.467 55.0163Z" fill="#29C1D8"/>
<path d="M51.9439 57.8417C51.9698 57.9268 51.9774 58.0167 51.9661 58.1051C51.9548 58.1935 51.9249 58.2783 51.8784 58.3536C51.832 58.4289 51.7702 58.4929 51.6972 58.541C51.6243 58.5892 51.542 58.6205 51.4561 58.6326C51.1333 58.6659 50.8108 58.567 50.5584 58.3574C50.3636 58.1943 50.1782 58.0198 50.0029 57.8347L47.8078 55.6153C47.675 55.488 47.5505 55.3518 47.4352 55.2077C47.276 54.9986 47.2489 54.8 47.3505 54.699C47.4521 54.5979 47.6486 54.6398 47.7976 54.6781C47.8414 54.6916 47.8835 54.7103 47.923 54.7338C49.1374 55.383 50.2947 56.1396 51.3816 56.9951C51.6389 57.2208 51.8331 57.5131 51.9439 57.8417Z" fill="#29C1D8"/>
<path d="M159.179 181.013C159.136 180.69 159.16 180.361 159.25 180.048C159.34 179.735 159.494 179.445 159.701 179.198C160.246 178.532 160.788 177.863 161.337 177.201C162.211 176.156 163.102 175.111 163.959 174.038C164.369 173.532 164.718 172.992 165.09 172.445C165.144 172.369 165.185 172.285 165.239 172.208C165.273 172.16 165.321 172.125 165.376 172.108C165.432 172.092 165.491 172.095 165.544 172.118C165.578 172.128 165.61 172.145 165.638 172.169C165.665 172.192 165.688 172.221 165.704 172.254C165.72 172.286 165.73 172.322 165.732 172.359C165.734 172.395 165.729 172.432 165.717 172.466C165.68 172.65 165.622 172.829 165.544 172.999C165.256 173.546 164.985 174.111 164.646 174.647C164.274 175.268 163.878 175.874 163.457 176.459C162.553 177.731 161.703 179.037 160.893 180.375C160.737 180.635 160.564 180.883 160.375 181.117C160.257 181.259 160.115 181.377 159.955 181.466C159.565 181.692 159.301 181.56 159.179 181.013Z" fill="#5B63AD"/>
<path d="M167.6 191.256C167.02 191.066 166.483 190.755 166.025 190.343C165.415 189.848 164.805 189.35 164.185 188.866C163.475 188.348 162.712 187.912 161.909 187.566C161.558 187.394 161.245 187.151 160.987 186.852C160.729 186.552 160.532 186.203 160.408 185.824C160.362 185.694 160.334 185.558 160.324 185.42C160.319 185.39 160.32 185.36 160.327 185.331C160.334 185.302 160.347 185.275 160.365 185.252C160.383 185.228 160.405 185.209 160.431 185.194C160.456 185.18 160.484 185.171 160.513 185.169C161.089 185.113 161.672 185.092 162.163 185.469C163.587 186.498 164.912 187.665 166.12 188.953C166.597 189.493 167.095 189.998 167.583 190.542C167.824 190.792 167.824 190.81 167.6 191.256Z" fill="#5B63AD"/>
<path d="M156.739 179.619C156.653 179.552 156.583 179.467 156.532 179.368C156.482 179.27 156.453 179.162 156.448 179.051C156.246 178.256 156.163 177.433 156.201 176.612C156.387 173.8 156.59 170.992 156.787 168.184C156.804 168.133 156.827 168.083 156.855 168.038C156.905 168.038 156.987 167.982 157.031 168.006C157.075 168.031 157.237 168.139 157.261 168.226C157.329 168.475 157.369 168.731 157.383 168.989C157.491 171.452 157.6 173.912 157.691 176.375C157.699 177.389 157.483 178.391 157.058 179.305C157.021 179.391 156.97 179.47 156.909 179.539C156.872 179.57 156.821 179.581 156.739 179.619Z" fill="#5B63AD"/>
<path d="M147.847 193.434C147.789 193.383 147.741 193.321 147.706 193.25C147.672 193.18 147.652 193.103 147.647 193.024C147.643 192.946 147.654 192.867 147.68 192.793C147.707 192.719 147.747 192.651 147.8 192.594C147.942 192.409 148.077 192.218 148.22 192.037L151.268 188.228C151.573 187.845 151.875 187.462 152.183 187.086C152.389 186.846 152.652 186.666 152.946 186.562C153.239 186.458 153.554 186.435 153.86 186.493C153.947 186.507 154.025 186.555 154.078 186.627C154.131 186.699 154.155 186.79 154.144 186.88C154.117 187.065 154.067 187.245 153.995 187.417C153.749 188.027 153.367 188.57 152.881 189.002C151.465 190.19 150.107 191.441 148.765 192.723C148.565 192.911 148.352 193.089 148.135 193.263C148.044 193.328 147.947 193.385 147.847 193.434Z" fill="#5B63AD"/>
<path d="M153.295 198.015C153.225 197.929 153.176 197.827 153.153 197.717C153.13 197.607 153.134 197.493 153.163 197.385C153.251 196.827 153.325 196.27 153.413 195.712C153.64 194.301 153.877 192.89 154.091 191.476C154.159 190.914 154.341 190.374 154.626 189.89C154.711 189.751 154.809 189.621 154.917 189.5C154.948 189.465 154.986 189.437 155.028 189.419C155.071 189.4 155.117 189.392 155.163 189.394C155.209 189.396 155.254 189.408 155.294 189.43C155.335 189.452 155.371 189.483 155.398 189.521C155.474 189.608 155.532 189.708 155.571 189.817C155.753 190.303 155.799 190.831 155.707 191.343C155.635 191.688 155.546 192.029 155.439 192.364C154.901 193.96 154.357 195.554 153.806 197.148C153.732 197.37 153.64 197.586 153.532 197.792C153.467 197.883 153.376 197.939 153.295 198.015Z" fill="#5B63AD"/>
<path d="M161.685 195.872C161.44 195.767 161.236 195.577 161.11 195.336C160.254 194.04 159.4 192.739 158.549 191.434C158.19 190.832 157.935 190.173 157.793 189.482C157.769 189.416 157.763 189.344 157.777 189.274C157.791 189.204 157.823 189.14 157.871 189.089C157.945 189.035 158.033 189.006 158.124 189.006C158.214 189.006 158.302 189.035 158.376 189.089C159.102 189.499 159.692 190.124 160.07 190.883C160.692 192.111 161.25 193.371 161.743 194.66C161.801 194.838 161.862 195.008 161.909 195.196C161.967 195.465 161.96 195.468 161.685 195.872Z" fill="#5B63AD"/>
<path d="M167.949 180.263C167.961 180.366 167.944 180.469 167.898 180.561C167.853 180.653 167.782 180.729 167.695 180.779C167.343 181.077 166.977 181.356 166.597 181.615C165.612 182.249 164.612 182.863 163.617 183.476C163.403 183.616 163.176 183.732 162.939 183.824C162.813 183.883 162.676 183.911 162.538 183.907C162.4 183.903 162.265 183.868 162.142 183.803C162.019 183.738 161.912 183.645 161.829 183.532C161.746 183.419 161.689 183.288 161.662 183.148C161.629 183.048 161.619 182.941 161.633 182.836C161.646 182.731 161.683 182.63 161.74 182.542C161.883 182.296 162.092 182.097 162.343 181.971C162.506 181.887 162.676 181.818 162.851 181.765C164.308 181.371 165.72 180.842 167.136 180.309C167.259 180.238 167.397 180.198 167.538 180.19C167.678 180.182 167.819 180.207 167.949 180.263Z" fill="#5B63AD"/>
<path d="M145.178 187.51C145.128 187.435 145.085 187.354 145.049 187.27C144.955 186.921 144.985 186.824 145.239 186.681C146.381 186.04 147.519 185.392 148.671 184.772C149.256 184.49 149.917 184.419 150.547 184.57C150.635 184.593 150.716 184.635 150.788 184.692C150.821 184.723 150.848 184.761 150.866 184.803C150.769 185.164 150.598 185.498 150.364 185.785C150.131 186.071 149.839 186.302 149.511 186.462C149.382 186.511 149.251 186.554 149.118 186.59C148.352 186.82 147.583 187.054 146.811 187.287C146.288 187.477 145.732 187.553 145.178 187.51Z" fill="#5B63AD"/>
<path d="M153.467 179.016C153.498 179.501 153.395 179.984 153.169 180.41C153.148 180.459 153.115 180.502 153.073 180.534C153.031 180.566 152.983 180.587 152.931 180.595C152.879 180.603 152.827 180.598 152.778 180.58C152.729 180.561 152.685 180.53 152.651 180.49C152.38 180.269 152.176 179.973 152.065 179.636C151.577 178.244 150.991 176.89 150.313 175.584C149.937 174.804 149.605 174.006 149.253 173.215C149.235 173.173 149.224 173.128 149.219 173.083C149.199 172.982 149.351 172.842 149.443 172.888C149.549 172.926 149.645 172.989 149.724 173.072C149.91 173.309 150.063 173.56 150.242 173.814C150.679 174.511 151.109 175.208 151.543 175.888C152.092 176.752 152.647 177.63 153.193 178.483C153.284 178.65 153.365 178.846 153.467 179.016Z" fill="#5B63AD"/>
<path d="M150.944 181.842C150.97 181.927 150.977 182.017 150.966 182.105C150.955 182.193 150.925 182.278 150.878 182.354C150.832 182.429 150.77 182.493 150.697 182.541C150.624 182.589 150.542 182.62 150.456 182.633C150.133 182.666 149.811 182.567 149.558 182.357C149.364 182.194 149.178 182.02 149.003 181.835L146.808 179.615C146.675 179.488 146.551 179.352 146.435 179.208C146.276 178.999 146.249 178.8 146.35 178.699C146.452 178.598 146.649 178.64 146.798 178.678C146.841 178.692 146.883 178.71 146.923 178.734C148.137 179.383 149.295 180.14 150.382 180.995C150.639 181.221 150.833 181.513 150.944 181.842Z" fill="#5B63AD"/>
<defs>
<clipPath id="clip0_4002_7321">
<rect width="86" height="86" fill="white" transform="translate(189.753 74) rotate(13.9644)"/>
</clipPath>
<clipPath id="clip1_4002_7321">
<rect width="72.1622" height="72.1622" fill="white" transform="translate(20 132.081) rotate(-30)"/>
</clipPath>
</defs>
</svg>
