<svg width="156" height="156" viewBox="0 0 156 156" fill="none" xmlns="http://www.w3.org/2000/svg">
<path d="M84.1932 0L84.0557 2.16677L83.9834 2.15953L84.1932 0Z" fill="#EBEBEB"/>
<path d="M83.7698 6.50747L83.4768 10.8446L83.1621 10.8193L83.5672 6.48938L83.7698 6.50747Z" fill="#EBEBEB"/>
<path d="M83.18 15.1818L82.8834 19.5189L82.3589 19.4791L82.7604 15.1492L83.18 15.1818Z" fill="#EBEBEB"/>
<path d="M82.569 23.8562L82.2542 28.1933L81.5923 28.1391L81.9721 23.8091L82.569 23.8562Z" fill="#EBEBEB"/>
<path d="M81.9388 32.5305L81.6205 36.864L80.8247 36.8025L81.2081 32.469L81.9388 32.5305Z" fill="#EBEBEB"/>
<path d="M81.3062 41.2011L80.9842 45.5383L80.0654 45.4623L80.4452 41.1324L81.3062 41.2011Z" fill="#EBEBEB"/>
<path d="M80.6448 49.8717L80.3084 54.2053L79.3462 54.1293L79.7079 49.7958L80.6448 49.8717Z" fill="#EBEBEB"/>
<path d="M79.968 58.5425L79.6316 62.8761L78.626 62.7965L78.9877 58.463L79.968 58.5425Z" fill="#EBEBEB"/>
<path d="M79.2912 67.2096L78.9548 71.5468L77.9058 71.4599L78.2675 67.1264L79.2912 67.2096Z" fill="#EBEBEB"/>
<path d="M78.6148 75.8803L78.4448 78.0434H77.3668L77.1968 75.8803L78.2675 75.7935L78.4448 77.9566H77.3668L77.544 75.7935L78.6148 75.8803Z" fill="#EBEBEB"/>
<path d="M76.8569 71.5468L76.5205 67.2096L77.5478 67.1264L77.9059 71.4599L76.8569 71.5468Z" fill="#EBEBEB"/>
<path d="M76.1813 62.8761L75.8413 58.5425L76.8288 58.463L77.1869 62.7965L76.1813 62.8761Z" fill="#EBEBEB"/>
<path d="M75.5039 54.2053L75.1675 49.8717L76.108 49.7958L76.4661 54.1293L75.5039 54.2053Z" fill="#EBEBEB"/>
<path d="M74.8283 45.5383L74.5063 41.2011L75.3709 41.1324L75.7471 45.4623L74.8283 45.5383Z" fill="#EBEBEB"/>
<path d="M74.1873 36.864L73.8726 32.5305L74.6069 32.469L74.9867 36.8025L74.1873 36.864Z" fill="#EBEBEB"/>
<path d="M73.5576 28.1933L73.2393 23.8562L73.8397 23.8091L74.2232 28.1391L73.5576 28.1933Z" fill="#EBEBEB"/>
<path d="M72.9258 19.5189L72.6328 15.1818L73.0524 15.1492L73.4576 19.4791L72.9258 19.5189Z" fill="#EBEBEB"/>
<path d="M72.3355 10.8446L72.0425 6.50747L72.2451 6.48938L72.6502 10.8193L72.3355 10.8446Z" fill="#EBEBEB"/>
<path d="M71.7566 2.16677L71.6191 0L71.8326 2.15953L71.7566 2.16677Z" fill="#EBEBEB"/>
<path d="M57.1353 2.55383L57.7466 4.6374L57.6779 4.65549L57.1353 2.55383Z" fill="#EBEBEB"/>
<path d="M58.9656 8.81171L60.1701 12.9897L59.8699 13.0729L58.7666 8.86597L58.9656 8.81171Z" fill="#EBEBEB"/>
<path d="M61.3785 17.1677L62.583 21.3457L62.073 21.4832L60.9697 17.2799L61.3785 17.1677Z" fill="#EBEBEB"/>
<path d="M63.7692 25.5273L64.9557 29.709L64.3154 29.8862L63.1904 25.6865L63.7692 25.5273Z" fill="#EBEBEB"/>
<path d="M66.1429 33.8905L67.3294 38.0757L66.5589 38.2892L65.4375 34.0858L66.1429 33.8905Z" fill="#EBEBEB"/>
<path d="M68.5148 42.2574L69.694 46.4426L68.8078 46.6886L67.6792 42.4889L68.5148 42.2574Z" fill="#EBEBEB"/>
<path d="M70.8601 50.6315L72.0249 54.8203L71.0952 55.0771L69.9521 50.8811L70.8601 50.6315Z" fill="#EBEBEB"/>
<path d="M73.1887 59.0092L74.3534 63.198L73.3804 63.4657L72.2373 59.2696L73.1887 59.0092Z" fill="#EBEBEB"/>
<path d="M75.518 67.3868L76.6828 71.5756L75.6699 71.8542L74.5269 67.6617L75.518 67.3868Z" fill="#EBEBEB"/>
<path d="M77.8485 75.7645L78.4272 77.8553L77.4144 78.2242L76.5137 76.2492L77.4903 75.8043L78.3983 77.7757L77.3854 78.1446L76.8139 76.0502L77.8485 75.7645Z" fill="#EBEBEB"/>
<path d="M74.7119 72.2918L72.9141 68.3345L73.8509 67.9077L75.6705 71.8541L74.7119 72.2918Z" fill="#EBEBEB"/>
<path d="M71.1129 64.3773L69.3115 60.42L70.2086 60.0112L72.0317 63.9577L71.1129 64.3773Z" fill="#EBEBEB"/>
<path d="M67.5097 56.4626L65.7119 52.5052L66.5692 52.1146L68.3887 56.061L67.5097 56.4626Z" fill="#EBEBEB"/>
<path d="M63.9105 48.5479L62.1235 44.5833L62.9121 44.2216L64.7497 48.1644L63.9105 48.5479Z" fill="#EBEBEB"/>
<path d="M60.3447 40.6188L58.5649 36.6506L59.2341 36.3431L61.0754 40.2824L60.3447 40.6188Z" fill="#EBEBEB"/>
<path d="M56.7846 32.6824L55.0049 28.7178L55.5511 28.4682L57.3923 32.4074L56.7846 32.6824Z" fill="#EBEBEB"/>
<path d="M53.225 24.7497L51.4634 20.7742L51.8504 20.597L53.7097 24.529L53.225 24.7497Z" fill="#EBEBEB"/>
<path d="M49.7021 16.7987L47.9404 12.8233L48.1285 12.7365L49.9878 16.6685L49.7021 16.7987Z" fill="#EBEBEB"/>
<path d="M46.1931 8.84426L45.3213 6.85474L46.2582 8.8117L46.1931 8.84426Z" fill="#EBEBEB"/>
<path d="M32.5845 14.2088L33.8722 15.956L33.8107 15.9994L32.5845 14.2088Z" fill="#EBEBEB"/>
<path d="M36.4444 19.4611L39.0055 22.9771L38.7487 23.158L36.2744 19.5805L36.4444 19.4611Z" fill="#EBEBEB"/>
<path d="M41.5663 26.4896L44.131 30.002L43.6969 30.3094L41.2227 26.7319L41.5663 26.4896Z" fill="#EBEBEB"/>
<path d="M46.6785 33.5252L49.2214 37.0521L48.6788 37.4355L46.1865 33.8725L46.6785 33.5252Z" fill="#EBEBEB"/>
<path d="M51.7673 40.5753L54.3102 44.1022L53.6591 44.5616L51.1704 40.9985L51.7673 40.5753Z" fill="#EBEBEB"/>
<path d="M56.8572 47.6255L59.3966 51.1524L58.6478 51.6877L56.1519 48.1247L56.8572 47.6255Z" fill="#EBEBEB"/>
<path d="M61.9246 54.6937L64.4531 58.2314L63.6645 58.7885L61.1577 55.2363L61.9246 54.6937Z" fill="#EBEBEB"/>
<path d="M66.9783 61.7691L69.5068 65.3068L68.6857 65.8892L66.1753 62.3406L66.9783 61.7691Z" fill="#EBEBEB"/>
<path d="M72.0316 68.8446L74.5601 72.3823L73.7028 72.99L71.1924 69.4415L72.0316 68.8446Z" fill="#EBEBEB"/>
<path d="M77.0847 75.92L78.3471 77.6853L77.5188 78.3798L75.9995 76.8316L76.7628 76.0792L78.2929 77.6202L77.4645 78.3147L76.2129 76.5422L77.0847 75.92Z" fill="#EBEBEB"/>
<path d="M72.954 73.7279L69.9082 70.6279L70.6425 69.9008L73.7028 72.99L72.954 73.7279Z" fill="#EBEBEB"/>
<path d="M66.8627 67.5242L63.8169 64.4206L64.5223 63.7261L67.5825 66.8153L66.8627 67.5242Z" fill="#EBEBEB"/>
<path d="M60.7707 61.317L57.7285 58.2134L58.3977 57.5514L61.458 60.6406L60.7707 61.317Z" fill="#EBEBEB"/>
<path d="M54.6834 55.1097L51.6484 51.9988L52.267 51.3875L55.3381 54.4658L54.6834 55.1097Z" fill="#EBEBEB"/>
<path d="M48.6166 48.8771L45.5889 45.759L46.1098 45.2453L49.1881 48.3164L48.6166 48.8771Z" fill="#EBEBEB"/>
<path d="M42.558 42.6408L39.5303 39.5227L39.9571 39.0995L43.0354 42.1706L42.558 42.6408Z" fill="#EBEBEB"/>
<path d="M36.5022 36.4009L33.4854 33.2684L33.7892 32.9717L36.8784 36.0284L36.5022 36.4009Z" fill="#EBEBEB"/>
<path d="M30.4727 30.1357L27.4595 27.0031L27.6042 26.8585L30.697 29.9151L30.4727 30.1357Z" fill="#EBEBEB"/>
<path d="M24.4528 23.8598L22.9517 22.2899L24.5035 23.8091L24.4528 23.8598Z" fill="#EBEBEB"/>
<path d="M13.5 33.5578L15.305 34.7587L15.2652 34.8202L13.5 33.5578Z" fill="#EBEBEB"/>
<path d="M18.9229 37.1751L22.533 39.5987L22.3557 39.8555L18.8071 37.3415L18.9229 37.1751Z" fill="#EBEBEB"/>
<path d="M26.1427 42.0223L29.7492 44.4495L29.449 44.8836L25.9004 42.3695L26.1427 42.0223Z" fill="#EBEBEB"/>
<path d="M33.3483 46.8876L36.9476 49.3329L36.5677 49.8791L33.0083 47.3831L33.3483 46.8876Z" fill="#EBEBEB"/>
<path d="M40.5429 51.7745L44.1422 54.2162L43.6864 54.871L40.127 52.375L40.5429 51.7745Z" fill="#EBEBEB"/>
<path d="M47.738 56.6578L51.3336 59.1031L50.8091 59.8592L47.2461 57.3668L47.738 56.6578Z" fill="#EBEBEB"/>
<path d="M54.9182 61.5629L58.4993 64.0227L57.9531 64.8185L54.3828 62.3407L54.9182 61.5629Z" fill="#EBEBEB"/>
<path d="M62.0839 66.4825L65.6723 68.9459L65.0971 69.7742L61.5269 67.2964L62.0839 66.4825Z" fill="#EBEBEB"/>
<path d="M69.2579 71.4056L72.839 73.8654L72.2422 74.7299L68.6719 72.2521L69.2579 71.4056Z" fill="#EBEBEB"/>
<path d="M76.4229 76.3252L78.2134 77.5551L77.6744 78.4883L75.7139 77.5551L76.1769 76.582L78.1375 77.5117L77.5985 78.4449L75.8152 77.2078L76.4229 76.3252Z" fill="#EBEBEB"/>
<path d="M71.7929 75.6813L67.8682 73.8075L68.3095 72.8743L72.2451 74.7299L71.7929 75.6813Z" fill="#EBEBEB"/>
<path d="M63.9472 71.9338L60.0225 70.0564L60.4457 69.1666L64.3777 71.0186L63.9472 71.9338Z" fill="#EBEBEB"/>
<path d="M56.1015 68.1826L52.1768 66.3088L52.5819 65.4551L56.5139 67.3108L56.1015 68.1826Z" fill="#EBEBEB"/>
<path d="M48.2554 64.4351L44.3379 62.5469L44.7105 61.7619L48.6497 63.6031L48.2554 64.4351Z" fill="#EBEBEB"/>
<path d="M40.4237 60.6514L36.5098 58.7596L36.8245 58.094L40.7673 59.928L40.4237 60.6514Z" fill="#EBEBEB"/>
<path d="M32.5956 56.8641L28.6816 54.9686L28.9421 54.426L32.885 56.26L32.5956 56.8641Z" fill="#EBEBEB"/>
<path d="M24.7714 53.0732L20.8647 51.1596L21.0492 50.7762L24.9993 52.5921L24.7714 53.0732Z" fill="#EBEBEB"/>
<path d="M16.9617 49.246L13.0586 47.3324L13.1454 47.1479L17.0955 48.9602L16.9617 49.246Z" fill="#EBEBEB"/>
<path d="M9.159 45.4081L7.21289 44.4459L9.18794 45.343L9.159 45.4081Z" fill="#EBEBEB"/>
<path d="M2.18115 58.2639L4.29366 58.7775L4.27557 58.8462L2.18115 58.2639Z" fill="#EBEBEB"/>
<path d="M8.51597 59.8085L12.7374 60.8539L12.6578 61.1578L8.46533 60.0075L8.51597 59.8085Z" fill="#EBEBEB"/>
<path d="M16.9584 61.8994L21.1798 62.9411L21.046 63.4548L16.8535 62.3045L16.9584 61.8994Z" fill="#EBEBEB"/>
<path d="M25.3934 64.0046L29.6112 65.0681L29.4412 65.712L25.2451 64.5834L25.3934 64.0046Z" fill="#EBEBEB"/>
<path d="M33.8266 66.1353L38.0407 67.1987L37.8418 67.9692L33.6421 66.8406L33.8266 66.1353Z" fill="#EBEBEB"/>
<path d="M42.2576 68.2622L46.4717 69.3329L46.2402 70.2228L42.0405 69.0978L42.2576 68.2622Z" fill="#EBEBEB"/>
<path d="M50.6821 70.4182L54.8926 71.5034L54.6467 72.4367L50.4434 71.3298L50.6821 70.4182Z" fill="#EBEBEB"/>
<path d="M59.1 72.5886L63.3105 73.6774L63.0573 74.6504L58.854 73.5435L59.1 72.5886Z" fill="#EBEBEB"/>
<path d="M67.5207 74.7626L71.7312 75.8478L71.4672 76.8642L67.2603 75.7573L67.5207 74.7626Z" fill="#EBEBEB"/>
<path d="M75.9417 76.9329L78.0434 77.4755L77.8553 78.5389L75.6957 78.3328L75.797 77.262L77.9565 77.461L77.7684 78.5245L75.6704 77.971L75.9417 76.9329Z" fill="#EBEBEB"/>
<path d="M71.3663 77.9132L67.04 77.4936L67.1377 76.4663L71.4676 76.8642L71.3663 77.9132Z" fill="#EBEBEB"/>
<path d="M62.7127 77.074L58.3828 76.6544L58.4769 75.6705L62.8068 76.0684L62.7127 77.074Z" fill="#EBEBEB"/>
<path d="M54.0568 76.2348L49.7305 75.8152L49.8173 74.8747L54.1472 75.2726L54.0568 76.2348Z" fill="#EBEBEB"/>
<path d="M45.4008 75.3956L41.0781 74.9579L41.1577 74.097L45.4876 74.4768L45.4008 75.3956Z" fill="#EBEBEB"/>
<path d="M36.7516 74.5165L32.4253 74.0752L32.494 73.3445L36.8276 73.7207L36.7516 74.5165Z" fill="#EBEBEB"/>
<path d="M28.099 73.6339L23.7764 73.1926L23.8306 72.5922L28.1642 72.9684L28.099 73.6339Z" fill="#EBEBEB"/>
<path d="M19.4506 72.7476L15.1279 72.2882L15.1677 71.865L19.5013 72.2195L19.4506 72.7476Z" fill="#EBEBEB"/>
<path d="M10.8048 71.8251L6.47852 71.3621L6.50022 71.1559L10.8338 71.5104L10.8048 71.8251Z" fill="#EBEBEB"/>
<path d="M2.15591 70.8848L0 70.6461L2.16315 70.8125L2.15591 70.8848Z" fill="#EBEBEB"/>
<path d="M0 85.354L2.15591 85.1152L2.16315 85.1876L0 85.354Z" fill="#EBEBEB"/>
<path d="M6.47852 84.6377L10.8048 84.1783L10.8338 84.4894L6.50022 84.8439L6.47852 84.6377Z" fill="#EBEBEB"/>
<path d="M15.1279 83.7153L19.4506 83.2523L19.5013 83.7804L15.1677 84.1349L15.1279 83.7153Z" fill="#EBEBEB"/>
<path d="M23.7764 82.8074L28.099 82.3661L28.1642 83.0317L23.8306 83.4043L23.7764 82.8074Z" fill="#EBEBEB"/>
<path d="M32.4253 81.9248L36.7516 81.4835L36.8276 82.2793L32.494 82.6555L32.4253 81.9248Z" fill="#EBEBEB"/>
<path d="M41.0781 81.0422L45.4044 80.6045L45.4876 81.5233L41.1577 81.9031L41.0781 81.0422Z" fill="#EBEBEB"/>
<path d="M49.7305 80.1849L54.0568 79.7653L54.1472 80.7275L49.8173 81.1254L49.7305 80.1849Z" fill="#EBEBEB"/>
<path d="M58.3828 79.3492L62.7127 78.9296L62.8068 79.9316L58.4769 80.3295L58.3828 79.3492Z" fill="#EBEBEB"/>
<path d="M67.04 78.5101L71.3663 78.0905L71.4676 79.1359L67.1377 79.5338L67.04 78.5101Z" fill="#EBEBEB"/>
<path d="M75.6957 77.6709L77.8553 77.4611L78.0434 78.5245L75.9417 79.0671L75.6704 78.0254L77.7684 77.4755L77.9565 78.539L75.797 78.738L75.6957 77.6709Z" fill="#EBEBEB"/>
<path d="M71.7312 80.1523L67.5207 81.2412L67.2603 80.2428L71.4672 79.1323L71.7312 80.1523Z" fill="#EBEBEB"/>
<path d="M63.3105 82.3263L59.1 83.4115L58.854 82.4566L63.0573 81.3497L63.3105 82.3263Z" fill="#EBEBEB"/>
<path d="M54.8926 84.4967L50.6821 85.5819L50.4434 84.6704L54.6467 83.5635L54.8926 84.4967Z" fill="#EBEBEB"/>
<path d="M46.4714 86.6671L42.2573 87.7378L42.0366 86.8986L46.2399 85.7772L46.4714 86.6671Z" fill="#EBEBEB"/>
<path d="M38.0444 88.805L33.8266 89.8685L33.6421 89.1559L37.8418 88.0273L38.0444 88.805Z" fill="#EBEBEB"/>
<path d="M29.6112 90.9319L25.3934 91.9954L25.2451 91.413L29.4412 90.2844L29.6112 90.9319Z" fill="#EBEBEB"/>
<path d="M21.1798 93.0589L16.9584 94.1043L16.8535 93.6919L21.046 92.5452L21.1798 93.0589Z" fill="#EBEBEB"/>
<path d="M12.7374 95.146L8.51597 96.1914L8.46533 95.9925L12.6578 94.8422L12.7374 95.146Z" fill="#EBEBEB"/>
<path d="M4.29366 97.2224L2.18115 97.7361L4.27557 97.1537L4.29366 97.2224Z" fill="#EBEBEB"/>
<path d="M7.21289 111.554L9.159 110.592L9.18794 110.657L7.21289 111.554Z" fill="#EBEBEB"/>
<path d="M13.0586 108.668L16.9617 106.754L17.0955 107.036L13.1454 108.852L13.0586 108.668Z" fill="#EBEBEB"/>
<path d="M20.8687 104.84L24.7717 102.931L24.9996 103.408L21.0495 105.22L20.8687 104.84Z" fill="#EBEBEB"/>
<path d="M28.686 101.031L32.6 99.1395L32.8821 99.74L28.9429 101.574L28.686 101.031Z" fill="#EBEBEB"/>
<path d="M36.5098 97.244L40.4237 95.3486L40.7673 96.072L36.8245 97.906L36.5098 97.244Z" fill="#EBEBEB"/>
<path d="M44.3379 93.4569L48.2554 91.565L48.6497 92.397L44.7105 94.2346L44.3379 93.4569Z" fill="#EBEBEB"/>
<path d="M52.1768 89.6912L56.1015 87.8174L56.5139 88.6892L52.5819 90.5413L52.1768 89.6912Z" fill="#EBEBEB"/>
<path d="M60.0225 85.9436L63.9472 84.0699L64.3777 84.9778L60.4457 86.8335L60.0225 85.9436Z" fill="#EBEBEB"/>
<path d="M67.8682 82.196L71.7929 80.3186L72.2415 81.27L68.3095 83.1256L67.8682 82.196Z" fill="#EBEBEB"/>
<path d="M75.7139 78.445L77.6744 77.5117L78.2134 78.445L76.4265 79.6749L75.8152 78.7886L77.5985 77.5551L78.1375 78.4884L76.1769 79.4144L75.7139 78.445Z" fill="#EBEBEB"/>
<path d="M72.8426 82.1346L69.2579 84.5944L68.6719 83.7479L72.2422 81.2701L72.8426 82.1346Z" fill="#EBEBEB"/>
<path d="M65.6723 87.0578L62.0875 89.5175L61.5269 88.7036L65.0971 86.2258L65.6723 87.0578Z" fill="#EBEBEB"/>
<path d="M58.5029 91.9773L54.9182 94.4371L54.3828 93.6594L57.9531 91.1815L58.5029 91.9773Z" fill="#EBEBEB"/>
<path d="M51.3336 96.8968L47.738 99.3457L47.2461 98.6295L50.8091 96.1371L51.3336 96.8968Z" fill="#EBEBEB"/>
<path d="M44.1422 101.787L40.5429 104.229L40.127 103.621L43.6864 101.125L44.1422 101.787Z" fill="#EBEBEB"/>
<path d="M36.9476 106.671L33.3483 109.112L33.0083 108.617L36.5677 106.121L36.9476 106.671Z" fill="#EBEBEB"/>
<path d="M29.7528 111.554L26.1427 113.978L25.9004 113.631L29.449 111.117L29.7528 111.554Z" fill="#EBEBEB"/>
<path d="M22.533 116.401L18.9229 118.825L18.8071 118.655L22.3557 116.141L22.533 116.401Z" fill="#EBEBEB"/>
<path d="M15.305 121.241L13.5 122.442L15.2652 121.18L15.305 121.241Z" fill="#EBEBEB"/>
<path d="M22.9517 133.71L24.4528 132.14L24.5035 132.191L22.9517 133.71Z" fill="#EBEBEB"/>
<path d="M27.4595 128.997L30.4727 125.864L30.697 126.085L27.6042 129.141L27.4595 128.997Z" fill="#EBEBEB"/>
<path d="M33.4897 122.732L36.503 119.599L36.8792 119.968L33.7864 123.028L33.4897 122.732Z" fill="#EBEBEB"/>
<path d="M39.5303 116.477L42.5616 113.359L43.0354 113.826L39.9571 116.901L39.5303 116.477Z" fill="#EBEBEB"/>
<path d="M45.5889 110.241L48.6202 107.123L49.1881 107.684L46.1098 110.755L45.5889 110.241Z" fill="#EBEBEB"/>
<path d="M51.6484 104.005L54.6834 100.89L55.3381 101.534L52.2634 104.613L51.6484 104.005Z" fill="#EBEBEB"/>
<path d="M57.7285 97.7866L60.7707 94.683L61.458 95.3594L58.3977 98.4486L57.7285 97.7866Z" fill="#EBEBEB"/>
<path d="M63.8208 91.5794L66.863 88.4757L67.5828 89.1847L64.5226 92.2739L63.8208 91.5794Z" fill="#EBEBEB"/>
<path d="M69.9082 85.3758L72.954 82.2721L73.7028 83.01L70.6425 86.0956L69.9082 85.3758Z" fill="#EBEBEB"/>
<path d="M75.9995 79.1684L77.5188 77.6202L78.3471 78.3147L77.0883 80.0799L76.2093 79.4578L77.4645 77.6853L78.2929 78.3798L76.7628 79.9208L75.9995 79.1684Z" fill="#EBEBEB"/>
<path d="M74.5601 83.6177L72.0316 87.1554L71.1924 86.5585L73.7028 83.0099L74.5601 83.6177Z" fill="#EBEBEB"/>
<path d="M69.5068 90.693L66.9783 94.2344L66.1753 93.6592L68.6821 90.1107L69.5068 90.693Z" fill="#EBEBEB"/>
<path d="M64.4538 97.7686L61.9253 101.31L61.1548 100.764L63.6652 97.2115L64.4538 97.7686Z" fill="#EBEBEB"/>
<path d="M59.4002 104.848L56.8572 108.374L56.1519 107.872L58.6478 104.312L59.4002 104.848Z" fill="#EBEBEB"/>
<path d="M54.314 111.901L51.7675 115.425L51.167 114.998L53.6593 111.435L54.314 111.901Z" fill="#EBEBEB"/>
<path d="M49.2251 118.952L46.6785 122.475L46.1865 122.128L48.6788 118.561L49.2251 118.952Z" fill="#EBEBEB"/>
<path d="M44.131 125.998L41.5663 129.51L41.2227 129.268L43.6969 125.691L44.131 125.998Z" fill="#EBEBEB"/>
<path d="M39.0055 133.027L36.4444 136.539L36.2744 136.42L38.7487 132.842L39.0055 133.027Z" fill="#EBEBEB"/>
<path d="M33.8722 140.044L32.5845 141.791L33.8107 140.001L33.8722 140.044Z" fill="#EBEBEB"/>
<path d="M45.3213 149.145L46.1931 147.156L46.2582 147.188L45.3213 149.145Z" fill="#EBEBEB"/>
<path d="M47.9438 143.177L49.7055 139.201L49.9876 139.331L48.1283 143.263L47.9438 143.177Z" fill="#EBEBEB"/>
<path d="M51.4673 135.226L53.2253 131.25L53.7064 131.471L51.8471 135.403L51.4673 135.226Z" fill="#EBEBEB"/>
<path d="M55.0049 127.282L56.7846 123.318L57.3923 123.593L55.5511 127.532L55.0049 127.282Z" fill="#EBEBEB"/>
<path d="M58.5649 119.349L60.3483 115.385L61.0717 115.714L59.2305 119.653L58.5649 119.349Z" fill="#EBEBEB"/>
<path d="M62.1274 111.417L63.9108 107.452L64.7464 107.836L62.9124 111.775L62.1274 111.417Z" fill="#EBEBEB"/>
<path d="M65.7119 103.495L67.5133 99.5375L68.3887 99.939L66.5692 103.885L65.7119 103.495Z" fill="#EBEBEB"/>
<path d="M69.3115 95.5801L71.1129 91.6227L72.0281 92.0424L70.2086 95.9888L69.3115 95.5801Z" fill="#EBEBEB"/>
<path d="M72.9141 87.6655L74.7155 83.7081L75.6705 84.1458L73.8509 88.0923L72.9141 87.6655Z" fill="#EBEBEB"/>
<path d="M76.5137 79.7508L77.4144 77.7758L78.4272 78.1447L77.8485 80.2355L76.8103 79.9498L77.3854 77.8553L78.3983 78.2243L77.4903 80.1957L76.5137 79.7508Z" fill="#EBEBEB"/>
<path d="M76.6835 84.4244L75.5187 88.6132L74.5239 88.3383L75.667 84.1459L76.6835 84.4244Z" fill="#EBEBEB"/>
<path d="M74.3534 92.8019L73.1887 96.9908L72.2373 96.7267L73.3804 92.5342L74.3534 92.8019Z" fill="#EBEBEB"/>
<path d="M72.0249 101.18L70.8601 105.369L69.9521 105.119L71.0952 100.923L72.0249 101.18Z" fill="#EBEBEB"/>
<path d="M69.694 109.557L68.5148 113.743L67.6792 113.511L68.8078 109.311L69.694 109.557Z" fill="#EBEBEB"/>
<path d="M67.3294 117.924L66.1465 122.109L65.4375 121.914L66.5589 117.711L67.3294 117.924Z" fill="#EBEBEB"/>
<path d="M64.9593 126.291L63.7728 130.473L63.1904 130.314L64.3118 126.114L64.9593 126.291Z" fill="#EBEBEB"/>
<path d="M62.583 134.658L61.3785 138.832L60.9697 138.72L62.0694 134.517L62.583 134.658Z" fill="#EBEBEB"/>
<path d="M60.1701 143.01L58.9656 147.188L58.7666 147.134L59.8663 142.927L60.1701 143.01Z" fill="#EBEBEB"/>
<path d="M57.7466 151.363L57.1353 153.446L57.6779 151.344L57.7466 151.363Z" fill="#EBEBEB"/>
<path d="M71.6191 156L71.7566 153.833L71.8289 153.84L71.6191 156Z" fill="#EBEBEB"/>
<path d="M72.0425 149.492L72.3355 145.155L72.6502 145.181L72.2451 149.511L72.0425 149.492Z" fill="#EBEBEB"/>
<path d="M72.6328 140.818L72.9294 136.481L73.4539 136.524L73.0524 140.851L72.6328 140.818Z" fill="#EBEBEB"/>
<path d="M73.2393 132.144L73.5576 127.807L74.2195 127.861L73.8397 132.191L73.2393 132.144Z" fill="#EBEBEB"/>
<path d="M73.8726 123.47L74.1909 119.136L74.9867 119.198L74.6033 123.531L73.8726 123.47Z" fill="#EBEBEB"/>
<path d="M74.5063 114.799L74.8283 110.462L75.7471 110.538L75.3673 114.868L74.5063 114.799Z" fill="#EBEBEB"/>
<path d="M75.1675 106.128L75.5039 101.795L76.4661 101.871L76.1044 106.204L75.1675 106.128Z" fill="#EBEBEB"/>
<path d="M75.8438 97.4574L76.1802 93.1239L77.1858 93.2035L76.824 97.537L75.8438 97.4574Z" fill="#EBEBEB"/>
<path d="M76.5205 88.7905L76.8569 84.4533L77.9059 84.5401L77.5442 88.8737L76.5205 88.7905Z" fill="#EBEBEB"/>
<path d="M77.1968 80.1198L77.3668 77.9566H78.4448L78.6148 80.1198L77.544 80.2066L77.3668 78.0434H78.4448L78.2675 80.2066L77.1968 80.1198Z" fill="#EBEBEB"/>
<path d="M78.9548 84.4533L79.2912 88.7905L78.2639 88.8737L77.9058 84.5401L78.9548 84.4533Z" fill="#EBEBEB"/>
<path d="M79.6316 93.1239L79.9716 97.4574L78.9841 97.537L78.626 93.2035L79.6316 93.1239Z" fill="#EBEBEB"/>
<path d="M80.3084 101.795L80.6448 106.128L79.7043 106.204L79.3462 101.871L80.3084 101.795Z" fill="#EBEBEB"/>
<path d="M80.9842 110.462L81.3062 114.799L80.4416 114.868L80.0654 110.538L80.9842 110.462Z" fill="#EBEBEB"/>
<path d="M81.6241 119.132L81.9388 123.47L81.2045 123.531L80.8247 119.198L81.6241 119.132Z" fill="#EBEBEB"/>
<path d="M82.2545 127.807L82.5728 132.144L81.9723 132.191L81.5889 127.861L82.2545 127.807Z" fill="#EBEBEB"/>
<path d="M82.8872 136.481L83.1802 140.818L82.7606 140.851L82.3555 136.524L82.8872 136.481Z" fill="#EBEBEB"/>
<path d="M83.4768 145.155L83.7698 149.492L83.5672 149.511L83.1621 145.181L83.4768 145.155Z" fill="#EBEBEB"/>
<path d="M84.0557 153.833L84.1932 156L83.9834 153.84L84.0557 153.833Z" fill="#EBEBEB"/>
<path d="M98.6768 153.446L98.0654 151.363L98.1342 151.344L98.6768 153.446Z" fill="#EBEBEB"/>
<path d="M96.8462 147.188L95.6416 143.01L95.9418 142.927L97.0451 147.134L96.8462 147.188Z" fill="#EBEBEB"/>
<path d="M94.4331 138.832L93.2285 134.658L93.7386 134.517L94.8418 138.72L94.4331 138.832Z" fill="#EBEBEB"/>
<path d="M92.0424 130.473L90.856 126.291L91.4962 126.114L92.6212 130.314L92.0424 130.473Z" fill="#EBEBEB"/>
<path d="M89.6699 122.11L88.4834 117.924L89.2539 117.714L90.3753 121.914L89.6699 122.11Z" fill="#EBEBEB"/>
<path d="M87.2969 113.743L86.1177 109.557L87.0039 109.311L88.1325 113.511L87.2969 113.743Z" fill="#EBEBEB"/>
<path d="M84.9529 105.369L83.7881 101.18L84.7177 100.923L85.8608 105.119L84.9529 105.369Z" fill="#EBEBEB"/>
<path d="M82.6228 96.9908L81.458 92.8019L82.4311 92.5342L83.5741 96.7303L82.6228 96.9908Z" fill="#EBEBEB"/>
<path d="M80.2932 88.6132L79.1284 84.4244L80.1413 84.1459L81.288 88.3383L80.2932 88.6132Z" fill="#EBEBEB"/>
<path d="M77.9635 80.2355L77.3848 78.1447L78.3976 77.7758L79.2983 79.7508L78.3216 80.1957L77.4137 78.2243L78.4266 77.8553L78.9981 79.9498L77.9635 80.2355Z" fill="#EBEBEB"/>
<path d="M81.1002 83.7081L82.898 87.6655L81.9611 88.0923L80.1416 84.1458L81.1002 83.7081Z" fill="#EBEBEB"/>
<path d="M84.6996 91.6227L86.501 95.5801L85.6039 95.9888L83.7808 92.0424L84.6996 91.6227Z" fill="#EBEBEB"/>
<path d="M88.3023 99.5375L90.1001 103.495L89.2428 103.885L87.4233 99.939L88.3023 99.5375Z" fill="#EBEBEB"/>
<path d="M91.9017 107.452L93.6887 111.417L92.9001 111.778L91.0625 107.836L91.9017 107.452Z" fill="#EBEBEB"/>
<path d="M95.4678 115.381L97.2475 119.349L96.5783 119.653L94.7407 115.718L95.4678 115.381Z" fill="#EBEBEB"/>
<path d="M99.0276 123.314L100.807 127.282L100.261 127.532L98.4199 123.596L99.0276 123.314Z" fill="#EBEBEB"/>
<path d="M102.587 131.25L104.348 135.226L103.961 135.403L102.102 131.471L102.587 131.25Z" fill="#EBEBEB"/>
<path d="M106.11 139.201L107.868 143.177L107.684 143.263L105.824 139.331L106.11 139.201Z" fill="#EBEBEB"/>
<path d="M109.619 147.156L110.491 149.145L109.554 147.188L109.619 147.156Z" fill="#EBEBEB"/>
<path d="M123.228 141.791L121.94 140.044L122.001 140.001L123.228 141.791Z" fill="#EBEBEB"/>
<path d="M119.367 136.539L116.806 133.023L117.063 132.842L119.537 136.42L119.367 136.539Z" fill="#EBEBEB"/>
<path d="M114.246 129.51L111.685 125.998L112.115 125.691L114.589 129.268L114.246 129.51Z" fill="#EBEBEB"/>
<path d="M109.134 122.475L106.591 118.948L107.133 118.565L109.626 122.128L109.134 122.475Z" fill="#EBEBEB"/>
<path d="M104.045 115.425L101.502 111.898L102.149 111.438L104.642 115.001L104.045 115.425Z" fill="#EBEBEB"/>
<path d="M98.9549 108.374L96.4155 104.844L97.1643 104.312L99.6603 107.872L98.9549 108.374Z" fill="#EBEBEB"/>
<path d="M93.8869 101.306L91.3584 97.7686L92.147 97.2115L94.6538 100.764L93.8869 101.306Z" fill="#EBEBEB"/>
<path d="M88.8337 94.2308L86.3052 90.693L87.1263 90.1107L89.6367 93.6628L88.8337 94.2308Z" fill="#EBEBEB"/>
<path d="M83.7804 87.1554L81.252 83.6177L82.1093 83.0099L84.6197 86.5585L83.7804 87.1554Z" fill="#EBEBEB"/>
<path d="M78.7273 80.0799L77.4648 78.3147L78.2932 77.6202L79.8125 79.1684L79.0492 79.9244L77.5191 78.3798L78.3475 77.6853L79.5991 79.4578L78.7273 80.0799Z" fill="#EBEBEB"/>
<path d="M82.8582 82.2721L85.9039 85.3721L85.1696 86.0992L82.1094 83.01L82.8582 82.2721Z" fill="#EBEBEB"/>
<path d="M88.9503 88.4757L91.9961 91.5794L91.2907 92.2739L88.2305 89.1847L88.9503 88.4757Z" fill="#EBEBEB"/>
<path d="M95.0408 94.683L98.0866 97.7866L97.4138 98.4486L94.3535 95.3594L95.0408 94.683Z" fill="#EBEBEB"/>
<path d="M101.129 100.887L104.164 104.001L103.545 104.612L100.474 101.534L101.129 100.887Z" fill="#EBEBEB"/>
<path d="M107.195 107.123L110.223 110.241L109.698 110.755L106.624 107.684L107.195 107.123Z" fill="#EBEBEB"/>
<path d="M113.254 113.359L116.282 116.477L115.855 116.901L112.777 113.829L113.254 113.359Z" fill="#EBEBEB"/>
<path d="M119.31 119.599L122.327 122.732L122.023 123.028L118.934 119.972L119.31 119.599Z" fill="#EBEBEB"/>
<path d="M125.34 125.864L128.353 128.997L128.209 129.141L125.116 126.085L125.34 125.864Z" fill="#EBEBEB"/>
<path d="M131.36 132.14L132.861 133.71L131.309 132.191L131.36 132.14Z" fill="#EBEBEB"/>
<path d="M142.313 122.442L140.508 121.241L140.548 121.18L142.313 122.442Z" fill="#EBEBEB"/>
<path d="M136.889 118.825L133.279 116.401L133.457 116.144L137.005 118.658L136.889 118.825Z" fill="#EBEBEB"/>
<path d="M129.67 113.978L126.063 111.551L126.364 111.117L129.909 113.631L129.67 113.978Z" fill="#EBEBEB"/>
<path d="M122.464 109.112L118.865 106.671L119.245 106.121L122.804 108.617L122.464 109.112Z" fill="#EBEBEB"/>
<path d="M115.269 104.225L111.674 101.784L112.126 101.129L115.685 103.625L115.269 104.225Z" fill="#EBEBEB"/>
<path d="M108.075 99.3421L104.479 96.8968L105.004 96.1371L108.567 98.6331L108.075 99.3421Z" fill="#EBEBEB"/>
<path d="M100.894 94.4371L97.3096 91.9773L97.8594 91.1815L101.43 93.6594L100.894 94.4371Z" fill="#EBEBEB"/>
<path d="M93.728 89.5139L90.1396 87.0541L90.7148 86.2258L94.2851 88.7036L93.728 89.5139Z" fill="#EBEBEB"/>
<path d="M86.5589 84.5944L82.9741 82.1346L83.571 81.2701L87.1413 83.7479L86.5589 84.5944Z" fill="#EBEBEB"/>
<path d="M79.3892 79.6749L77.5986 78.445L78.1376 77.5117L80.0982 78.445L79.6352 79.418L77.6746 78.4884L78.2136 77.5551L79.9969 78.7922L79.3892 79.6749Z" fill="#EBEBEB"/>
<path d="M84.0191 80.3186L87.9438 82.1924L87.4989 83.1256L83.5669 81.27L84.0191 80.3186Z" fill="#EBEBEB"/>
<path d="M91.865 84.0662L95.7898 85.9436L95.3666 86.8335L91.4346 84.9814L91.865 84.0662Z" fill="#EBEBEB"/>
<path d="M99.7117 87.8174L103.636 89.6912L103.231 90.5449L99.2993 88.6892L99.7117 87.8174Z" fill="#EBEBEB"/>
<path d="M107.557 91.565L111.475 93.4532L111.102 94.2382L107.163 92.397L107.557 91.565Z" fill="#EBEBEB"/>
<path d="M115.389 95.3486L119.302 97.2404L118.988 97.906L115.045 96.072L115.389 95.3486Z" fill="#EBEBEB"/>
<path d="M123.216 99.136L127.126 101.031L126.87 101.574L122.927 99.7401L123.216 99.136Z" fill="#EBEBEB"/>
<path d="M131.041 102.927L134.948 104.84L134.764 105.224L130.813 103.408L131.041 102.927Z" fill="#EBEBEB"/>
<path d="M138.851 106.754L142.754 108.668L142.667 108.856L138.717 107.04L138.851 106.754Z" fill="#EBEBEB"/>
<path d="M146.653 110.592L148.599 111.554L146.62 110.657L146.653 110.592Z" fill="#EBEBEB"/>
<path d="M153.627 97.7361L151.519 97.2224L151.537 97.1537L153.627 97.7361Z" fill="#EBEBEB"/>
<path d="M147.297 96.1914L143.075 95.146L143.155 94.8422L147.347 95.9925L147.297 96.1914Z" fill="#EBEBEB"/>
<path d="M138.854 94.1007L134.633 93.0589L134.767 92.5452L138.959 93.6955L138.854 94.1007Z" fill="#EBEBEB"/>
<path d="M130.418 91.9953L126.201 90.9318L126.371 90.288L130.567 91.4129L130.418 91.9953Z" fill="#EBEBEB"/>
<path d="M121.986 89.8684L117.769 88.8013L117.971 88.0308L122.171 89.1594L121.986 89.8684Z" fill="#EBEBEB"/>
<path d="M113.555 87.7378L109.341 86.6671L109.572 85.7772L113.772 86.9022L113.555 87.7378Z" fill="#EBEBEB"/>
<path d="M105.13 85.5819L100.919 84.4967L101.165 83.5635L105.369 84.6704L105.13 85.5819Z" fill="#EBEBEB"/>
<path d="M96.713 83.4115L92.5024 82.3263L92.7556 81.3497L96.959 82.4566L96.713 83.4115Z" fill="#EBEBEB"/>
<path d="M88.2911 81.2375L84.0806 80.1523L84.3446 79.1358L88.5516 80.2427L88.2911 81.2375Z" fill="#EBEBEB"/>
<path d="M79.8702 79.0671L77.7686 78.5245L77.9567 77.4611L80.1162 77.6672L80.0149 78.738L77.8554 78.539L78.0435 77.4755L80.1415 78.029L79.8702 79.0671Z" fill="#EBEBEB"/>
<path d="M84.4465 78.0869L88.7728 78.5065L88.6751 79.5338L84.3452 79.1359L84.4465 78.0869Z" fill="#EBEBEB"/>
<path d="M93.0989 78.926L97.4289 79.3456L97.3348 80.3295L93.0049 79.9316L93.0989 78.926Z" fill="#EBEBEB"/>
<path d="M101.755 79.7653L106.081 80.1849L105.994 81.1254L101.665 80.7275L101.755 79.7653Z" fill="#EBEBEB"/>
<path d="M110.412 80.6045L114.734 81.0422L114.655 81.9031L110.325 81.5233L110.412 80.6045Z" fill="#EBEBEB"/>
<path d="M119.06 81.4835L123.387 81.9248L123.318 82.6555L118.984 82.2793L119.06 81.4835Z" fill="#EBEBEB"/>
<path d="M127.713 82.3661L132.036 82.8074L131.981 83.4079L127.648 83.0317L127.713 82.3661Z" fill="#EBEBEB"/>
<path d="M136.362 83.2523L140.684 83.7117L140.645 84.1349L136.311 83.7804L136.362 83.2523Z" fill="#EBEBEB"/>
<path d="M145.007 84.1747L149.334 84.6378L149.312 84.8439L144.979 84.4894L145.007 84.1747Z" fill="#EBEBEB"/>
<path d="M153.656 85.1152L155.812 85.354L153.649 85.1876L153.656 85.1152Z" fill="#EBEBEB"/>
<path d="M155.812 70.6461L153.656 70.8848L153.649 70.8125L155.812 70.6461Z" fill="#EBEBEB"/>
<path d="M149.334 71.3621L145.007 71.8215L144.979 71.5104L149.312 71.1559L149.334 71.3621Z" fill="#EBEBEB"/>
<path d="M140.684 72.2846L136.362 72.7476L136.311 72.2231L140.645 71.865L140.684 72.2846Z" fill="#EBEBEB"/>
<path d="M132.036 73.1925L127.713 73.6338L127.648 72.9682L131.981 72.5956L132.036 73.1925Z" fill="#EBEBEB"/>
<path d="M123.387 74.0752L119.06 74.5165L118.984 73.7207L123.318 73.3445L123.387 74.0752Z" fill="#EBEBEB"/>
<path d="M114.734 74.9579L110.412 75.3956L110.325 74.4768L114.655 74.097L114.734 74.9579Z" fill="#EBEBEB"/>
<path d="M106.081 75.8152L101.755 76.2348L101.665 75.2726L105.994 74.8747L106.081 75.8152Z" fill="#EBEBEB"/>
<path d="M97.4289 76.6544L93.0989 77.0704L93.0049 76.0684L97.3348 75.6705L97.4289 76.6544Z" fill="#EBEBEB"/>
<path d="M88.7728 77.49L84.4465 77.9096L84.3452 76.8642L88.6751 76.4663L88.7728 77.49Z" fill="#EBEBEB"/>
<path d="M80.1162 78.3291L77.9567 78.5389L77.7686 77.4755L79.8702 76.9329L80.1415 77.9746L78.0435 78.5245L77.8554 77.461L80.0149 77.262L80.1162 78.3291Z" fill="#EBEBEB"/>
<path d="M84.0806 75.8477L88.2911 74.7589L88.5516 75.7573L84.3446 76.8678L84.0806 75.8477Z" fill="#EBEBEB"/>
<path d="M92.5024 73.6738L96.713 72.5886L96.959 73.5435L92.7556 74.6504L92.5024 73.6738Z" fill="#EBEBEB"/>
<path d="M100.919 71.5034L105.13 70.4182L105.369 71.3298L101.165 72.4367L100.919 71.5034Z" fill="#EBEBEB"/>
<path d="M109.341 69.3293L113.555 68.2622L113.772 69.1014L109.572 70.2228L109.341 69.3293Z" fill="#EBEBEB"/>
<path d="M117.769 67.195L121.986 66.1315L122.171 66.8441L117.971 67.9727L117.769 67.195Z" fill="#EBEBEB"/>
<path d="M126.201 65.0681L130.418 64.0046L130.567 64.587L126.371 65.7156L126.201 65.0681Z" fill="#EBEBEB"/>
<path d="M134.633 62.9411L138.854 61.8957L138.959 62.3081L134.767 63.4547L134.633 62.9411Z" fill="#EBEBEB"/>
<path d="M143.075 60.8539L147.297 59.8085L147.347 60.0075L143.155 61.1578L143.075 60.8539Z" fill="#EBEBEB"/>
<path d="M151.519 58.7775L153.627 58.2639L151.537 58.8462L151.519 58.7775Z" fill="#EBEBEB"/>
<path d="M148.599 44.4459L146.653 45.4081L146.62 45.343L148.599 44.4459Z" fill="#EBEBEB"/>
<path d="M142.754 47.3324L138.851 49.246L138.717 48.9638L142.667 47.1479L142.754 47.3324Z" fill="#EBEBEB"/>
<path d="M134.944 51.1596L131.041 53.0732L130.813 52.5921L134.764 50.7798L134.944 51.1596Z" fill="#EBEBEB"/>
<path d="M127.126 54.9686L123.213 56.8605L122.927 56.26L126.87 54.426L127.126 54.9686Z" fill="#EBEBEB"/>
<path d="M119.302 58.756L115.389 60.6514L115.045 59.928L118.988 58.094L119.302 58.756Z" fill="#EBEBEB"/>
<path d="M111.475 62.5433L107.557 64.4351L107.163 63.6032L111.102 61.7656L111.475 62.5433Z" fill="#EBEBEB"/>
<path d="M103.636 66.3089L99.7117 68.1827L99.2993 67.3109L103.231 65.4589L103.636 66.3089Z" fill="#EBEBEB"/>
<path d="M95.7898 70.0564L91.865 71.9302L91.4346 71.0222L95.3666 69.1666L95.7898 70.0564Z" fill="#EBEBEB"/>
<path d="M87.9438 73.8075L84.0191 75.6813L83.5669 74.7299L87.5025 72.8743L87.9438 73.8075Z" fill="#EBEBEB"/>
<path d="M80.0982 77.5551L78.1376 78.4883L77.5986 77.5551L79.3856 76.3252L79.9969 77.2114L78.2136 78.4449L77.6746 77.5117L79.6352 76.5856L80.0982 77.5551Z" fill="#EBEBEB"/>
<path d="M82.9702 73.8654L86.555 71.4056L87.141 72.2521L83.5707 74.7336L82.9702 73.8654Z" fill="#EBEBEB"/>
<path d="M90.1396 68.9459L93.7244 66.4825L94.2851 67.2964L90.7148 69.7742L90.1396 68.9459Z" fill="#EBEBEB"/>
<path d="M97.3096 64.0227L100.894 61.5629L101.433 62.3407L97.8594 64.8185L97.3096 64.0227Z" fill="#EBEBEB"/>
<path d="M104.479 59.1031L108.075 56.6542L108.567 57.3705L105.004 59.8628L104.479 59.1031Z" fill="#EBEBEB"/>
<path d="M111.67 54.2126L115.269 51.7709L115.685 52.375L112.126 54.8745L111.67 54.2126Z" fill="#EBEBEB"/>
<path d="M118.865 49.3293L122.464 46.8876L122.804 47.3831L119.245 49.8791L118.865 49.3293Z" fill="#EBEBEB"/>
<path d="M126.06 44.4459L129.67 42.0223L129.912 42.3695L126.363 44.8872L126.06 44.4459Z" fill="#EBEBEB"/>
<path d="M133.279 39.5987L136.889 37.1751L137.005 37.3451L133.457 39.8592L133.279 39.5987Z" fill="#EBEBEB"/>
<path d="M140.508 34.7587L142.313 33.5578L140.548 34.8202L140.508 34.7587Z" fill="#EBEBEB"/>
<path d="M132.861 22.2899L131.36 23.8598L131.309 23.8091L132.861 22.2899Z" fill="#EBEBEB"/>
<path d="M128.353 27.0031L125.34 30.1357L125.116 29.9151L128.209 26.8585L128.353 27.0031Z" fill="#EBEBEB"/>
<path d="M122.323 33.2684L119.31 36.4009L118.934 36.0284L122.027 32.9717L122.323 33.2684Z" fill="#EBEBEB"/>
<path d="M116.282 39.5227L113.251 42.6408L112.777 42.1742L115.855 39.0995L116.282 39.5227Z" fill="#EBEBEB"/>
<path d="M110.223 45.759L107.191 48.8771L106.624 48.3164L109.702 45.2453L110.223 45.759Z" fill="#EBEBEB"/>
<path d="M104.164 51.9951L101.129 55.1096L100.474 54.4658L103.549 51.3911L104.164 51.9951Z" fill="#EBEBEB"/>
<path d="M98.083 58.2134L95.0408 61.317L94.3535 60.6406L97.4138 57.5514L98.083 58.2134Z" fill="#EBEBEB"/>
<path d="M91.9925 64.4206L88.9503 67.5242L88.2305 66.8153L91.2907 63.7261L91.9925 64.4206Z" fill="#EBEBEB"/>
<path d="M85.9039 70.6244L82.8582 73.728L82.1094 72.9901L85.1696 69.9045L85.9039 70.6244Z" fill="#EBEBEB"/>
<path d="M79.8125 76.8316L78.2932 78.3798L77.4648 77.6853L78.7237 75.92L79.6027 76.5422L78.3475 78.3147L77.5191 77.6202L79.0492 76.0792L79.8125 76.8316Z" fill="#EBEBEB"/>
<path d="M81.252 72.3823L83.7804 68.8446L84.6197 69.4415L82.1093 72.99L81.252 72.3823Z" fill="#EBEBEB"/>
<path d="M86.3052 65.3068L88.8337 61.7691L89.6367 62.3406L87.1299 65.8892L86.3052 65.3068Z" fill="#EBEBEB"/>
<path d="M91.3584 58.2278L93.8869 54.6901L94.6574 55.2399L92.147 58.7885L91.3584 58.2278Z" fill="#EBEBEB"/>
<path d="M96.4155 51.1524L98.9549 47.6255L99.6603 48.1283L97.1643 51.6877L96.4155 51.1524Z" fill="#EBEBEB"/>
<path d="M101.499 44.0986L104.045 40.5753L104.646 41.0022L102.153 44.5652L101.499 44.0986Z" fill="#EBEBEB"/>
<path d="M106.591 37.0485L109.134 33.5252L109.626 33.8725L107.133 37.4355L106.591 37.0485Z" fill="#EBEBEB"/>
<path d="M111.681 30.002L114.242 26.4896L114.589 26.7319L112.115 30.3094L111.681 30.002Z" fill="#EBEBEB"/>
<path d="M116.806 22.9771L119.367 19.4611L119.537 19.5805L117.063 23.158L116.806 22.9771Z" fill="#EBEBEB"/>
<path d="M121.94 15.956L123.228 14.2088L122.001 15.9994L121.94 15.956Z" fill="#EBEBEB"/>
<path d="M110.491 6.85474L109.619 8.84426L109.554 8.8117L110.491 6.85474Z" fill="#EBEBEB"/>
<path d="M107.868 12.8233L106.106 16.7987L105.824 16.6685L107.684 12.7365L107.868 12.8233Z" fill="#EBEBEB"/>
<path d="M104.348 20.7742L102.587 24.7497L102.105 24.529L103.965 20.597L104.348 20.7742Z" fill="#EBEBEB"/>
<path d="M100.807 28.7178L99.0276 32.6824L98.4199 32.4074L100.261 28.4682L100.807 28.7178Z" fill="#EBEBEB"/>
<path d="M97.2475 36.6506L95.4678 40.6188L94.7407 40.286L96.5819 36.3467L97.2475 36.6506Z" fill="#EBEBEB"/>
<path d="M93.6853 44.5833L91.902 48.5478L91.0664 48.1644L92.9004 44.2252L93.6853 44.5833Z" fill="#EBEBEB"/>
<path d="M90.1001 52.5052L88.2987 56.4626L87.4233 56.061L89.2428 52.1146L90.1001 52.5052Z" fill="#EBEBEB"/>
<path d="M86.5008 60.42L84.6994 64.3773L83.7842 63.9577L85.6037 60.0112L86.5008 60.42Z" fill="#EBEBEB"/>
<path d="M82.898 68.3345L81.0966 72.2918L80.1416 71.8541L81.9611 67.9077L82.898 68.3345Z" fill="#EBEBEB"/>
<path d="M79.2983 76.2492L78.3976 78.2242L77.3848 77.8553L77.9635 75.7645L79.0017 76.0502L78.4266 78.1446L77.4137 77.7757L78.3216 75.8043L79.2983 76.2492Z" fill="#EBEBEB"/>
<path d="M79.1284 71.5756L80.2932 67.3868L81.288 67.6617L80.1449 71.8542L79.1284 71.5756Z" fill="#EBEBEB"/>
<path d="M81.458 63.198L82.6228 59.0092L83.5741 59.2696L82.4311 63.4657L81.458 63.198Z" fill="#EBEBEB"/>
<path d="M83.7881 54.8203L84.9529 50.6315L85.8608 50.8811L84.7177 55.0771L83.7881 54.8203Z" fill="#EBEBEB"/>
<path d="M86.1177 46.4426L87.2969 42.2574L88.1325 42.4889L87.0039 46.6886L86.1177 46.4426Z" fill="#EBEBEB"/>
<path d="M88.4834 38.0757L89.6663 33.8905L90.3789 34.0858L89.2539 38.2892L88.4834 38.0757Z" fill="#EBEBEB"/>
<path d="M90.8525 29.709L92.039 25.5273L92.6214 25.6865L91.5 29.8862L90.8525 29.709Z" fill="#EBEBEB"/>
<path d="M93.2285 21.3421L94.4331 17.1677L94.8418 17.2799L93.7386 21.4868L93.2285 21.3421Z" fill="#EBEBEB"/>
<path d="M95.6416 12.9897L96.8462 8.81171L97.0451 8.86597L95.9455 13.0729L95.6416 12.9897Z" fill="#EBEBEB"/>
<path d="M98.0654 4.6374L98.6768 2.55383L98.1342 4.65549L98.0654 4.6374Z" fill="#EBEBEB"/>
<path d="M2.89795 142.388C50.9539 142.167 104.859 142.164 152.915 142.388C104.859 142.609 50.9539 142.609 2.89795 142.388V142.388Z" fill="#078194"/>
<path d="M24.2578 64.9017L74.8531 73.8545L131.554 64.7172L76.9367 58.0107L24.2578 64.9017Z" fill="#5B63AD"/>
<path opacity="0.3" d="M24.2578 64.9017L74.8531 73.8545L131.554 64.7172L76.9367 58.0107L24.2578 64.9017Z" fill="black"/>
<path d="M30.7979 142.03L24.2578 64.9016L74.8531 73.8544L76.4375 151.022L30.7979 142.03Z" fill="#5B63AD"/>
<path opacity="0.1" d="M30.5401 142.03L24 64.9016L74.5953 73.8544L76.1797 151.022L30.5401 142.03Z" fill="black"/>
<path d="M45.6973 144.967L57.6995 147.329L54.8418 70.3131L40.8501 67.8389L45.6973 144.967Z" fill="#29C1D8"/>
<path d="M74.8521 73.8545L76.4364 151.023L127.506 142.392L131.553 64.7172L74.8521 73.8545Z" fill="#5B63AD"/>
<path d="M96.6508 147.604L110.491 145.267L112.18 67.8389L96.5459 70.3601L96.6508 147.604Z" fill="#29C1D8"/>
<path d="M15.4782 50.5626L68.2186 55.0408L65.3754 36.3611L11.5317 34.0424L15.4782 50.5626Z" fill="#5B63AD"/>
<path opacity="0.2" d="M15.4782 50.5626L68.2186 55.0408L65.3754 36.3611L11.5317 34.0424L15.4782 50.5626Z" fill="black"/>
<path d="M32.9461 52.0458L48.6018 53.3734L45.0785 35.4858L29.166 34.7913L32.9461 52.0458Z" fill="#29C1D8"/>
<path d="M131.258 38.781L130.7 21.0164L65.3755 36.361L68.2187 55.0408L131.258 38.781Z" fill="#5B63AD"/>
<path opacity="0.1" d="M131.258 38.781L130.7 21.0164L65.3755 36.361L68.2187 55.0408L131.258 38.781Z" fill="black"/>
<path d="M90.8775 49.1953L109.13 44.4892L108.222 26.2977L88.9893 30.8157L90.8775 49.1953Z" fill="#29C1D8"/>
<path d="M11.5317 34.0423L65.3754 36.361L130.7 21.0164L71.0654 23.0168L11.5317 34.0423Z" fill="#5B63AD"/>
<path d="M29.166 34.7912L90.2189 22.3729L103.339 21.9352L45.0785 35.4857L29.166 34.7912Z" fill="#29C1D8"/>
<path d="M88.9896 30.8157L108.223 26.2977L51.0766 26.7173L35.6597 29.575L88.9896 30.8157Z" fill="#29C1D8"/>
<path d="M47.5204 28.9745C47.5204 28.9745 34.7767 29.868 29.3326 37.4752C23.8886 45.0824 23.4328 53.0116 21.4396 55.5111C19.4465 58.0107 10.4756 60.5753 10.4756 60.5753L23.5775 74.3754C23.5775 74.3754 29.2386 74.3392 32.4363 65.8928C35.634 57.4464 34.7405 47.553 38.9474 41.5881C43.1543 35.6232 50.9569 32.2518 50.9569 32.2518L47.5204 28.9745Z" fill="#29C1D8"/>
<path d="M36.6284 46.6306C33.9643 43.5246 31.868 39.9736 30.4355 36.1404V36.1404C36.3281 29.7631 47.5201 28.9745 47.5201 28.9745L50.9529 32.2301C50.9529 32.2301 43.154 35.6015 38.9471 41.5664C37.9022 43.1162 37.1189 44.827 36.6284 46.6306V46.6306Z" fill="#03788A"/>
<path d="M80.1697 26.4497C80.1697 26.4497 91.1772 21.0599 99.9564 24.2793C108.736 27.4987 113.612 32.7475 116.668 33.6843C119.725 34.6212 128.573 31.6984 128.573 31.6984L125.509 50.4795C125.509 50.4795 120.807 53.6374 113.413 48.4574C106.019 43.2774 101.186 34.5959 94.3496 32.0348C87.5129 29.4738 79.1895 30.9931 79.1895 30.9931L80.1697 26.4497Z" fill="#29C1D8"/>
<path d="M106.554 42.3116C102.485 38.0685 98.8531 33.7241 94.3532 32.0385C87.5165 29.4774 79.1895 31.0003 79.1895 31.0003L80.1697 26.4497C80.1697 26.4497 91.1772 21.0635 99.9564 24.2793C101.706 24.9238 103.41 25.6864 105.057 26.5619C106.12 30.7398 107.13 36.5529 106.554 42.3116Z" fill="#03788A"/>
<path d="M106.555 42.3116C109.496 45.1765 112.494 48.0993 116.13 50.0707C112.375 48.3163 109.318 45.3429 106.555 42.3116V42.3116Z" fill="#078194"/>
<path d="M108.754 28.7213C111.319 30.1321 113.529 32.1433 116.163 33.4238C117.787 34.093 119.642 33.8217 121.335 33.5649C119.642 33.9266 117.758 34.2522 116.098 33.5649C113.45 32.3169 111.221 30.255 108.754 28.7104V28.7213Z" fill="#078194"/>
<path d="M37.6418 34.755C37.4863 31.3692 52.7477 25.1728 63.5598 27.4915C63.5598 27.4915 56.8425 35.9487 49.1304 37.4608C41.4183 38.9728 37.7105 36.2273 37.6418 34.755Z" fill="#078194"/>
<path d="M63.5592 27.495L63.7292 28.6236L63.9282 29.9403L64.0042 30.4286C59.6634 42.8396 49.3866 49.4159 48.5438 49.5389C47.701 49.6619 42.6982 46.6703 40.2529 43.2665C37.8076 39.8626 37.3591 33.6914 37.6412 34.7585C37.9234 35.8257 41.4792 38.2275 47.426 37.0953C53.3729 35.9631 62.4487 29.253 63.5592 27.495Z" fill="#29C1D8"/>
<path d="M63.7297 28.6236L63.9287 29.9403C62.9254 32.2486 61.4562 34.3249 59.6132 36.0391C59.6082 36.0443 59.6023 36.0485 59.5957 36.0514C59.5891 36.0543 59.5819 36.0559 59.5747 36.0561C59.5675 36.0563 59.5603 36.055 59.5536 36.0524C59.5468 36.0498 59.5407 36.0459 59.5355 36.0409C59.5302 36.0359 59.526 36.0299 59.5231 36.0233C59.5202 36.0167 59.5186 36.0096 59.5185 36.0024C59.5183 35.9952 59.5195 35.988 59.5221 35.9812C59.5248 35.9745 59.5287 35.9683 59.5337 35.9631C60.3765 34.7549 61.1578 33.525 61.8921 32.2662C59.7218 34.5813 57.1245 36.5419 54.6033 38.3035C54.4947 38.3795 54.3609 38.2203 54.473 38.1407C58.1193 35.482 60.8178 31.9949 63.7297 28.6236Z" fill="#078194"/>
<path d="M40.5497 8.71406C43.5738 6.09874 57.4027 14.5488 63.1362 26.258C63.1362 26.258 53.402 27.5277 46.3736 21.4795C39.3451 15.4314 39.2366 9.84989 40.5497 8.71406Z" fill="#078194"/>
<path d="M63.1364 26.2724L63.7405 30.1537C49.0651 35.1709 35.4749 30.454 34.7478 29.7631C34.0207 29.0722 33.1417 22.2535 34.5163 17.5076C35.8908 12.7617 41.2662 7.8241 40.4993 8.86227C39.7324 9.90043 40.0797 14.9502 45.4659 19.6382C50.852 24.3263 60.6911 26.5147 63.1364 26.2724Z" fill="#29C1D8"/>
<path d="M63.3571 27.6759L63.4981 28.5911C58.745 29.2856 53.6772 28.5187 49.1881 27.0826C49.0542 27.0392 49.1121 26.8077 49.2496 26.8403C51.819 27.4472 54.4398 27.8105 57.0774 27.9255C59.1739 27.9824 61.2718 27.899 63.3571 27.6759V27.6759Z" fill="#078194"/>
<path d="M36.18 13.9266C35.3713 15.3917 34.7248 16.9406 34.252 18.5459C34.422 16.8674 35.2142 15.2903 36.18 13.9266V13.9266Z" fill="#078194"/>
<path d="M96.4525 25.5996C95.5699 22.344 79.1437 21.0635 69.5542 26.5582C69.5542 26.5582 78.5215 32.5738 86.3277 31.6658C94.1338 30.7579 96.8323 27.0212 96.4525 25.5996Z" fill="#078194"/>
<path d="M96.5502 34.5018C95.2588 38.4808 91.4027 42.8577 90.5599 42.9988C89.7171 43.1399 77.9427 39.9928 70.0208 29.4918L69.9159 28.8479L69.67 27.2888L69.5542 26.5654C71.1458 27.9002 81.853 31.5392 87.8433 30.8085C93.8336 30.0778 96.4887 26.7065 96.4525 25.6032C96.4163 24.4999 97.8415 30.5191 96.5502 34.5018Z" fill="#29C1D8"/>
<path d="M82.1745 35.9234C79.1659 34.9619 76.3169 33.5588 73.7208 31.7599C72.3976 30.8694 71.127 29.9032 69.9154 28.866L69.6694 27.3069C71.0227 28.6396 72.4737 29.8693 74.0102 30.9857C76.6214 32.7888 79.409 34.322 82.33 35.5616C82.3634 35.5902 82.3868 35.6288 82.3968 35.6716C82.4068 35.7144 82.4028 35.7594 82.3854 35.7998C82.368 35.8402 82.3382 35.874 82.3002 35.8962C82.2623 35.9184 82.2182 35.928 82.1745 35.9234V35.9234Z" fill="#078194"/>
<path d="M85.8101 1.67473C82.1349 0.115672 71.4819 12.3566 69.5864 25.256C69.5864 25.256 79.2483 23.5052 84.1027 15.6086C88.9571 7.71202 87.4089 2.36926 85.8101 1.67473Z" fill="#078194"/>
<path d="M97.6857 19.9457C97.2009 20.8283 85.6907 29.452 70.1941 29.1337L69.5864 25.2559C71.9919 24.7567 80.6988 19.6744 84.4174 13.5756C88.136 7.47686 86.9242 2.56818 85.8643 1.79769C84.8044 1.0272 91.4313 4.0983 94.1841 8.18586C96.9369 12.2734 98.1632 19.0631 97.6857 19.9457Z" fill="#29C1D8"/>
<path d="M84.1349 19.0631C82.6084 21.6387 80.3259 23.2773 77.6889 24.6446C75.7906 25.6293 73.8045 26.4347 71.7565 27.0502C73.0719 26.9142 74.3787 26.7041 75.6704 26.4207C78.0289 25.8564 80.1125 24.8906 82.2792 23.8488C82.4312 23.7801 82.5216 23.9899 82.4131 24.084C79.3275 26.8006 74.2126 27.7591 70.0057 27.8785L69.7959 26.6342C72.0444 26.0413 74.2461 25.2832 76.383 24.3661C79.0671 23.1362 82.2358 21.4469 83.936 18.9402C84.0119 18.8389 84.2 18.951 84.1349 19.0631Z" fill="#078194"/>
<path d="M72.0128 28.2619C72.1141 29.0541 72.313 31.9877 71.2893 32.6027C70.2656 33.2176 68.2617 32.8414 67.7552 32.9174C67.2524 33.0006 65.4546 33.9772 64.2935 33.6879C63.1323 33.3985 62.4306 30.5517 62.2859 29.7631C62.1412 28.9745 61.7324 25.8926 62.691 25.3789C63.6496 24.8652 66.1347 25.1619 66.5398 25.0968C66.945 25.0316 69.2202 24.0116 70.2946 24.196C71.3689 24.3805 71.9115 27.4697 72.0128 28.2619Z" fill="#29C1D8"/>
<path d="M90.2373 42.9771C90.359 42.9717 90.48 42.956 90.599 42.9301C90.9124 42.7236 91.2002 42.4808 91.4563 42.2066C93.9885 39.7251 95.6958 36.5962 96.8534 33.2719C96.7039 35.0887 96.1648 36.852 95.2728 38.4418C94.3809 40.0316 93.1569 41.4107 91.6842 42.4851C91.3642 42.7193 91.0105 42.9035 90.6352 43.0313C90.5002 43.0279 90.3663 43.006 90.2373 42.9662V42.9771Z" fill="#078194"/>
<path d="M47.8103 49.3545C43.8746 47.9075 39.9426 44.7713 38.8574 40.5753C40.9084 44.3481 44.3268 46.9815 47.8103 49.3545Z" fill="#078194"/>
<path d="M103.065 27.0538H102.725C102.269 27.0538 91.5907 27.1515 89.7205 23.1941C89.1237 21.9389 89.225 20.8971 90.0063 20.2533C91.5147 19.0125 95.0271 19.6202 97.675 21.5808C99.6263 23.0777 101.372 24.8255 102.866 26.7789L103.065 27.0538ZM91.7571 20.0001C91.2059 20.0265 90.6743 20.2124 90.227 20.5354C89.5759 21.0708 89.5035 21.9425 90.0353 23.0675C91.6305 26.4316 100.471 26.7029 102.363 26.721C100.939 24.9101 99.294 23.2852 97.4652 21.8847C95.5227 20.4305 93.3125 19.859 91.7571 20.0001Z" fill="#078194"/>
<path d="M148.444 22.4056C148.496 22.1092 148.428 21.8044 148.255 21.5583C148.082 21.3121 147.818 21.1446 147.522 21.0925L110.662 14.6573C110.491 14.6292 110.316 14.64 110.15 14.6888C109.984 14.7377 109.831 14.8233 109.703 14.9394L101.452 22.4309L101.333 22.5358L101.123 22.7347L101.025 22.8215L97.9033 25.6575C97.7154 25.826 97.5895 26.0527 97.5456 26.3012C97.5016 26.5497 97.5422 26.8058 97.6609 27.0285L99.6613 30.7905L99.8422 31.1305L105.138 41.1034C105.219 41.2576 105.334 41.3913 105.474 41.4941C105.615 41.597 105.777 41.6662 105.948 41.6967L142.819 48.121C142.967 48.1475 143.118 48.1447 143.264 48.1127C143.41 48.0806 143.549 48.02 143.671 47.9343C143.794 47.8486 143.899 47.7394 143.979 47.6132C144.059 47.4869 144.114 47.346 144.14 47.1986L148.444 22.4056Z" fill="white"/>
<path d="M148.445 22.4056C148.475 22.2273 148.462 22.0442 148.408 21.8718C148.353 21.6993 148.258 21.5425 148.13 21.4145C148.002 21.2856 147.844 21.19 147.67 21.1359C147.497 21.0853 147.309 21.0672 147.139 21.031L144.997 20.6693L140.714 19.9458L132.167 18.4555L115.039 15.511L110.756 14.7875C110.594 14.746 110.424 14.7434 110.26 14.7798C110.097 14.8163 109.945 14.8908 109.815 14.9973L109.016 15.7208L107.41 17.1677L100.993 23.0278L99.3867 24.4747L98.5836 25.1982L98.1821 25.5599L97.9868 25.7444C97.9274 25.7978 97.8751 25.8585 97.8312 25.9252C97.7457 26.0589 97.6938 26.2113 97.6799 26.3694C97.6661 26.5275 97.6907 26.6866 97.7516 26.8332C97.8963 27.1298 98.0844 27.4662 98.2508 27.7809L99.2745 29.6945L103.373 37.3595L104.389 39.2803L104.896 40.2425L105.149 40.72L105.276 40.9624C105.312 41.0323 105.354 41.0989 105.402 41.1613C105.5 41.2784 105.624 41.3713 105.764 41.4326C105.836 41.4641 105.911 41.4859 105.988 41.4977L106.256 41.5448L107.323 41.7329L109.464 42.0946L118.023 43.6103L135.136 46.6416L139.416 47.3976L141.554 47.7593L142.639 47.9474C142.808 47.9901 142.982 48.0047 143.156 47.9908C143.326 47.9707 143.489 47.9099 143.63 47.8136C143.77 47.7209 143.886 47.5971 143.97 47.4518C144.047 47.2951 144.096 47.1262 144.115 46.9526L144.303 45.8675L144.683 43.7296L145.439 39.4503L148.445 22.4056ZM148.445 22.4056L145.504 39.5372L144.78 43.8201L144.419 45.9615L144.234 47.0467C144.217 47.2341 144.165 47.4167 144.082 47.5857C143.99 47.7539 143.86 47.8987 143.702 48.0089C143.544 48.1183 143.361 48.189 143.171 48.2151C142.983 48.2284 142.794 48.2137 142.61 48.1717L141.525 47.9872L139.401 47.6146L135.122 46.8912L117.99 43.9467L109.425 42.4744L107.283 42.1127L106.198 41.9282L105.93 41.8812C105.83 41.8653 105.731 41.8373 105.637 41.798C105.445 41.7187 105.273 41.5947 105.138 41.4363C105.073 41.3575 105.017 41.2713 104.972 41.1794L104.842 40.9407L104.588 40.4632L104.075 39.5046L103.051 37.5874L98.9996 29.8898L97.9868 27.969C97.8167 27.6398 97.6467 27.3432 97.4767 26.9923C97.4003 26.8023 97.3706 26.5966 97.3901 26.3927C97.4096 26.1887 97.4778 25.9925 97.5888 25.8203C97.6452 25.734 97.712 25.655 97.7878 25.5852L97.9904 25.4007L98.3955 25.039L99.2022 24.3155L100.812 22.8686L107.258 17.0122L108.871 15.5653L109.682 14.8418C109.834 14.7194 110.013 14.6335 110.205 14.5909C110.396 14.5483 110.594 14.5499 110.785 14.5958L115.064 15.3555L132.167 18.3687L140.725 19.8843L145.005 20.644L147.142 21.0057C147.32 21.0419 147.504 21.06 147.678 21.1142C147.941 21.1992 148.164 21.3773 148.305 21.6151C148.446 21.8528 148.496 22.1339 148.445 22.4056V22.4056Z" fill="#EBEBEB"/>
<path d="M103.337 25.8493C103.469 25.8313 103.603 25.8313 103.735 25.8493C103.735 25.8493 103.756 25.8493 103.771 25.8493C103.971 25.8764 104.164 25.9438 104.338 26.0473C104.512 26.1509 104.664 26.2885 104.783 26.4519C104.903 26.6153 104.988 26.8011 105.034 26.9983C105.08 27.1954 105.086 27.3998 105.051 27.5993C105.016 27.7987 104.942 27.9891 104.832 28.159C104.721 28.3289 104.578 28.4748 104.41 28.588C104.242 28.7012 104.053 28.7794 103.855 28.8179C103.656 28.8563 103.451 28.8543 103.253 28.8118H103.221C103.129 28.7959 103.04 28.7704 102.953 28.7359C102.902 28.7182 102.852 28.6952 102.805 28.6671C102.524 28.5157 102.299 28.279 102.161 27.9911C102.024 27.7031 101.981 27.3789 102.04 27.0653C102.099 26.7517 102.256 26.4649 102.488 26.2463C102.721 26.0277 103.016 25.8887 103.333 25.8493H103.337Z" fill="white"/>
<path d="M103.336 25.8493C103.468 25.833 103.602 25.833 103.734 25.8493V25.8493H103.774C104.171 25.9172 104.529 26.1298 104.779 26.4462C104.909 26.6134 105.004 26.8048 105.058 27.0093C105.113 27.2137 105.126 27.427 105.097 27.6366C105.068 27.8462 104.998 28.0479 104.89 28.2299C104.782 28.4118 104.638 28.5703 104.468 28.6961C104.291 28.8263 104.09 28.9188 103.876 28.968C103.662 29.0171 103.44 29.0219 103.224 28.9819V28.9819L103.068 28.9385L102.902 28.8842C102.562 28.7442 102.282 28.4878 102.113 28.1608C101.995 27.9324 101.933 27.6786 101.934 27.4212C101.934 27.1638 101.998 26.9104 102.118 26.6827C102.238 26.4551 102.412 26.26 102.624 26.1142C102.836 25.9684 103.08 25.8763 103.336 25.8457V25.8493ZM103.336 25.8493C103.006 25.8925 102.7 26.0484 102.471 26.2906C102.255 26.5235 102.123 26.8223 102.097 27.1392C102.07 27.456 102.152 27.7725 102.327 28.0378C102.492 28.2859 102.731 28.4757 103.01 28.5804V28.5804L103.144 28.6129L103.285 28.6527C103.634 28.7073 103.99 28.6299 104.284 28.4357C104.593 28.2335 104.811 27.9177 104.89 27.5564C104.97 27.1951 104.904 26.8172 104.707 26.504C104.604 26.3388 104.468 26.1967 104.308 26.0871C104.147 25.9775 103.965 25.9026 103.774 25.8674V25.8674C103.774 25.8674 103.745 25.8674 103.738 25.8674C103.605 25.8445 103.47 25.8384 103.336 25.8493V25.8493Z" fill="#EBEBEB"/>
<path d="M145.485 22.3224L111.569 16.4045C111.399 16.3745 111.225 16.3826 111.058 16.4282C110.892 16.4739 110.738 16.556 110.607 16.6685L102.533 23.6716L102.273 23.8959L99.8381 26.012C99.6477 26.1736 99.5204 26.3971 99.4787 26.6433C99.4371 26.8895 99.4836 27.1425 99.6102 27.3577L106.577 39.7976C106.663 39.9474 106.78 40.0765 106.922 40.1753C107.063 40.2741 107.225 40.3403 107.395 40.3691L141.311 46.287C141.603 46.3424 141.906 46.28 142.154 46.1134C142.401 45.9468 142.572 45.6894 142.631 45.3972L146.429 23.6174C146.453 23.4703 146.447 23.32 146.412 23.1751C146.378 23.0302 146.315 22.8936 146.227 22.7732C146.139 22.6528 146.028 22.551 145.901 22.4736C145.774 22.3962 145.632 22.3448 145.485 22.3224V22.3224ZM146.23 23.5667L142.432 45.3502C142.383 45.5895 142.242 45.7998 142.038 45.9353C141.835 46.0708 141.586 46.1206 141.347 46.0736L107.424 40.1557C107.283 40.1318 107.15 40.0773 107.033 39.996C106.916 39.9147 106.818 39.8087 106.747 39.6855L99.7802 27.2455C99.6816 27.0711 99.6459 26.868 99.6789 26.6704C99.7127 26.4717 99.8151 26.2913 99.9683 26.1603L102.396 24.0551L102.663 23.8236L110.737 16.8205C110.845 16.7271 110.973 16.6591 111.11 16.6216C111.248 16.584 111.392 16.5778 111.533 16.6034L145.449 22.5213C145.569 22.5386 145.684 22.5794 145.788 22.6413C145.893 22.7032 145.984 22.785 146.056 22.8821C146.129 22.9792 146.181 23.0896 146.211 23.2071C146.241 23.3246 146.247 23.4468 146.23 23.5667V23.5667Z" fill="#078194"/>
<path d="M107.775 30.9749C107.923 30.8553 108.111 30.796 108.302 30.8087C108.492 30.8214 108.671 30.9053 108.802 31.0437C109.355 31.7916 110.166 32.3073 111.077 32.4906C111.708 32.6003 112.357 32.5262 112.947 32.2772C113.153 32.2044 113.342 32.0909 113.503 31.9437C113.664 31.7964 113.794 31.6183 113.884 31.4199C113.941 31.2798 113.952 31.1255 113.917 30.9786C113.865 30.8003 113.766 30.6392 113.631 30.5119C113.149 30.0813 112.582 29.756 111.967 29.557H111.938C111.381 29.3555 110.852 29.0832 110.365 28.7467C109.925 28.4464 109.6 28.0048 109.446 27.4951C109.357 27.1203 109.381 26.7278 109.515 26.3665C109.681 25.9658 109.927 25.6032 110.238 25.3009C110.549 24.9987 110.918 24.763 111.323 24.6085C112.145 24.2528 113.051 24.1411 113.935 24.2865C115.259 24.5072 115.997 25.2922 116.543 25.8456C116.602 25.917 116.646 25.9999 116.671 26.089C116.697 26.1781 116.703 26.2715 116.691 26.3633C116.678 26.4552 116.647 26.5434 116.598 26.6224C116.55 26.7014 116.485 26.7694 116.409 26.8223C116.274 26.9588 116.092 27.0383 115.9 27.0444C115.708 27.0504 115.521 26.9826 115.378 26.8548C114.832 26.3014 114.293 25.7696 113.465 25.6575C112.89 25.5471 112.296 25.61 111.757 25.8384C111.577 25.9042 111.411 26.0052 111.27 26.1356C111.129 26.266 111.016 26.4232 110.936 26.598C110.891 26.7231 110.891 26.8599 110.936 26.9851C110.978 27.1372 111.059 27.2757 111.171 27.3866C111.609 27.7827 112.128 28.08 112.691 28.2583H112.719C113.328 28.4667 113.903 28.7615 114.427 29.1337C114.887 29.4534 115.228 29.9164 115.396 30.4504C115.491 30.85 115.462 31.2687 115.313 31.6514C115.14 32.0739 114.884 32.4575 114.561 32.7794C114.237 33.1012 113.852 33.3548 113.428 33.5252C112.544 33.8973 111.572 34.0126 110.625 33.8579C109.401 33.628 108.309 32.9414 107.572 31.9372C107.478 31.7808 107.447 31.5947 107.485 31.4163C107.522 31.2379 107.626 31.0803 107.775 30.9749Z" fill="#5B63AD"/>
<path d="M117.01 34.397C116.905 34.5309 116.766 34.6347 116.608 34.6982C116.45 34.7617 116.278 34.7826 116.109 34.7587C116.018 34.7453 115.93 34.7159 115.849 34.6719C115.767 34.6133 115.699 34.5378 115.649 34.4506C115.599 34.3633 115.568 34.2663 115.559 34.1661C115.549 34.0659 115.562 33.9649 115.595 33.87C115.628 33.775 115.681 33.6883 115.751 33.6157L121.694 26.0808C121.799 25.9437 121.94 25.8377 122.1 25.774C122.261 25.7103 122.435 25.6913 122.606 25.7191C122.76 25.7339 122.904 25.8045 123.011 25.9176C123.117 26.0308 123.179 26.1788 123.185 26.334L123.463 34.8962C123.458 35.1174 123.375 35.3297 123.229 35.4958C123.083 35.6618 122.882 35.771 122.664 35.8041C122.568 35.8205 122.47 35.8205 122.374 35.8041C122.225 35.7844 122.087 35.712 121.987 35.5999C121.886 35.4878 121.828 35.3435 121.824 35.1928L121.759 33.3191L118.323 32.7511L117.01 34.397ZM121.712 31.713L121.607 28.5876L119.437 31.3404L121.712 31.713Z" fill="#5B63AD"/>
<path d="M124.982 35.3916L127.826 27.3576C127.901 27.1496 128.046 26.9741 128.235 26.8607C128.425 26.7473 128.649 26.703 128.867 26.7354C128.965 26.7471 129.059 26.7814 129.141 26.8357C129.223 26.8899 129.292 26.9626 129.341 27.048C129.39 27.1333 129.419 27.229 129.424 27.3273C129.43 27.4257 129.413 27.524 129.374 27.6144L126.809 34.9105L130.622 35.54C130.72 35.5523 130.814 35.5869 130.897 35.6412C130.979 35.6955 131.049 35.7681 131.099 35.8534C131.149 35.9386 131.179 36.0342 131.187 36.1329C131.194 36.2316 131.179 36.3307 131.143 36.4226C131.063 36.632 130.915 36.8085 130.723 36.9239C130.53 37.0393 130.305 37.0869 130.083 37.0592L125.521 36.3032C125.417 36.2966 125.316 36.2647 125.227 36.2101C125.138 36.1555 125.064 36.08 125.011 35.9901C124.957 35.9002 124.927 35.7987 124.922 35.6944C124.917 35.5901 124.938 35.4861 124.982 35.3916Z" fill="#5B63AD"/>
<path d="M132.484 36.7048L135.32 28.6418C135.396 28.4344 135.541 28.2592 135.731 28.1454C135.92 28.0316 136.143 27.986 136.362 28.016H136.391L140.949 28.7684C141.047 28.7802 141.141 28.8144 141.224 28.8683C141.306 28.9223 141.376 28.9945 141.426 29.0795C141.476 29.1645 141.506 29.2599 141.514 29.3584C141.522 29.4569 141.506 29.5558 141.47 29.6474C141.391 29.8549 141.246 30.0302 141.056 30.1456C140.867 30.2609 140.644 30.3097 140.424 30.2841L136.612 29.6547L135.718 32.1687L139.013 32.7149C139.111 32.7266 139.204 32.7608 139.286 32.8148C139.368 32.8689 139.436 32.9414 139.485 33.0264C139.533 33.1114 139.562 33.2067 139.567 33.3046C139.573 33.4025 139.555 33.5003 139.516 33.5903C139.442 33.7994 139.298 33.9761 139.108 34.0903C138.918 34.2045 138.694 34.249 138.474 34.2161L135.194 33.6735L134.304 36.2056L138.116 36.835C138.215 36.848 138.31 36.8836 138.393 36.939C138.476 36.9943 138.545 37.068 138.595 37.1544C138.645 37.2407 138.674 37.3374 138.681 37.4369C138.688 37.5365 138.672 37.6363 138.634 37.7285C138.553 37.9329 138.407 38.105 138.219 38.2182C138.031 38.3313 137.81 38.3792 137.592 38.3543L133.016 37.5983C132.915 37.5888 132.818 37.5556 132.732 37.5014C132.647 37.4472 132.575 37.3736 132.523 37.2866C132.471 37.1995 132.441 37.1014 132.434 37.0004C132.427 36.8993 132.444 36.798 132.484 36.7048V36.7048Z" fill="#5B63AD"/>
<path d="M103.065 27.0539H102.725H101.98C100.553 27.03 99.1278 26.9286 97.7116 26.75C97.6573 26.75 97.6103 26.75 97.5561 26.7283H97.4077C97.3869 26.6086 97.3869 26.4862 97.4077 26.3666H97.5452H97.6971C99.1649 26.5542 100.642 26.6629 102.121 26.6921C102.136 26.6903 102.15 26.6903 102.165 26.6921C102.181 26.6903 102.198 26.6903 102.215 26.6921H102.374C102.342 26.656 102.309 26.6125 102.273 26.5655C102.33 26.459 102.4 26.3605 102.483 26.2725V26.2725C102.729 26.58 102.863 26.7609 102.87 26.7681L103.065 27.0539Z" fill="#078194"/>
<path d="M52.8853 65.5636L53.4062 67.734C53.4187 67.7857 53.4452 67.8331 53.4829 67.8707C53.5205 67.9084 53.5679 67.9349 53.6196 67.9474L55.79 68.4683L53.6196 68.9892C53.5629 69.0022 53.5115 69.0325 53.4727 69.0759C53.4338 69.1193 53.4093 69.1737 53.4026 69.2315L52.8636 73.8509L52.321 69.2315C52.3143 69.1737 52.2898 69.1193 52.2509 69.0759C52.2121 69.0325 52.1607 69.0022 52.104 68.9892L49.9336 68.4683L52.104 67.9474C52.1557 67.9349 52.2031 67.9084 52.2407 67.8707C52.2784 67.8331 52.3049 67.7857 52.3174 67.734L52.8853 65.5636Z" fill="#5B63AD"/>
<path d="M19.9856 140.395L20.5065 142.583C20.5188 142.635 20.5453 142.682 20.5831 142.719C20.6208 142.756 20.6682 142.782 20.7199 142.793L22.8903 143.318L20.7524 143.835C20.6957 143.848 20.6443 143.878 20.6055 143.922C20.5666 143.965 20.5421 144.019 20.5354 144.077L19.9964 148.697L19.4538 144.077C19.4471 144.019 19.4226 143.965 19.3838 143.922C19.3449 143.878 19.2936 143.848 19.2368 143.835L17.0664 143.314L19.2368 142.789C19.2885 142.778 19.3359 142.752 19.3736 142.715C19.4113 142.678 19.4379 142.631 19.4502 142.58L19.9856 140.395Z" fill="#5B63AD"/>
<path d="M96.8172 22.3801L97.3417 24.5722C97.3538 24.6232 97.3798 24.6699 97.4168 24.7069C97.4539 24.744 97.5005 24.77 97.5515 24.782L99.7436 25.3065L97.5732 25.8238C97.5164 25.838 97.4653 25.8691 97.4265 25.9131C97.3878 25.957 97.3632 26.0116 97.3562 26.0698L96.8172 30.6891L96.2746 26.0698C96.2676 26.0116 96.2431 25.957 96.2043 25.9131C96.1656 25.8691 96.1144 25.838 96.0576 25.8238L93.8872 25.3065L96.0757 24.782C96.1272 24.7702 96.1744 24.7443 96.2121 24.7073C96.2497 24.6703 96.2764 24.6235 96.2891 24.5722L96.8172 22.3801Z" fill="#5B63AD"/>
<path d="M71.4927 106.541L72.0172 108.733C72.0299 108.784 72.0566 108.831 72.0943 108.868C72.132 108.905 72.1792 108.931 72.2306 108.942L74.4191 109.467L72.2487 109.984C72.1919 109.998 72.1407 110.03 72.102 110.073C72.0632 110.117 72.0387 110.172 72.0317 110.23L71.4891 114.849L70.9465 110.23C70.9405 110.172 70.9163 110.117 70.8774 110.072C70.8385 110.028 70.7868 109.997 70.7295 109.984L68.5591 109.467L70.7512 108.942C70.8022 108.93 70.8488 108.904 70.8859 108.867C70.9229 108.83 70.9489 108.784 70.961 108.733L71.4927 106.541Z" fill="#5B63AD"/>
<path d="M31.9013 96.781L32.2413 98.2098C32.2505 98.2432 32.2684 98.2735 32.2932 98.2977C32.318 98.3218 32.3488 98.3389 32.3824 98.3473L33.8076 98.6873L32.3968 99.0274C32.3595 99.0356 32.3258 99.0554 32.3004 99.084C32.2751 99.1126 32.2594 99.1485 32.2558 99.1865L31.894 100.677L31.5323 99.1865C31.5286 99.1485 31.513 99.1126 31.4876 99.084C31.4623 99.0554 31.4285 99.0356 31.3912 99.0274L29.9805 98.6873L31.4057 98.3473C31.4393 98.3389 31.47 98.3218 31.4948 98.2977C31.5196 98.2735 31.5375 98.2432 31.5468 98.2098L31.9013 96.781Z" fill="#5B63AD"/>
<path d="M131.081 66.6053L131.421 68.0342C131.429 68.0674 131.446 68.0978 131.471 68.122C131.495 68.1463 131.525 68.1634 131.558 68.1716L133.005 68.5153L131.595 68.8517C131.558 68.8604 131.524 68.8804 131.499 68.9089C131.474 68.9374 131.458 68.973 131.454 69.0109L131.092 70.5012L130.73 69.0109C130.726 68.973 130.71 68.9374 130.685 68.9089C130.659 68.8804 130.626 68.8604 130.589 68.8517L129.178 68.5153L130.603 68.1716C130.637 68.1646 130.668 68.1479 130.693 68.1234C130.717 68.099 130.734 68.068 130.741 68.0342L131.081 66.6053Z" fill="#5B63AD"/>
<path d="M109.687 101.603L110.027 103.032C110.035 103.065 110.052 103.096 110.076 103.12C110.101 103.144 110.131 103.161 110.165 103.169L111.594 103.513L110.179 103.849C110.142 103.858 110.109 103.879 110.084 103.907C110.059 103.935 110.043 103.971 110.038 104.008L109.676 105.502L109.315 104.008C109.31 103.971 109.294 103.935 109.269 103.907C109.244 103.879 109.21 103.858 109.174 103.849L107.759 103.513L109.188 103.169C109.222 103.162 109.253 103.145 109.277 103.121C109.302 103.097 109.319 103.066 109.326 103.032L109.687 101.603Z" fill="#5B63AD"/>
<path d="M85.3031 118.036L85.6431 119.465C85.6527 119.498 85.6707 119.529 85.6955 119.553C85.7202 119.577 85.7508 119.594 85.7842 119.603L87.2094 119.943L85.7987 120.279C85.7611 120.288 85.7272 120.309 85.7019 120.338C85.6766 120.367 85.6611 120.403 85.6576 120.442L85.2959 121.932L84.9341 120.442C84.9306 120.403 84.9151 120.367 84.8898 120.338C84.8645 120.309 84.8307 120.288 84.7931 120.279L83.3823 119.943L84.8075 119.603C84.841 119.594 84.8715 119.577 84.8963 119.553C84.921 119.529 84.9391 119.498 84.9486 119.465L85.3031 118.036Z" fill="#5B63AD"/>
<path d="M71.6192 83.8237L71.9629 85.2707C71.9699 85.3045 71.9867 85.3355 72.0111 85.3599C72.0355 85.3843 72.0665 85.4011 72.1003 85.4081L73.5256 85.7518L72.1148 86.0882C72.0777 86.0969 72.0443 86.1169 72.019 86.1454C71.9938 86.1739 71.9779 86.2095 71.9737 86.2473L71.612 87.7377L71.2503 86.2473C71.2446 86.21 71.2283 86.1751 71.2033 86.1469C71.1783 86.1186 71.1456 86.0982 71.1092 86.0882L69.6948 85.7518L71.1417 85.4081C71.1752 85.4003 71.2058 85.3832 71.23 85.359C71.2543 85.3347 71.2714 85.3041 71.2792 85.2707L71.6192 83.8237Z" fill="#5B63AD"/>
<path d="M100.934 30.8374L101.278 32.2662C101.286 32.2995 101.303 32.3299 101.327 32.3541C101.352 32.3783 101.382 32.3955 101.415 32.4037L102.844 32.7437L101.43 33.0838C101.392 33.092 101.359 33.1118 101.333 33.1404C101.308 33.169 101.292 33.2049 101.289 33.2429L100.927 34.7332L100.565 33.2429C100.561 33.2051 100.545 33.1695 100.52 33.141C100.495 33.1125 100.461 33.0925 100.424 33.0838L99.0098 32.7437L100.439 32.4037C100.472 32.3948 100.502 32.3774 100.526 32.3533C100.55 32.3292 100.567 32.2992 100.576 32.2662L100.934 30.8374Z" fill="#5B63AD"/>
<path d="M24.7313 41.0817L25.075 42.5106C25.082 42.5444 25.0988 42.5754 25.1232 42.5998C25.1476 42.6242 25.1786 42.641 25.2124 42.648L26.6377 42.9917L25.2269 43.3281C25.1898 43.3368 25.1564 43.3568 25.1311 43.3853C25.1059 43.4138 25.09 43.4494 25.0858 43.4872L24.7241 44.9812L24.3624 43.4872C24.3582 43.4494 24.3423 43.4138 24.3171 43.3853C24.2918 43.3568 24.2584 43.3368 24.2213 43.3281L22.8105 42.9917L24.2575 42.648C24.2907 42.6398 24.3211 42.6226 24.3453 42.5984C24.3696 42.5742 24.3867 42.5438 24.3949 42.5106L24.7313 41.0817Z" fill="#5B63AD"/>
<path d="M129.416 130.205L129.778 131.634C129.786 131.667 129.803 131.697 129.828 131.722C129.852 131.746 129.882 131.763 129.916 131.771L131.341 132.111L129.93 132.451C129.893 132.459 129.859 132.479 129.834 132.508C129.808 132.536 129.793 132.572 129.789 132.61L129.427 134.101L129.065 132.61C129.062 132.572 129.046 132.536 129.021 132.508C128.995 132.479 128.962 132.459 128.924 132.451L127.514 132.111L128.943 131.771C128.975 131.762 129.005 131.744 129.029 131.72C129.053 131.696 129.07 131.666 129.08 131.634L129.416 130.205Z" fill="#5B63AD"/>
<path d="M70.8775 35.3989L71.2392 36.8458C71.2471 36.8793 71.2641 36.9099 71.2884 36.9342C71.3127 36.9584 71.3433 36.9755 71.3767 36.9833L72.8055 37.3233L71.3912 37.6634C71.3539 37.6716 71.3201 37.6914 71.2948 37.72C71.2694 37.7486 71.2538 37.7845 71.2501 37.8225L70.8884 39.3129L70.5266 37.8225C70.5224 37.7847 70.5066 37.7491 70.4813 37.7206C70.4561 37.6921 70.4226 37.6721 70.3856 37.6634L68.9712 37.3233L70.4 36.9833C70.4333 36.9751 70.4637 36.9579 70.4879 36.9337C70.5121 36.9095 70.5293 36.8791 70.5375 36.8458L70.8775 35.3989Z" fill="#5B63AD"/>
<path d="M52.845 133.146L53.185 134.575C53.1929 134.608 53.2099 134.639 53.2342 134.663C53.2585 134.687 53.289 134.704 53.3225 134.712L54.7694 135.052L53.355 135.392C53.3182 135.401 53.285 135.421 53.2598 135.45C53.2347 135.478 53.2187 135.514 53.214 135.551L52.8522 137.042L52.4905 135.551C52.4858 135.514 52.4698 135.478 52.4446 135.45C52.4194 135.421 52.3863 135.401 52.3494 135.392L50.9351 135.052L52.3639 134.712C52.3977 134.705 52.4287 134.688 52.4531 134.664C52.4776 134.639 52.4943 134.608 52.5014 134.575L52.845 133.146Z" fill="#5B63AD"/>
<g opacity="0.8">
<path opacity="0.8" d="M52.8853 65.5635L53.4062 67.7339C53.4187 67.7857 53.4452 67.833 53.4829 67.8707C53.5205 67.9083 53.5679 67.9349 53.6196 67.9473L55.79 68.4682L53.6196 68.9891C53.5629 69.0022 53.5115 69.0325 53.4727 69.0759C53.4338 69.1193 53.4093 69.1736 53.4026 69.2315L52.8636 73.8508L52.321 69.2315C52.3143 69.1736 52.2898 69.1193 52.2509 69.0759C52.2121 69.0325 52.1607 69.0022 52.104 68.9891L49.9336 68.4682L52.104 67.9473C52.1557 67.9349 52.2031 67.9083 52.2407 67.8707C52.2784 67.833 52.3049 67.7857 52.3174 67.7339L52.8853 65.5635Z" fill="white"/>
<path opacity="0.8" d="M19.9856 140.395L20.5065 142.583C20.5188 142.635 20.5453 142.682 20.5831 142.719C20.6208 142.756 20.6682 142.782 20.7199 142.793L22.8903 143.318L20.7524 143.835C20.6957 143.848 20.6443 143.878 20.6055 143.922C20.5666 143.965 20.5421 144.019 20.5354 144.077L19.9964 148.697L19.4538 144.077C19.4471 144.019 19.4226 143.965 19.3838 143.922C19.3449 143.878 19.2936 143.848 19.2368 143.835L17.0664 143.314L19.2368 142.789C19.2885 142.778 19.3359 142.752 19.3736 142.715C19.4113 142.678 19.4379 142.631 19.4502 142.58L19.9856 140.395Z" fill="white"/>
<path opacity="0.8" d="M96.8167 22.3801L97.3413 24.5722C97.3533 24.6232 97.3793 24.6699 97.4163 24.7069C97.4534 24.744 97.5 24.77 97.5511 24.782L99.7431 25.3065L97.5728 25.8238C97.5159 25.838 97.4648 25.8691 97.426 25.9131C97.3873 25.957 97.3627 26.0116 97.3557 26.0698L96.8167 30.6891L96.2741 26.0698C96.2671 26.0116 96.2426 25.957 96.2038 25.9131C96.1651 25.8691 96.1139 25.838 96.0571 25.8238L93.8867 25.3065L96.0752 24.782C96.1267 24.7702 96.1739 24.7443 96.2116 24.7073C96.2492 24.6703 96.2759 24.6235 96.2886 24.5722L96.8167 22.3801Z" fill="white"/>
<path opacity="0.8" d="M71.4927 106.54L72.0172 108.732C72.0299 108.784 72.0566 108.831 72.0943 108.868C72.132 108.905 72.1792 108.93 72.2306 108.942L74.4191 109.467L72.2487 109.984C72.1919 109.998 72.1407 110.029 72.102 110.073C72.0632 110.117 72.0387 110.172 72.0317 110.23L71.4891 114.849L70.9465 110.23C70.9405 110.172 70.9163 110.116 70.8774 110.072C70.8385 110.028 70.7868 109.997 70.7295 109.984L68.5591 109.467L70.7512 108.942C70.8022 108.93 70.8488 108.904 70.8859 108.867C70.9229 108.83 70.9489 108.783 70.961 108.732L71.4927 106.54Z" fill="white"/>
<path opacity="0.8" d="M31.9013 96.7809L32.2413 98.2097C32.2505 98.2431 32.2684 98.2734 32.2932 98.2975C32.318 98.3217 32.3488 98.3388 32.3824 98.3472L33.8076 98.6872L32.3968 99.0272C32.3595 99.0355 32.3258 99.0553 32.3004 99.0839C32.2751 99.1125 32.2594 99.1484 32.2558 99.1864L31.894 100.677L31.5323 99.1864C31.5286 99.1484 31.513 99.1125 31.4876 99.0839C31.4623 99.0553 31.4285 99.0355 31.3912 99.0272L29.9805 98.6872L31.4057 98.3472C31.4393 98.3388 31.47 98.3217 31.4948 98.2975C31.5196 98.2734 31.5375 98.2431 31.5468 98.2097L31.9013 96.7809Z" fill="white"/>
<path opacity="0.8" d="M131.08 66.6053L131.42 68.0341C131.429 68.0674 131.446 68.0978 131.47 68.122C131.494 68.1462 131.525 68.1634 131.558 68.1716L133.005 68.5152L131.594 68.8516C131.557 68.8604 131.524 68.8803 131.498 68.9088C131.473 68.9373 131.457 68.9729 131.453 69.0108L131.091 70.5011L130.73 69.0108C130.725 68.9729 130.71 68.9373 130.684 68.9088C130.659 68.8803 130.626 68.8604 130.588 68.8516L129.178 68.5152L130.603 68.1716C130.637 68.1646 130.668 68.1478 130.692 68.1234C130.717 68.099 130.733 68.0679 130.74 68.0341L131.08 66.6053Z" fill="white"/>
<path opacity="0.8" d="M109.687 101.603L110.027 103.032C110.035 103.065 110.052 103.096 110.076 103.12C110.101 103.144 110.131 103.161 110.165 103.169L111.594 103.513L110.179 103.849C110.142 103.858 110.109 103.878 110.084 103.907C110.059 103.935 110.043 103.971 110.038 104.008L109.676 105.502L109.315 104.008C109.31 103.971 109.294 103.935 109.269 103.907C109.244 103.878 109.21 103.858 109.174 103.849L107.759 103.513L109.188 103.169C109.222 103.162 109.253 103.145 109.277 103.121C109.302 103.096 109.319 103.065 109.326 103.032L109.687 101.603Z" fill="white"/>
<path opacity="0.8" d="M85.3031 118.036L85.6431 119.465C85.6527 119.498 85.6707 119.528 85.6955 119.552C85.7202 119.577 85.7508 119.594 85.7842 119.602L87.2094 119.943L85.7987 120.279C85.7611 120.288 85.7272 120.308 85.7019 120.338C85.6766 120.367 85.6611 120.403 85.6576 120.442L85.2959 121.932L84.9341 120.442C84.9306 120.403 84.9151 120.367 84.8898 120.338C84.8645 120.308 84.8307 120.288 84.7931 120.279L83.3823 119.943L84.8075 119.602C84.841 119.594 84.8715 119.577 84.8963 119.552C84.921 119.528 84.9391 119.498 84.9486 119.465L85.3031 118.036Z" fill="white"/>
<path opacity="0.8" d="M71.6192 83.8237L71.9629 85.2707C71.9699 85.3045 71.9867 85.3355 72.0111 85.3599C72.0355 85.3843 72.0665 85.4011 72.1003 85.4081L73.5256 85.7518L72.1148 86.0882C72.0777 86.0969 72.0443 86.1169 72.019 86.1454C71.9938 86.1739 71.9779 86.2095 71.9737 86.2473L71.612 87.7377L71.2503 86.2473C71.2446 86.21 71.2283 86.1751 71.2033 86.1469C71.1783 86.1186 71.1456 86.0982 71.1092 86.0882L69.6948 85.7518L71.1417 85.4081C71.1752 85.4003 71.2058 85.3832 71.23 85.359C71.2543 85.3347 71.2714 85.3041 71.2792 85.2707L71.6192 83.8237Z" fill="white"/>
<path opacity="0.8" d="M100.934 30.8374L101.277 32.2662C101.286 32.2995 101.303 32.3299 101.327 32.3541C101.351 32.3783 101.382 32.3955 101.415 32.4037L102.844 32.7437L101.429 33.0838C101.392 33.092 101.358 33.1118 101.333 33.1404C101.308 33.169 101.292 33.2049 101.288 33.2429L100.926 34.7332L100.565 33.2429C100.561 33.2051 100.545 33.1695 100.519 33.141C100.494 33.1125 100.461 33.0925 100.424 33.0838L99.0093 32.7437L100.438 32.4037C100.471 32.3948 100.501 32.3774 100.525 32.3533C100.549 32.3292 100.567 32.2992 100.576 32.2662L100.934 30.8374Z" fill="white"/>
<path opacity="0.8" d="M24.7308 41.0816L25.0745 42.5104C25.0815 42.5443 25.0983 42.5753 25.1227 42.5997C25.1471 42.6241 25.1781 42.6409 25.212 42.6479L26.6372 42.9915L25.2264 43.3279C25.1894 43.3367 25.1559 43.3567 25.1306 43.3852C25.1054 43.4137 25.0896 43.4493 25.0853 43.4871L24.7236 44.9811L24.3619 43.4871C24.3577 43.4493 24.3418 43.4137 24.3166 43.3852C24.2913 43.3567 24.2579 43.3367 24.2208 43.3279L22.8101 42.9915L24.257 42.6479C24.2902 42.6397 24.3206 42.6225 24.3448 42.5983C24.3691 42.5741 24.3862 42.5437 24.3944 42.5104L24.7308 41.0816Z" fill="white"/>
<path opacity="0.8" d="M129.416 130.205L129.778 131.634C129.786 131.667 129.803 131.697 129.828 131.722C129.852 131.746 129.882 131.763 129.916 131.771L131.341 132.111L129.93 132.451C129.893 132.459 129.859 132.479 129.834 132.508C129.808 132.536 129.793 132.572 129.789 132.61L129.427 134.101L129.065 132.61C129.062 132.572 129.046 132.536 129.021 132.508C128.995 132.479 128.962 132.459 128.924 132.451L127.514 132.111L128.943 131.771C128.975 131.762 129.005 131.744 129.029 131.72C129.053 131.696 129.07 131.666 129.08 131.634L129.416 130.205Z" fill="white"/>
<path opacity="0.8" d="M70.877 35.3989L71.2388 36.8458C71.2466 36.8792 71.2636 36.9098 71.2879 36.9341C71.3122 36.9584 71.3428 36.9754 71.3762 36.9832L72.805 37.3233L71.3907 37.6633C71.3534 37.6715 71.3196 37.6914 71.2943 37.72C71.2689 37.7485 71.2533 37.7844 71.2496 37.8225L70.8879 39.3128L70.5261 37.8225C70.5219 37.7846 70.5061 37.749 70.4809 37.7205C70.4556 37.692 70.4221 37.672 70.3851 37.6633L68.9707 37.3233L70.3995 36.9832C70.4328 36.975 70.4632 36.9579 70.4874 36.9336C70.5116 36.9094 70.5288 36.879 70.537 36.8458L70.877 35.3989Z" fill="white"/>
<path opacity="0.8" d="M52.845 133.146L53.185 134.575C53.1929 134.608 53.2099 134.639 53.2342 134.663C53.2585 134.687 53.289 134.704 53.3225 134.712L54.7694 135.052L53.355 135.392C53.3182 135.401 53.285 135.421 53.2598 135.45C53.2347 135.478 53.2187 135.514 53.214 135.551L52.8522 137.042L52.4905 135.551C52.4858 135.514 52.4698 135.478 52.4446 135.45C52.4194 135.421 52.3863 135.401 52.3494 135.392L50.9351 135.052L52.3639 134.712C52.3977 134.705 52.4287 134.688 52.4531 134.664C52.4776 134.639 52.4943 134.608 52.5014 134.575L52.845 133.146Z" fill="white"/>
</g>
<path d="M42.1816 53.9484C42.2246 54.2718 42.1706 54.6007 42.0267 54.8935C41.8827 55.1863 41.6552 55.4298 41.3728 55.5932C41.0904 55.7566 40.766 55.8327 40.4404 55.8117C40.1148 55.7907 39.8028 55.6737 39.5437 55.4753C39.2847 55.277 39.0903 55.0063 38.9851 54.6975C38.8799 54.3886 38.8686 54.0556 38.9527 53.7403C39.0369 53.4251 39.2126 53.1419 39.4576 52.9266C39.7027 52.7112 40.0061 52.5734 40.3295 52.5304C40.7632 52.4729 41.2019 52.59 41.5492 52.8559C41.8965 53.1218 42.124 53.5148 42.1816 53.9484V53.9484Z" fill="#078194"/>
<path d="M23.2842 87.8968C23.3264 88.2195 23.272 88.5474 23.128 88.8392C22.9839 89.1309 22.7566 89.3734 22.4747 89.536C22.1929 89.6986 21.8691 89.7741 21.5444 89.7527C21.2197 89.7314 20.9086 89.6144 20.6504 89.4163C20.3923 89.2182 20.1986 88.9481 20.0939 88.64C19.9892 88.3319 19.9781 87.9997 20.0622 87.6853C20.1462 87.371 20.3216 87.0886 20.566 86.8738C20.8105 86.6591 21.1132 86.5216 21.4357 86.4788C21.8688 86.4223 22.3066 86.5399 22.6531 86.8057C22.9996 87.0715 23.2266 87.4639 23.2842 87.8968Z" fill="#29C1D8"/>
<path d="M126.27 58.0613C126.291 58.2221 126.264 58.3857 126.193 58.5313C126.121 58.6769 126.008 58.7981 125.868 58.8795C125.728 58.961 125.567 58.999 125.405 58.9889C125.243 58.9788 125.087 58.9209 124.958 58.8226C124.829 58.7243 124.732 58.5899 124.679 58.4365C124.627 58.2831 124.621 58.1175 124.662 57.9606C124.703 57.8037 124.79 57.6626 124.911 57.5549C125.033 57.4473 125.183 57.3781 125.344 57.3559C125.56 57.3271 125.779 57.3852 125.953 57.5174C126.126 57.6496 126.24 57.8452 126.27 58.0613V58.0613Z" fill="#DBDBDB"/>
<path d="M57.8884 67.6219C57.9106 67.7836 57.8843 67.9483 57.8128 68.0951C57.7414 68.2419 57.6279 68.3642 57.4869 68.4464C57.3459 68.5287 57.1837 68.5673 57.0207 68.5572C56.8578 68.5472 56.7014 68.4891 56.5716 68.3901C56.4417 68.2912 56.3441 68.156 56.2912 68.0015C56.2382 67.8471 56.2323 67.6804 56.2741 67.5226C56.316 67.3648 56.4037 67.223 56.5263 67.1151C56.6488 67.0072 56.8006 66.9381 56.9624 66.9165C57.1787 66.8877 57.3975 66.9458 57.5711 67.078C57.7446 67.2102 57.8588 67.4058 57.8884 67.6219V67.6219Z" fill="#DBDBDB"/>
<path d="M90.3824 58.8861C90.401 59.0476 90.3714 59.211 90.2974 59.3558C90.2234 59.5006 90.1083 59.6203 89.9665 59.6998C89.8246 59.7793 89.6625 59.8152 89.5004 59.8028C89.3382 59.7905 89.1834 59.7305 89.0553 59.6304C88.9271 59.5303 88.8315 59.3945 88.7803 59.2402C88.7291 59.0859 88.7246 58.9199 88.7674 58.7631C88.8103 58.6062 88.8986 58.4655 89.0211 58.3587C89.1437 58.2519 89.2951 58.1837 89.4563 58.1626C89.5648 58.1485 89.6749 58.156 89.7804 58.1849C89.8859 58.2137 89.9846 58.2632 90.0708 58.3305C90.1569 58.3978 90.2289 58.4816 90.2824 58.577C90.3359 58.6724 90.3698 58.7775 90.3824 58.8861V58.8861Z" fill="#29C1D8"/>
<path d="M138.088 48.0848C138.106 48.2455 138.076 48.408 138.002 48.5517C137.928 48.6955 137.813 48.8142 137.671 48.8929C137.53 48.9716 137.369 49.0068 137.207 48.9942C137.046 48.9815 136.892 48.9215 136.765 48.8217C136.638 48.7218 136.543 48.5867 136.492 48.4331C136.441 48.2795 136.437 48.1144 136.48 47.9584C136.523 47.8024 136.611 47.6625 136.733 47.5563C136.854 47.4501 137.005 47.3823 137.165 47.3613C137.274 47.3477 137.383 47.3556 137.489 47.3847C137.594 47.4138 137.692 47.4634 137.778 47.5307C137.863 47.5979 137.935 47.6815 137.988 47.7767C138.042 47.8718 138.075 47.9765 138.088 48.0848V48.0848Z" fill="#078194"/>
<path d="M51.5211 76.3504C51.5388 76.511 51.5088 76.6732 51.4348 76.8168C51.3608 76.9605 51.2461 77.079 51.105 77.1578C50.9639 77.2365 50.8027 77.2718 50.6416 77.2594C50.4805 77.2469 50.3267 77.1872 50.1994 77.0877C50.0721 76.9883 49.9769 76.8535 49.9259 76.7002C49.8748 76.5469 49.8701 76.382 49.9123 76.226C49.9546 76.0701 50.0419 75.93 50.1633 75.8235C50.2848 75.7169 50.4349 75.6485 50.595 75.6269C50.7035 75.6128 50.8136 75.6203 50.9191 75.6492C51.0246 75.678 51.1233 75.7275 51.2095 75.7948C51.2957 75.8621 51.3676 75.9459 51.4211 76.0413C51.4746 76.1367 51.5086 76.2418 51.5211 76.3504V76.3504Z" fill="#29C1D8"/>
<path d="M101.99 52.6065C102.009 52.768 101.979 52.9315 101.905 53.0762C101.831 53.221 101.716 53.3407 101.574 53.4202C101.433 53.4997 101.27 53.5356 101.108 53.5232C100.946 53.5109 100.791 53.4509 100.663 53.3508C100.535 53.2507 100.439 53.115 100.388 52.9606C100.337 52.8063 100.333 52.6403 100.375 52.4835C100.418 52.3266 100.506 52.186 100.629 52.0791C100.752 51.9723 100.903 51.9041 101.064 51.8831C101.173 51.8684 101.283 51.8756 101.389 51.9042C101.494 51.9328 101.593 51.9823 101.68 52.0497C101.766 52.1171 101.838 52.2011 101.891 52.2967C101.945 52.3924 101.978 52.4977 101.99 52.6065Z" fill="#078194"/>
<path d="M3.70803 65.7336C3.7259 65.8943 3.69591 66.0568 3.62181 66.2006C3.54771 66.3443 3.43281 66.463 3.29151 66.5417C3.15022 66.6204 2.98883 66.6556 2.82759 66.643C2.66635 66.6303 2.51244 66.5703 2.38518 66.4705C2.25792 66.3706 2.16296 66.2355 2.11224 66.0819C2.06151 65.9283 2.05726 65.7632 2.10003 65.6072C2.1428 65.4512 2.23069 65.3114 2.35265 65.2051C2.47462 65.0989 2.62524 65.0311 2.78562 65.0101C2.89377 64.9965 3.00356 65.0044 3.10863 65.0335C3.21369 65.0626 3.31196 65.1122 3.39773 65.1795C3.48351 65.2467 3.5551 65.3303 3.60836 65.4255C3.66162 65.5206 3.6955 65.6253 3.70803 65.7336Z" fill="#DBDBDB"/>
<path d="M83.8033 67.4483C83.8211 67.6088 83.7911 67.7711 83.717 67.9147C83.643 68.0583 83.5283 68.1769 83.3872 68.2556C83.2461 68.3343 83.0849 68.3697 82.9238 68.3572C82.7628 68.3448 82.6089 68.2851 82.4816 68.1856C82.3543 68.0861 82.2592 67.9513 82.2081 67.798C82.157 67.6448 82.1523 67.4798 82.1946 67.3239C82.2368 67.1679 82.3241 67.0279 82.4455 66.9214C82.567 66.8148 82.7172 66.7464 82.8773 66.7248C82.9858 66.7101 83.0961 66.7173 83.2018 66.746C83.3075 66.7746 83.4064 66.8241 83.4927 66.8915C83.579 66.9589 83.6509 67.0429 83.7042 67.1385C83.7576 67.2341 83.7913 67.3394 83.8033 67.4483Z" fill="#DBDBDB"/>
<path d="M74.8321 60.6549C74.8499 60.8157 74.8199 60.9781 74.7458 61.1219C74.6717 61.2656 74.5568 61.3843 74.4155 61.463C74.2742 61.5417 74.1128 61.577 73.9516 61.5643C73.7904 61.5516 73.6365 61.4916 73.5092 61.3918C73.3819 61.292 73.287 61.1568 73.2363 61.0032C73.1855 60.8496 73.1813 60.6845 73.2241 60.5285C73.2668 60.3726 73.3547 60.2327 73.4767 60.1265C73.5986 60.0202 73.7493 59.9524 73.9096 59.9315C74.0178 59.9178 74.1276 59.9258 74.2326 59.9548C74.3377 59.9839 74.436 60.0335 74.5218 60.1008C74.6075 60.1681 74.6791 60.2517 74.7324 60.3468C74.7856 60.4419 74.8195 60.5466 74.8321 60.6549V60.6549Z" fill="#29C1D8"/>
<path d="M19.4 102.037C19.4177 102.198 19.3877 102.36 19.3137 102.503C19.2397 102.647 19.125 102.766 18.9839 102.844C18.8428 102.923 18.6816 102.958 18.5205 102.946C18.3594 102.933 18.2056 102.874 18.0783 102.774C17.951 102.675 17.8558 102.54 17.8048 102.387C17.7537 102.233 17.749 102.069 17.7912 101.913C17.8335 101.757 17.9208 101.617 18.0422 101.51C18.1637 101.403 18.3138 101.335 18.4739 101.314C18.5824 101.299 18.6925 101.307 18.798 101.336C18.9035 101.365 19.0022 101.414 19.0884 101.481C19.1746 101.549 19.2465 101.633 19.3 101.728C19.3535 101.823 19.3875 101.928 19.4 102.037Z" fill="#DBDBDB"/>
<path d="M76.6831 70.6278C76.726 70.9512 76.6721 71.2801 76.5281 71.5729C76.3842 71.8656 76.1566 72.1091 75.8743 72.2726C75.5919 72.436 75.2674 72.5121 74.9418 72.4911C74.6163 72.4701 74.3042 72.353 74.0452 72.1547C73.7861 71.9564 73.5917 71.6857 73.4865 71.3769C73.3813 71.068 73.3701 70.7349 73.4542 70.4197C73.5383 70.1045 73.714 69.8213 73.9591 69.6059C74.2042 69.3906 74.5076 69.2527 74.831 69.2098C75.2646 69.1523 75.7033 69.2694 76.0507 69.5353C76.398 69.8012 76.6255 70.1942 76.6831 70.6278V70.6278Z" fill="#29C1D8"/>
<path d="M58.3735 60.5898L58.7714 58.1626C58.7714 58.1626 57.3027 59.1863 55.0455 57.9962C52.7883 56.8061 52.9113 54.4078 50.4262 54.1655L49.833 56.7916C49.833 56.7916 52.054 56.7916 53.349 58.5099C54.3474 59.8012 55.599 61.165 58.3735 60.5898Z" fill="#29C1D8"/>
<path d="M69.5396 78.4846L67.239 77.6382C67.239 77.6382 67.9625 79.2768 66.3455 81.2555C64.7286 83.2342 62.4063 82.6409 61.6792 85.0283L64.139 86.1135C64.139 86.1135 64.5875 83.9432 66.5119 83.0027C67.9733 82.29 69.5577 81.3315 69.5396 78.4846Z" fill="#DBDBDB"/>
<path d="M87.0547 67.8895L88.885 69.5354C88.885 69.5354 88.8127 67.7448 91.0337 66.486C93.2548 65.2272 95.2081 66.6271 96.7527 64.6774L94.8608 62.7602C94.8608 62.7602 93.6527 64.6231 91.5184 64.7967C89.8979 64.9161 88.0748 65.2308 87.0547 67.8895Z" fill="#DBDBDB"/>
<path d="M9.53955 81.686L11.757 82.7531C11.757 82.7531 11.189 81.053 12.9688 79.2262C14.7485 77.3995 17.0165 78.1953 17.9498 75.8802L15.5985 74.5671C15.5985 74.5671 14.9583 76.6941 12.9579 77.461C11.4386 78.0325 9.77468 78.8464 9.53955 81.686Z" fill="#29C1D8"/>
<path d="M140.236 81.8089L137.472 82.8471C137.472 82.8471 138.492 86.5042 141.354 85.6396C141.354 85.6396 139.458 84.6883 140.236 81.8089Z" fill="#03788A"/>
<path d="M144.313 88.1285L145.333 85.401C145.333 85.401 143.669 83.7515 141.354 85.6542C141.354 85.6398 144.168 85.6289 144.313 88.1285Z" fill="#03788A"/>
<path d="M40.6697 65.7482L37.8916 66.7393C37.8916 66.7393 38.8393 70.4036 41.7332 69.597C41.7332 69.597 39.8449 68.6131 40.6697 65.7482Z" fill="#DBDBDB"/>
<path d="M44.6265 72.1183L45.69 69.4089C45.69 69.4089 44.055 67.7305 41.7109 69.597C41.7326 69.597 44.5361 69.6296 44.6265 72.1183Z" fill="#DBDBDB"/>
<path d="M107.351 49.5824L106.646 52.4473C106.646 52.4473 110.237 53.6808 111.142 50.834C111.142 50.834 109.286 51.8541 107.351 49.5824Z" fill="#29C1D8"/>
<path d="M114.858 49.7849L113.186 47.4011C113.186 47.4011 110.886 47.8388 111.143 50.8267C111.143 50.8339 112.727 48.5044 114.858 49.7849Z" fill="#29C1D8"/>
<path d="M65.8027 66.4246L66.0487 69.3655C66.0487 69.3655 69.8469 69.3655 69.7926 66.3957C69.7926 66.3884 68.3638 67.9511 65.8027 66.4246Z" fill="#03788A"/>
<path d="M72.979 64.2107L70.6314 62.4889C70.6314 62.4889 68.5912 63.6428 69.7922 66.3883C69.7922 66.3883 70.5482 63.6754 72.979 64.2107Z" fill="#03788A"/>
<path d="M85.4592 53.149C85.417 52.8264 85.4714 52.4984 85.6154 52.2067C85.7595 51.9149 85.9868 51.6724 86.2687 51.5098C86.5506 51.3472 86.8743 51.2718 87.199 51.2931C87.5237 51.3144 87.8348 51.4315 88.093 51.6295C88.3511 51.8276 88.5448 52.0977 88.6495 52.4058C88.7542 52.7139 88.7653 53.0461 88.6812 53.3605C88.5972 53.6749 88.4218 53.9573 88.1774 54.172C87.9329 54.3867 87.6302 54.5242 87.3077 54.567C86.8746 54.6235 86.4368 54.5059 86.0903 54.2401C85.7438 53.9743 85.5169 53.5819 85.4592 53.149Z" fill="#DBDBDB"/>
<path d="M140.33 101.429C140.312 101.268 140.342 101.106 140.416 100.962C140.491 100.819 140.605 100.7 140.747 100.621C140.888 100.542 141.049 100.507 141.211 100.52C141.372 100.533 141.526 100.593 141.653 100.692C141.78 100.792 141.875 100.927 141.926 101.081C141.977 101.234 141.981 101.4 141.938 101.556C141.895 101.712 141.808 101.851 141.686 101.958C141.564 102.064 141.413 102.132 141.253 102.153C141.144 102.167 141.034 102.159 140.929 102.13C140.824 102.101 140.725 102.052 140.64 101.985C140.554 101.917 140.482 101.833 140.429 101.738C140.376 101.643 140.342 101.538 140.33 101.429Z" fill="#DBDBDB"/>
<path d="M150.458 59.5227C150.415 59.1993 150.469 58.8704 150.613 58.5777C150.757 58.2849 150.985 58.0414 151.267 57.878C151.549 57.7145 151.874 57.6385 152.199 57.6595C152.525 57.6805 152.837 57.7975 153.096 57.9959C153.355 58.1942 153.55 58.4649 153.655 58.7737C153.76 59.0825 153.771 59.4156 153.687 59.7308C153.603 60.0461 153.427 60.3293 153.182 60.5446C152.937 60.76 152.634 60.8978 152.31 60.9407C151.877 60.9983 151.438 60.8812 151.091 60.6153C150.743 60.3494 150.516 59.9564 150.458 59.5227Z" fill="#DBDBDB"/>
<path d="M122.924 75.0265C122.881 74.7031 122.935 74.3742 123.079 74.0815C123.223 73.7887 123.45 73.5452 123.733 73.3818C124.015 73.2183 124.34 73.1423 124.665 73.1633C124.991 73.1842 125.303 73.3013 125.562 73.4996C125.821 73.698 126.015 73.9687 126.121 74.2775C126.226 74.5863 126.237 74.9194 126.153 75.2346C126.069 75.5498 125.893 75.833 125.648 76.0484C125.403 76.2638 125.1 76.4016 124.776 76.4445C124.342 76.502 123.904 76.385 123.556 76.1191C123.209 75.8531 122.982 75.4601 122.924 75.0265V75.0265Z" fill="#29C1D8"/>
<path d="M130.382 62.29L130.534 64.7461C130.534 64.7461 131.739 63.4186 134.206 64.0769C136.673 64.7353 137.082 67.1046 139.556 66.7899V64.095C139.556 64.095 137.385 64.5761 135.743 63.2015C134.495 62.1597 132.972 61.1071 130.382 62.29Z" fill="#29C1D8"/>
<path d="M105.554 73.6953L101.622 74.8094C101.622 74.8094 99.7518 69.9008 103.644 68.5117C103.644 68.5117 102.32 71.127 105.554 73.6953Z" fill="#078194"/>
<path d="M104.909 63.3245L108.284 65.5238C108.284 65.5238 107.785 68.7288 103.643 68.5117C103.643 68.5117 106.79 66.2111 104.909 63.3245Z" fill="#078194"/>
<path d="M26.4753 64.1782L24.1855 60.7961C24.1855 60.7961 28.2586 57.479 30.798 60.7418C30.798 60.7418 27.9005 60.3005 26.4753 64.1782Z" fill="#078194"/>
<path d="M36.1189 60.3113L35.0916 64.2072C35.0916 64.2072 31.8903 64.7389 30.7979 60.7418C30.7979 60.7418 33.9702 63.0062 36.1189 60.3113Z" fill="#078194"/>
</svg>
