<svg width="30" height="30" viewBox="0 0 30 30" fill="none" xmlns="http://www.w3.org/2000/svg">
<rect width="30" height="30" rx="3" fill="white"/>
<path d="M15.001 6.24951C12.6803 6.24951 10.4547 7.17138 8.81379 8.81233C7.17285 10.4533 6.25098 12.6789 6.25098 14.9995C6.25098 17.3202 7.17285 19.5458 8.81379 21.1867C10.4547 22.8276 12.6803 23.7495 15.001 23.7495C17.3216 23.7495 19.5472 22.8276 21.1882 21.1867C22.8291 19.5458 23.751 17.3202 23.751 14.9995C23.751 12.6789 22.8291 10.4533 21.1882 8.81233C19.5472 7.17138 17.3216 6.24951 15.001 6.24951V6.24951ZM7.33014 15.6606H9.77042C9.80931 16.5453 9.93278 17.4242 10.1399 18.2856H8.03987C7.64826 17.4601 7.40788 16.571 7.33014 15.6606ZM15.6621 10.4106V7.40646C16.599 7.76251 17.3689 8.45609 17.8204 9.3509C18.0197 9.68826 18.1957 10.0392 18.3454 10.4009L15.6621 10.4106ZM18.7926 11.7231C19.0182 12.5816 19.1524 13.4615 19.1913 14.3481H15.6621V11.7231H18.7926ZM14.3399 7.40646V10.4106H11.6565C11.8065 10.0487 11.9819 9.69778 12.1815 9.36062C12.6312 8.46215 13.4013 7.76488 14.3399 7.40646ZM14.3399 11.7231V14.3481H10.8204C10.8593 13.4615 10.9935 12.5816 11.219 11.7231H14.3399ZM9.77042 14.3384H7.33014C7.40788 13.428 7.64826 12.5389 8.03987 11.7134H10.1399C9.93238 12.5744 9.80866 13.4535 9.77042 14.3384ZM10.8204 15.6606H14.3399V18.2856H11.219C10.9935 17.4272 10.8599 16.5473 10.8204 15.6606ZM14.3496 19.5495V22.5537C13.4127 22.1976 12.6428 21.504 12.1913 20.6092C11.9917 20.2721 11.8162 19.9212 11.6663 19.5592L14.3496 19.5495ZM15.6621 22.5537V19.5981H18.3454C18.1954 19.9601 18.02 20.311 17.8204 20.6481C17.3689 21.5429 16.599 22.2365 15.6621 22.5926V22.5537ZM15.6621 18.237V15.612H19.1815C19.1421 16.4987 19.0084 17.3786 18.7829 18.237H15.6621ZM20.2413 15.612H22.6815C22.6038 16.5224 22.3634 17.4115 21.9718 18.237H19.8621C20.0663 17.3912 20.1897 16.5288 20.2315 15.6606L20.2413 15.612ZM20.2413 14.2995C20.1967 13.4306 20.0698 12.568 19.8621 11.7231H21.9621C22.3539 12.5495 22.594 13.4381 22.6718 14.3481L20.2413 14.2995ZM21.2135 10.4106H19.4732C19.1583 9.52619 18.7019 8.69876 18.1218 7.96062C19.3316 8.50369 20.3825 9.34706 21.1746 10.4106H21.2135ZM11.8801 7.96062C11.3 8.69876 10.8436 9.52619 10.5288 10.4106H8.82736C9.61946 9.34706 10.6703 8.50369 11.8801 7.96062ZM8.81764 19.6273H10.5288C10.8436 20.5117 11.3 21.3392 11.8801 22.0773C10.667 21.5261 9.61579 20.6724 8.82736 19.5981L8.81764 19.6273ZM18.1121 22.0773C18.6922 21.3392 19.1486 20.5117 19.4635 19.6273H21.1746C20.3777 20.6766 19.3272 21.5063 18.1218 22.0384L18.1121 22.0773Z" fill="#5B63AD"/>
</svg>
