<svg width="18" height="21" viewBox="0 0 18 21" fill="none" xmlns="http://www.w3.org/2000/svg">
<path d="M15 7H17C17.2652 7 17.5196 7.10536 17.7071 7.29289C17.8946 7.48043 18 7.73478 18 8V20C18 20.2652 17.8946 20.5196 17.7071 20.7071C17.5196 20.8946 17.2652 21 17 21H1C0.734784 21 0.48043 20.8946 0.292893 20.7071C0.105357 20.5196 0 20.2652 0 20V8C0 7.73478 0.105357 7.48043 0.292893 7.29289C0.48043 7.10536 0.734784 7 1 7H3V6C3 4.4087 3.63214 2.88258 4.75736 1.75736C5.88258 0.632141 7.4087 0 9 0C10.5913 0 12.1174 0.632141 13.2426 1.75736C14.3679 2.88258 15 4.4087 15 6V7ZM1 8V20H17V8H1ZM8 13H10V15H8V13ZM4 13H6V15H4V13ZM12 13H14V15H12V13ZM14 7V6C14 4.93913 13.5 3.5 12.5 2.5C11.5 1.5 10.5 1 9 1C7.5 1 6.5 1.5 5.5 2.5C4.5 3.5 4 4.93913 4 6V7H14Z" fill="#333333"/>
</svg>
