<svg width="24" height="92" viewBox="0 0 24 92" fill="none" xmlns="http://www.w3.org/2000/svg">
<line x1="12.5" y1="28" x2="12.5" y2="30" stroke="#5B63AD"/>
<line x1="12.5" y1="32" x2="12.5" y2="34" stroke="#5B63AD"/>
<line x1="12.5" y1="36" x2="12.5" y2="38" stroke="#5B63AD"/>
<line x1="12.5" y1="40" x2="12.5" y2="42" stroke="#5B63AD"/>
<line x1="12.5" y1="44" x2="12.5" y2="46" stroke="#5B63AD"/>
<line x1="12.5" y1="48" x2="12.5" y2="50" stroke="#5B63AD"/>
<line x1="12.5" y1="52" x2="12.5" y2="54" stroke="#5B63AD"/>
<line x1="12.5" y1="56" x2="12.5" y2="58" stroke="#5B63AD"/>
<line x1="12.5" y1="60" x2="12.5" y2="62" stroke="#5B63AD"/>
<path d="M12 6.35484C15.1199 6.35484 17.6452 8.87967 17.6452 12C17.6452 15.1199 15.1203 17.6452 12 17.6452C8.88015 17.6452 6.35484 15.1203 6.35484 12C6.35484 8.88015 8.87967 6.35484 12 6.35484ZM12 5C8.134 5 5 8.134 5 12C5 15.866 8.134 19 12 19C15.866 19 19 15.866 19 12C19 8.134 15.866 5 12 5ZM12 9.74194C10.7529 9.74194 9.74194 10.7529 9.74194 12C9.74194 13.2471 10.7529 14.2581 12 14.2581C13.2471 14.2581 14.2581 13.2471 14.2581 12C14.2581 10.7529 13.2471 9.74194 12 9.74194Z" fill="#5B63AD"/>
<path d="M12 85L13 83V77.858C14.721 77.411 16 75.858 16 74C16 71.794 14.206 70 12 70C9.794 70 8 71.794 8 74C8 75.858 9.279 77.411 11 77.858V83L12 85Z" fill="#5B63AD"/>
<path d="M16.267 78.563L15.734 80.491C18.325 81.207 20 82.584 20 84C20 85.892 16.715 88 12 88C7.285 88 4 85.892 4 84C4 82.584 5.675 81.207 8.267 80.49L7.734 78.562C4.197 79.54 2 81.623 2 84C2 87.364 6.393 90 12 90C17.607 90 22 87.364 22 84C22 81.623 19.803 79.54 16.267 78.563V78.563Z" fill="#5B63AD"/>
</svg>
