<svg width="24" height="24" viewBox="0 0 24 24" fill="none" xmlns="http://www.w3.org/2000/svg">
<path d="M12 6.35484C15.1199 6.35484 17.6452 8.87967 17.6452 12C17.6452 15.1199 15.1203 17.6452 12 17.6452C8.88015 17.6452 6.35484 15.1203 6.35484 12C6.35484 8.88015 8.87967 6.35484 12 6.35484ZM12 5C8.134 5 5 8.134 5 12C5 15.866 8.134 19 12 19C15.866 19 19 15.866 19 12C19 8.134 15.866 5 12 5ZM12 9.74194C10.7529 9.74194 9.74194 10.7529 9.74194 12C9.74194 13.2471 10.7529 14.2581 12 14.2581C13.2471 14.2581 14.2581 13.2471 14.2581 12C14.2581 10.7529 13.2471 9.74194 12 9.74194Z" fill="#5B63AD"/>
</svg>
