<svg width="24" height="24" viewBox="0 0 24 24" fill="none" xmlns="http://www.w3.org/2000/svg">
<path d="M21 18.375C21 18.6734 20.8815 18.9595 20.6705 19.1705C20.4595 19.3815 20.1734 19.5 19.875 19.5H8.625C8.32663 19.5 8.04048 19.3815 7.82951 19.1705C7.61853 18.9595 7.5 18.6734 7.5 18.375C7.5 18.0766 7.61853 17.7905 7.82951 17.5795C8.04048 17.3685 8.32663 17.25 8.625 17.25H19.875C20.1734 17.25 20.4595 17.3685 20.6705 17.5795C20.8815 17.7905 21 18.0766 21 18.375ZM21 6.375C21 6.67337 20.8815 6.95952 20.6705 7.17049C20.4595 7.38147 20.1734 7.5 19.875 7.5L10.125 7.5C9.82663 7.5 9.54048 7.38147 9.32951 7.17049C9.11853 6.95952 9 6.67337 9 6.375C9 6.07663 9.11853 5.79048 9.32951 5.57951C9.54048 5.36853 9.82663 5.25 10.125 5.25L19.875 5.25C20.1734 5.25 20.4595 5.36853 20.6705 5.57951C20.8815 5.79048 21 6.07663 21 6.375ZM19.875 13.5C20.1734 13.5 20.4595 13.3815 20.6705 13.1705C20.8815 12.9595 21 12.6734 21 12.375C21 12.0766 20.8815 11.7905 20.6705 11.5795C20.4595 11.3685 20.1734 11.25 19.875 11.25L4.125 11.25C3.82663 11.25 3.54048 11.3685 3.32951 11.5795C3.11853 11.7905 3 12.0766 3 12.375C3 12.6734 3.11853 12.9595 3.32951 13.1705C3.54048 13.3815 3.82663 13.5 4.125 13.5L19.875 13.5Z" fill="#333333"/>
</svg>
