<svg width="24" height="30" viewBox="0 0 24 30" fill="none" xmlns="http://www.w3.org/2000/svg">
<g filter="url(#filter0_d)">
<path d="M10.8 16.7998C10.6409 16.7998 10.4883 16.863 10.3757 16.9755C10.2632 17.0881 10.2 17.2407 10.2 17.3998C10.2 17.5589 10.2632 17.7115 10.3757 17.8241C10.4883 17.9366 10.6409 17.9998 10.8 17.9998H13.2C13.3591 17.9998 13.5118 17.9366 13.6243 17.8241C13.7368 17.7115 13.8 17.5589 13.8 17.3998C13.8 17.2407 13.7368 17.0881 13.6243 16.9755C13.5118 16.863 13.3591 16.7998 13.2 16.7998H10.8Z" fill="#333333"/>
<path d="M8.4 2.3999C7.76348 2.3999 7.15303 2.65276 6.70294 3.10285C6.25286 3.55293 6 4.16338 6 4.7999V19.1999C6 19.8364 6.25286 20.4469 6.70294 20.897C7.15303 21.347 7.76348 21.5999 8.4 21.5999H15.6C16.2365 21.5999 16.847 21.347 17.2971 20.897C17.7471 20.4469 18 19.8364 18 19.1999V4.7999C18 4.16338 17.7471 3.55293 17.2971 3.10285C16.847 2.65276 16.2365 2.3999 15.6 2.3999H8.4ZM7.2 4.7999C7.2 4.48164 7.32643 4.17642 7.55147 3.95137C7.77652 3.72633 8.08174 3.5999 8.4 3.5999H15.6C15.9183 3.5999 16.2235 3.72633 16.4485 3.95137C16.6736 4.17642 16.8 4.48164 16.8 4.7999V19.1999C16.8 19.5182 16.6736 19.8234 16.4485 20.0484C16.2235 20.2735 15.9183 20.3999 15.6 20.3999H8.4C8.08174 20.3999 7.77652 20.2735 7.55147 20.0484C7.32643 19.8234 7.2 19.5182 7.2 19.1999V4.7999Z" fill="#333333"/>
</g>
<defs>
<filter id="filter0_d" x="-4" y="0" width="32" height="32" filterUnits="userSpaceOnUse" color-interpolation-filters="sRGB">
<feFlood flood-opacity="0" result="BackgroundImageFix"/>
<feColorMatrix in="SourceAlpha" type="matrix" values="0 0 0 0 0 0 0 0 0 0 0 0 0 0 0 0 0 0 127 0" result="hardAlpha"/>
<feOffset dy="4"/>
<feGaussianBlur stdDeviation="2"/>
<feComposite in2="hardAlpha" operator="out"/>
<feColorMatrix type="matrix" values="0 0 0 0 0 0 0 0 0 0 0 0 0 0 0 0 0 0 0.25 0"/>
<feBlend mode="normal" in2="BackgroundImageFix" result="effect1_dropShadow"/>
<feBlend mode="normal" in="SourceGraphic" in2="effect1_dropShadow" result="shape"/>
</filter>
</defs>
</svg>
