<svg width="55" height="55" viewBox="0 0 55 55" fill="none" xmlns="http://www.w3.org/2000/svg">
<circle cx="27.5" cy="27.5" r="27.5" fill="#C7C7C7"/>
<g clip-path="url(#clip0_68_1388)">
<path d="M27 17.3334C29.1097 17.3334 31.172 17.959 32.9261 19.131C34.6802 20.3031 36.0474 21.969 36.8547 23.9181C37.6621 25.8672 37.8733 28.0119 37.4617 30.081C37.0501 32.1501 36.0342 34.0508 34.5425 35.5425C33.0507 37.0343 31.1501 38.0502 29.081 38.4618C27.0118 38.8733 24.8671 38.6621 22.9181 37.8548C20.969 37.0474 19.3031 35.6802 18.131 33.9261C16.9589 32.172 16.3333 30.1097 16.3333 28C16.3333 25.1711 17.4572 22.458 19.4575 20.4576C21.4579 18.4572 24.171 17.3334 27 17.3334ZM36.3333 28C36.3327 25.7573 35.5205 23.5906 34.0467 21.9L20.9 35.0467C22.2521 36.2143 23.9108 36.9693 25.6793 37.2221C27.4477 37.4749 29.2515 37.2148 30.8766 36.4729C32.5016 35.7309 33.8796 34.5381 34.8468 33.0363C35.8141 31.5344 36.33 29.7864 36.3333 28ZM19.9533 34.1L33.1 20.9534C31.3111 19.4587 29.0276 18.6875 26.6988 18.7916C24.3699 18.8957 22.1643 19.8676 20.516 21.516C18.8676 23.1644 17.8957 25.3699 17.7916 27.6988C17.6875 30.0276 18.4586 32.3111 19.9533 34.1Z" fill="white"/>
</g>
<defs>
<clipPath id="clip0_68_1388">
<rect width="24" height="24" fill="white" transform="translate(15 16)"/>
</clipPath>
</defs>
</svg>
