<svg width="71" height="325" viewBox="0 0 71 325" fill="none" xmlns="http://www.w3.org/2000/svg">
<circle cx="27.5" cy="27.5" r="27.5" fill="#FBBC05"/>
<path d="M16.8516 25.6562H22.8516C22.9547 25.6562 23.0391 25.7406 23.0391 25.8438V26.9688C23.0391 27.0719 22.9547 27.1562 22.8516 27.1562H16.8516C16.7484 27.1562 16.6641 27.0719 16.6641 26.9688V25.8438C16.6641 25.7406 16.7484 25.6562 16.8516 25.6562ZM19.9922 28.8438H22.8516C22.9547 28.8438 23.0391 28.9281 23.0391 29.0312V30.1562C23.0391 30.2594 22.9547 30.3438 22.8516 30.3438H19.9922C19.8891 30.3438 19.8047 30.2594 19.8047 30.1562V29.0312C19.8047 28.9281 19.8891 28.8438 19.9922 28.8438ZM27.8133 23.5586H28.8281C28.9734 23.5586 29.0906 23.6758 29.0906 23.8211V29.6336C29.0906 29.718 29.0508 29.7953 28.9828 29.8445L25.493 32.3898C25.3758 32.4742 25.2117 32.4508 25.1274 32.3336L24.525 31.5109V31.5086C24.4406 31.3914 24.4664 31.2273 24.5836 31.143L27.5531 28.9961V23.8211C27.5508 23.6758 27.6703 23.5586 27.8133 23.5586Z" fill="white"/>
<path d="M20.1375 31.7945H21.4922C21.6234 31.7945 21.7476 31.8625 21.818 31.975C22.1156 32.4461 22.4625 32.882 22.8609 33.2804C23.5476 33.9671 24.3469 34.5062 25.2351 34.8812C26.1562 35.2703 27.1336 35.4671 28.1414 35.4671C29.1515 35.4671 30.1289 35.2703 31.0476 34.8812C31.9359 34.5062 32.7351 33.9671 33.4219 33.2804C34.1086 32.5937 34.6476 31.7945 35.0226 30.9062C35.4117 29.9875 35.6086 29.0101 35.6086 28C35.6086 26.9898 35.4117 26.0148 35.0226 25.0937C34.6476 24.2054 34.1086 23.4062 33.4219 22.7195C32.7351 22.0328 31.9359 21.4937 31.0476 21.1187C30.1289 20.7296 29.1492 20.5328 28.1414 20.5328C27.1312 20.5328 26.1539 20.7296 25.2351 21.1187C24.3469 21.4937 23.5476 22.0328 22.8609 22.7195C22.4625 23.1179 22.1156 23.5539 21.818 24.025C21.7476 24.1375 21.6234 24.2054 21.4922 24.2054H20.1375C19.9758 24.2054 19.8726 24.0367 19.9453 23.8937C21.4734 20.8539 24.5719 18.8781 28.0312 18.8382C33.0961 18.775 37.3031 22.9211 37.3125 27.9812C37.3219 33.0507 33.2133 37.164 28.1437 37.164C24.6398 37.164 21.4898 35.1812 19.9453 32.1062C19.8726 31.9632 19.9781 31.7945 20.1375 31.7945Z" fill="white"/>
</svg>
