<svg width="55" height="55" viewBox="0 0 55 55" fill="none" xmlns="http://www.w3.org/2000/svg">
<circle cx="27.5" cy="27.5" r="27.5" fill="url(#paint0_linear_68_1390)"/>
<path d="M35.749 28.0001L36.853 26.0921C36.9857 25.8625 37.0218 25.5896 36.9533 25.3335C36.8849 25.0773 36.7175 24.8588 36.488 24.7261L34.578 23.6221V21.4221C34.578 21.1568 34.4727 20.9025 34.2851 20.715C34.0976 20.5274 33.8432 20.4221 33.578 20.4221H31.379L30.276 18.5131C30.1428 18.284 29.9247 18.1166 29.669 18.0471C29.5422 18.0127 29.4098 18.0038 29.2795 18.021C29.1492 18.0381 29.0236 18.081 28.91 18.1471L27 19.2511L25.09 18.1461C24.8603 18.0135 24.5874 17.9775 24.3312 18.0462C24.075 18.1148 23.8566 18.2824 23.724 18.5121L22.62 20.4221H20.421C20.1558 20.4221 19.9014 20.5274 19.7139 20.715C19.5264 20.9025 19.421 21.1568 19.421 21.4221V23.6211L17.511 24.7251C17.397 24.7906 17.2972 24.878 17.2171 24.9823C17.137 25.0866 17.0783 25.2057 17.0444 25.3327C17.0105 25.4597 17.002 25.5922 17.0194 25.7225C17.0369 25.8528 17.0799 25.9784 17.146 26.0921L18.25 28.0001L17.146 29.9081C17.014 30.1378 16.9782 30.4105 17.0464 30.6665C17.1146 30.9226 17.2812 31.1414 17.51 31.2751L19.42 32.3791V34.5781C19.42 34.8433 19.5254 35.0976 19.7129 35.2852C19.9004 35.4727 20.1548 35.5781 20.42 35.5781H22.62L23.724 37.4881C23.8125 37.6394 23.9389 37.7651 24.0908 37.8527C24.2426 37.9404 24.4147 37.987 24.59 37.9881C24.764 37.9881 24.937 37.9421 25.091 37.8531L26.999 36.7491L28.909 37.8531C29.1386 37.9855 29.4114 38.0214 29.6675 37.953C29.9236 37.8846 30.142 37.7174 30.275 37.4881L31.378 35.5781H33.577C33.8422 35.5781 34.0966 35.4727 34.2841 35.2852C34.4717 35.0976 34.577 34.8433 34.577 34.5781V32.3791L36.487 31.2751C36.6008 31.2093 36.7005 31.1218 36.7804 31.0175C36.8603 30.9132 36.9189 30.7942 36.9528 30.6672C36.9867 30.5402 36.9953 30.4079 36.978 30.2776C36.9607 30.1473 36.9179 30.0218 36.852 29.9081L35.749 28.0001ZM24.499 22.9901C24.897 22.9902 25.2786 23.1484 25.5599 23.4299C25.8412 23.7114 25.9991 24.0931 25.999 24.4911C25.9989 24.889 25.8407 25.2706 25.5592 25.5519C25.2777 25.8332 24.896 25.9912 24.498 25.9911C24.1001 25.9909 23.7184 25.8327 23.4371 25.5512C23.1558 25.2697 22.9979 24.888 22.998 24.4901C22.9981 24.0921 23.1564 23.7105 23.4379 23.4292C23.7193 23.1479 24.1011 22.9899 24.499 22.9901V22.9901ZM24.799 32.5901L23.199 31.3911L29.199 23.3911L30.799 24.5901L24.799 32.5901ZM29.499 32.9901C29.302 32.99 29.1069 32.9511 28.9248 32.8756C28.7428 32.8002 28.5774 32.6896 28.4381 32.5502C28.2989 32.4108 28.1884 32.2454 28.113 32.0633C28.0377 31.8812 27.9989 31.6861 27.999 31.4891C27.9991 31.292 28.038 31.0969 28.1134 30.9149C28.1889 30.7329 28.2995 30.5675 28.4389 30.4282C28.5782 30.2889 28.7437 30.1784 28.9258 30.1031C29.1078 30.0277 29.303 29.989 29.5 29.9891C29.898 29.9892 30.2796 30.1474 30.5609 30.4289C30.8422 30.7104 31.0001 31.0921 31 31.4901C30.9999 31.888 30.8417 32.2696 30.5602 32.5509C30.2787 32.8322 29.897 32.9902 29.499 32.9901V32.9901Z" fill="white"/>
<defs>
<linearGradient id="paint0_linear_68_1390" x1="50.7031" y1="55" x2="0" y2="0" gradientUnits="userSpaceOnUse">
<stop stop-color="#5B63AD"/>
<stop offset="1" stop-color="#29C1D8"/>
</linearGradient>
</defs>
</svg>
