<svg width="24" height="24" viewBox="0 0 24 24" fill="none" xmlns="http://www.w3.org/2000/svg">
<path d="M10.8 16.8C10.6409 16.8 10.4883 16.8632 10.3757 16.9757C10.2632 17.0882 10.2 17.2409 10.2 17.4C10.2 17.5591 10.2632 17.7117 10.3757 17.8243C10.4883 17.9368 10.6409 18 10.8 18H13.2C13.3591 18 13.5118 17.9368 13.6243 17.8243C13.7368 17.7117 13.8 17.5591 13.8 17.4C13.8 17.2409 13.7368 17.0882 13.6243 16.9757C13.5118 16.8632 13.3591 16.8 13.2 16.8H10.8Z" fill="#333333"/>
<path d="M8.4 2.39999C7.76348 2.39999 7.15303 2.65285 6.70294 3.10294C6.25286 3.55302 6 4.16347 6 4.79999V19.2C6 19.8365 6.25286 20.447 6.70294 20.8971C7.15303 21.3471 7.76348 21.6 8.4 21.6H15.6C16.2365 21.6 16.847 21.3471 17.2971 20.8971C17.7471 20.447 18 19.8365 18 19.2V4.79999C18 4.16347 17.7471 3.55302 17.2971 3.10294C16.847 2.65285 16.2365 2.39999 15.6 2.39999H8.4ZM7.2 4.79999C7.2 4.48173 7.32643 4.17651 7.55147 3.95147C7.77652 3.72642 8.08174 3.59999 8.4 3.59999H15.6C15.9183 3.59999 16.2235 3.72642 16.4485 3.95147C16.6736 4.17651 16.8 4.48173 16.8 4.79999V19.2C16.8 19.5183 16.6736 19.8235 16.4485 20.0485C16.2235 20.2736 15.9183 20.4 15.6 20.4H8.4C8.08174 20.4 7.77652 20.2736 7.55147 20.0485C7.32643 19.8235 7.2 19.5183 7.2 19.2V4.79999Z" fill="#333333"/>
</svg>
