<svg width="30" height="30" viewBox="0 0 30 30" fill="none" xmlns="http://www.w3.org/2000/svg">
<path d="M17 23.1188H17V23.125C17 25.8136 19.1864 28 21.875 28C24.5636 28 26.75 25.8136 26.75 23.125C26.75 20.4364 24.5636 18.25 21.875 18.25C20.7361 18.25 19.6977 18.6516 18.8722 19.3043L11.6696 15.1887C11.6933 15.0552 11.7116 14.919 11.7235 14.7801L18.8712 10.6956C19.6975 11.3483 20.7359 11.75 21.875 11.75C24.5636 11.75 26.75 9.56364 26.75 6.875C26.75 4.18636 24.5636 2 21.875 2C19.1864 2 17 4.18636 17 6.875C17 7.15925 17.0309 7.43057 17.0791 7.6895L10.6845 11.3447C10.2802 10.8347 9.77662 10.4095 9.20258 10.096C8.48891 9.70617 7.68898 9.50128 6.87579 9.5H6.875C4.18636 9.5 2 11.6864 2 14.375C2 17.0636 4.18636 19.25 6.875 19.25C8.01386 19.25 9.0523 18.8484 9.87781 18.1957L17.0781 22.31C17.0296 22.5767 17.0034 22.8473 17 23.1188ZM21.875 21.75C22.6326 21.75 23.25 22.3674 23.25 23.125C23.25 23.8826 22.6326 24.5 21.875 24.5C21.1174 24.5 20.5 23.8826 20.5 23.125C20.5 22.3674 21.1174 21.75 21.875 21.75ZM21.875 5.5C22.6326 5.5 23.25 6.11739 23.25 6.875C23.25 7.63261 22.6326 8.25 21.875 8.25C21.1174 8.25 20.5 7.63261 20.5 6.875C20.5 6.11739 21.1174 5.5 21.875 5.5ZM6.875 13C7.63261 13 8.25 13.6174 8.25 14.375C8.25 15.1326 7.63261 15.75 6.875 15.75C6.11739 15.75 5.5 15.1326 5.5 14.375C5.5 13.6174 6.11739 13 6.875 13Z" fill="white" stroke="#5B63AD"/>
</svg>
