<svg width="30" height="30" viewBox="0 0 30 30" fill="none" xmlns="http://www.w3.org/2000/svg">
<rect width="30" height="30" rx="3" fill="white"/>
<g clip-path="url(#clip0_68_1426)">
<path d="M24.5842 7.49949C23.7681 8.06416 22.8644 8.49604 21.9081 8.7785C21.3948 8.19961 20.7126 7.78931 19.9539 7.60309C19.1951 7.41687 18.3963 7.46371 17.6655 7.73728C16.9348 8.01085 16.3073 8.49795 15.868 9.1327C15.4287 9.76745 15.1987 10.5192 15.2092 11.2863V12.1223C13.7115 12.1604 12.2274 11.8346 10.8891 11.1739C9.55077 10.5132 8.39984 9.53807 7.53877 8.33544C7.53877 8.33544 4.12968 15.859 11.8001 19.2028C10.0449 20.3714 7.95396 20.9574 5.83423 20.8747C13.5047 25.0544 22.8797 20.8747 22.8797 11.2613C22.8789 11.0284 22.8561 10.7961 22.8115 10.5674C23.6813 9.72604 24.2952 8.66373 24.5842 7.49949V7.49949Z" stroke="#5B63AD" stroke-width="1.33333" stroke-linecap="round" stroke-linejoin="round"/>
</g>
<defs>
<clipPath id="clip0_68_1426">
<rect width="20" height="20" fill="white" transform="translate(5.00098 4.99951)"/>
</clipPath>
</defs>
</svg>
