<svg width="31" height="30" viewBox="0 0 31 30" fill="none" xmlns="http://www.w3.org/2000/svg">
<path d="M27.1668 12.5H26.3334V7.49998C26.3334 7.27897 26.2457 7.067 26.0894 6.91072C25.9331 6.75444 25.7211 6.66665 25.5001 6.66665H5.50011C5.30279 6.66987 5.11073 6.60295 4.95812 6.47781C4.80552 6.35268 4.70228 6.17744 4.66678 5.98331V5.68331C4.70228 5.48918 4.80552 5.31395 4.95812 5.18881C5.11073 5.06368 5.30279 4.99676 5.50011 4.99998H25.1501C25.3711 4.99998 25.5831 4.91218 25.7394 4.7559C25.8957 4.59962 25.9834 4.38766 25.9834 4.16665C25.9834 3.94563 25.8957 3.73367 25.7394 3.57739C25.5831 3.42111 25.3711 3.33331 25.1501 3.33331H5.50011C4.83707 3.33331 4.20119 3.59671 3.73235 4.06555C3.26351 4.53439 3.00011 5.17027 3.00011 5.83331C2.99427 5.93323 2.99427 6.0334 3.00011 6.13331V23.275C3.00339 23.7237 3.095 24.1673 3.26974 24.5806C3.44447 24.9939 3.69889 25.3687 4.01848 25.6836C4.33807 25.9986 4.71657 26.2475 5.13236 26.4162C5.54815 26.5848 5.99309 26.6699 6.44178 26.6666H25.5001C25.7211 26.6666 25.9331 26.5789 26.0894 26.4226C26.2457 26.2663 26.3334 26.0543 26.3334 25.8333V20.8333H27.1668C27.3878 20.8333 27.5998 20.7455 27.756 20.5892C27.9123 20.433 28.0001 20.221 28.0001 20V13.3333C28.0001 13.1123 27.9123 12.9003 27.756 12.7441C27.5998 12.5878 27.3878 12.5 27.1668 12.5ZM24.6668 25H6.44178C5.97828 25.0045 5.53176 24.8257 5.19936 24.5027C4.86695 24.1796 4.67555 23.7384 4.66678 23.275V8.23331C4.93728 8.3117 5.21875 8.34548 5.50011 8.33331H24.6668V12.5H18.8334C17.7284 12.5 16.6686 12.939 15.8872 13.7204C15.1058 14.5018 14.6668 15.5616 14.6668 16.6666C14.6668 17.7717 15.1058 18.8315 15.8872 19.6129C16.6686 20.3943 17.7284 20.8333 18.8334 20.8333H24.6668V25ZM26.3334 19.1666H18.8334C18.1704 19.1666 17.5345 18.9033 17.0657 18.4344C16.5968 17.9656 16.3334 17.3297 16.3334 16.6666C16.3334 16.0036 16.5968 15.3677 17.0657 14.8989C17.5345 14.43 18.1704 14.1666 18.8334 14.1666H26.3334V19.1666Z" fill="#5B63AD"/>
<path d="M19.675 17.9167C20.3654 17.9167 20.925 17.357 20.925 16.6667C20.925 15.9763 20.3654 15.4167 19.675 15.4167C18.9847 15.4167 18.425 15.9763 18.425 16.6667C18.425 17.357 18.9847 17.9167 19.675 17.9167Z" fill="#5B63AD"/>
</svg>
